<svg width="38" height="38" viewBox="0 0 38 38" fill="none" xmlns="http://www.w3.org/2000/svg">
<path d="M18.6646 6.20903e-07C14.9713 -0.000951624 11.3607 1.09342 8.28946 3.1447C5.21821 5.19599 2.8243 8.11202 1.4105 11.524C-0.00329613 14.9359 -0.37347 18.6906 0.346819 22.3129C1.06711 25.9353 2.84551 29.2627 5.45705 31.8742C8.06859 34.4858 11.396 36.2641 15.0183 36.9844C18.6407 37.7047 22.3953 37.3346 25.8072 35.9208C29.2192 34.507 32.1353 32.113 34.1866 29.0418C36.2378 25.9706 37.3322 22.3599 37.3313 18.6667C37.3313 13.716 35.3646 8.96802 31.864 5.46734C28.3633 1.96666 23.6153 6.20903e-07 18.6646 6.20903e-07V6.20903e-07ZM23.5178 11.2664H21.5919C20.0704 11.2664 19.7768 11.9886 19.7768 13.0527V15.3927H23.407L22.9256 19.0615H19.7672V28.4839H15.9924V19.0663H12.8243V15.3975H15.9924V12.6916C15.9924 9.5524 17.9183 7.84318 20.7109 7.84318C21.6565 7.83793 22.6017 7.88615 23.5419 7.98762L23.5178 11.2664Z" fill="white"/>
</svg>
