<svg width="38" height="38" viewBox="0 0 38 38" fill="none" xmlns="http://www.w3.org/2000/svg">
<path d="M27.673 12.4185C27.4872 11.9362 27.202 11.4985 26.8358 11.1339C26.4695 10.7693 26.0305 10.486 25.5473 10.3025C24.8803 10.0568 24.1762 9.92681 23.4654 9.91822C22.2834 9.86471 21.9331 9.85498 18.9416 9.85498C15.95 9.85498 15.5949 9.85498 14.4129 9.91822C13.7022 9.92841 12.9985 10.0583 12.3311 10.3025C11.849 10.4879 11.4109 10.7718 11.0449 11.1362C10.6789 11.5006 10.3929 11.9373 10.2053 12.4185C9.95906 13.0803 9.82904 13.7797 9.82099 14.4858C9.76748 15.6581 9.75781 16.0083 9.75781 18.9853C9.75781 21.9622 9.75776 22.3125 9.82099 23.4848C9.82962 24.1908 9.95963 24.8901 10.2053 25.5521C10.395 26.0321 10.6816 26.4678 11.0474 26.8319C11.4132 27.1959 11.8502 27.4806 12.3311 27.6681C12.9991 27.9102 13.7024 28.0401 14.4129 28.0524C15.5949 28.1059 15.95 28.1156 18.9416 28.1156C21.9331 28.1156 22.2834 28.1156 23.4654 28.0524C24.176 28.0413 24.8797 27.9114 25.5473 27.6681C26.0294 27.4827 26.4675 27.1987 26.8335 26.8344C27.1995 26.47 27.4854 26.0333 27.673 25.5521C27.9187 24.8901 28.0487 24.1908 28.0573 23.4848C28.1108 22.3125 28.1255 21.9574 28.1255 18.9853C28.1255 16.0132 28.1254 15.6581 28.0573 14.4858C28.0492 13.7797 27.9192 13.0803 27.673 12.4185ZM18.9172 24.7057C17.7877 24.6971 16.6861 24.3543 15.7512 23.7205C14.8162 23.0866 14.0899 22.1902 13.6636 21.1442C13.2374 20.0982 13.1303 18.9495 13.3559 17.8427C13.5816 16.736 14.1299 15.7208 14.9316 14.9251C15.7333 14.1295 16.7527 13.589 17.8611 13.3718C18.9696 13.1546 20.1175 13.2704 21.1602 13.7046C22.2029 14.1388 23.0937 14.872 23.7204 15.8118C24.347 16.7515 24.6815 17.8558 24.6815 18.9853C24.6763 20.5042 24.0693 21.9592 22.9935 23.0314C21.9176 24.1037 20.4605 24.7057 18.9416 24.7057H18.9172ZM24.8955 14.3739C24.6309 14.373 24.3726 14.2936 24.1531 14.1458C23.9337 13.998 23.763 13.7885 23.6627 13.5437C23.5623 13.2989 23.5368 13.0298 23.5894 12.7705C23.642 12.5112 23.7701 12.2733 23.9579 12.0869C24.1457 11.9005 24.3845 11.774 24.6442 11.7233C24.9039 11.6727 25.1728 11.7001 25.4168 11.8023C25.6609 11.9044 25.8692 12.0766 26.0154 12.2971C26.1616 12.5176 26.239 12.7765 26.238 13.0411C26.2368 13.3917 26.098 13.7278 25.8515 13.977C25.605 14.2263 25.2704 14.3688 24.9198 14.3739H24.8955Z" fill="white"/>
<path d="M18.9415 15.2739C18.2083 15.2778 17.4926 15.4987 16.8849 15.9089C16.2771 16.319 15.8044 16.9 15.5265 17.5785C15.2486 18.257 15.1778 19.0027 15.3232 19.7213C15.4686 20.44 15.8236 21.0995 16.3434 21.6166C16.8633 22.1337 17.5246 22.4853 18.244 22.6269C18.9635 22.7686 19.7087 22.6939 20.3857 22.4125C21.0628 22.131 21.6414 21.6553 22.0483 21.0454C22.4553 20.4354 22.6725 19.7186 22.6725 18.9854C22.6712 18.4967 22.5737 18.0131 22.3855 17.5621C22.1973 17.1111 21.9221 16.7016 21.5757 16.357C21.2292 16.0123 20.8183 15.7393 20.3664 15.5535C19.9144 15.3676 19.4302 15.2727 18.9415 15.2739Z" fill="white"/>
<path d="M19.0001 0C15.2422 0 11.5687 1.11433 8.44418 3.20208C5.31964 5.28982 2.88433 8.25723 1.44627 11.729C0.00820274 15.2008 -0.368021 19.0211 0.365099 22.7067C1.09822 26.3924 2.90782 29.7778 5.56502 32.435C8.22222 35.0922 11.6076 36.9018 15.2933 37.6349C18.9789 38.368 22.7992 37.9918 26.271 36.5537C29.7428 35.1157 32.7102 32.6804 34.7979 29.5558C36.8857 26.4313 38 22.7578 38 19C38 13.9609 35.9983 9.12817 32.4351 5.56498C28.8719 2.00179 24.0392 0 19.0001 0ZM30.0761 23.5773C30.058 24.5019 29.8819 25.4166 29.5556 26.2819C29.2724 27.0247 28.8309 27.6969 28.2617 28.2519C27.7033 28.8215 27.0254 29.26 26.2771 29.5361C25.4068 29.8628 24.4872 30.0388 23.5579 30.0566C22.3612 30.1101 21.9818 30.1198 18.9416 30.1198C15.9014 30.1198 15.5366 30.1198 14.3205 30.0566C13.3912 30.0383 12.4718 29.8623 11.6015 29.5361C10.8589 29.2522 10.1839 28.8159 9.62012 28.2555C9.0563 27.695 8.61604 27.0227 8.32768 26.2819C8.00132 25.4166 7.82538 24.5019 7.80728 23.5773C7.74891 22.3904 7.73911 22.011 7.73911 18.9854C7.73911 15.9598 7.73918 15.5804 7.80728 14.3935C7.82538 13.4689 8.00132 12.5542 8.32768 11.6889C8.61419 10.947 9.05381 10.2738 9.61786 9.71308C10.1819 9.15238 10.8579 8.71681 11.6015 8.43473C12.4718 8.10849 13.3912 7.93249 14.3205 7.91424C15.5172 7.86074 15.8966 7.84614 18.9416 7.84614C21.9867 7.84614 22.3466 7.84614 23.5579 7.91424C24.4872 7.93202 25.4068 8.10803 26.2771 8.43473C27.0242 8.71081 27.7018 9.14751 28.2617 9.71403C28.83 10.2716 29.2713 10.9452 29.5556 11.6889C29.8819 12.5542 30.058 13.4689 30.0761 14.3935C30.1296 15.5804 30.1442 15.9598 30.1442 18.9854C30.1442 22.011 30.1296 22.3904 30.0761 23.5773Z" fill="white"/>
</svg>
