<svg width="39" height="38" viewBox="0 0 39 38" fill="none" xmlns="http://www.w3.org/2000/svg">
<path d="M19.6626 0C15.9043 0 12.2303 1.09493 9.10539 3.14631C5.98045 5.1977 3.54494 8.11341 2.1067 11.5247C0.668446 14.9361 0.292059 18.6898 1.02527 22.3112C1.75849 25.9327 3.56838 29.2592 6.22592 31.8701C8.88346 34.481 12.2693 36.2591 15.9554 36.9794C19.6415 37.6998 23.4623 37.3301 26.9345 35.917C30.4068 34.504 33.3746 32.1112 35.4626 29.041C37.5506 25.9709 38.665 22.3615 38.665 18.6691C38.665 13.7177 36.663 8.96918 33.0994 5.46805C29.5357 1.96692 24.7024 0 19.6626 0V0ZM14.9145 27.5002H10.8837V14.7809H14.9145V27.5002ZM12.899 13.0549C12.4365 13.0559 11.9841 12.922 11.5991 12.6702C11.214 12.4185 10.9137 12.0601 10.736 11.6406C10.5584 11.2211 10.5113 10.7592 10.6009 10.3134C10.6906 9.86759 10.9129 9.45794 11.2396 9.1363C11.5664 8.81465 11.9828 8.59546 12.4364 8.50646C12.89 8.41746 13.3601 8.46265 13.7875 8.63632C14.2149 8.81 14.5803 9.10434 14.8374 9.4821C15.0945 9.85986 15.2316 10.304 15.2316 10.7584C15.2323 11.0598 15.1725 11.3583 15.0555 11.6369C14.9386 11.9155 14.7668 12.1687 14.5502 12.382C14.3335 12.5953 14.0761 12.7646 13.7928 12.88C13.5095 12.9955 13.2057 13.0549 12.899 13.0549V13.0549ZM29.9788 27.5146H25.9577V21.3299C25.9577 19.8533 25.9284 17.9739 23.8642 17.9739C21.8 17.9739 21.4535 19.58 21.4535 21.2388V27.5338H17.4325V14.7809H21.2925V16.5164H21.3462C21.732 15.8677 22.2899 15.3342 22.9603 14.9728C23.6307 14.6114 24.3884 14.4357 25.1526 14.4645C29.2273 14.4645 29.9788 17.0965 29.9788 20.5245V27.5146Z" fill="white"/>
</svg>
