<svg width="38" height="38" viewBox="0 0 38 38" fill="none" xmlns="http://www.w3.org/2000/svg">
<path d="M18.9967 6.20903e-07C15.3034 -0.000951624 11.6927 1.09342 8.62149 3.1447C5.55025 5.19598 3.15633 8.11204 1.74253 11.524C0.328735 14.936 -0.0414391 18.6906 0.678851 22.3129C1.39914 25.9353 3.17754 29.2627 5.78908 31.8742C8.40063 34.4858 11.728 36.2641 15.3503 36.9844C18.9727 37.7047 22.7273 37.3346 26.1393 35.9208C29.5512 34.507 32.4673 32.113 34.5186 29.0418C36.5699 25.9706 37.6643 22.36 37.6633 18.6667C37.6633 13.716 35.6967 8.96802 32.196 5.46734C28.6953 1.96666 23.9474 6.20903e-07 18.9967 6.20903e-07ZM27.0035 15.6382C27.0035 15.8115 27.0035 15.9801 27.0035 16.1534C27.0035 21.4111 22.9976 27.4728 15.6841 27.4728C13.5215 27.4741 11.4041 26.8541 9.58385 25.6865C9.90331 25.7259 10.2249 25.7452 10.5468 25.7443C12.3378 25.745 14.0772 25.1448 15.4867 24.0399C14.6569 24.0223 13.8531 23.7467 13.187 23.2515C12.5209 22.7562 12.0256 22.0659 11.7698 21.2762C12.0175 21.3221 12.2688 21.3463 12.5208 21.3485C12.8753 21.3486 13.2283 21.3017 13.5705 21.2088C12.6702 21.0267 11.8606 20.5389 11.2789 19.8282C10.6971 19.1174 10.3789 18.2274 10.3782 17.3089V17.256C10.9312 17.5584 11.5488 17.7235 12.1789 17.7374C11.3395 17.1761 10.745 16.3165 10.5161 15.3329C10.2872 14.3493 10.4411 13.3155 10.9465 12.4412C11.9443 13.6681 13.1882 14.6722 14.598 15.3888C16.0079 16.1053 17.5522 16.5183 19.1315 16.6012C19.0595 16.3032 19.0239 15.9977 19.0254 15.6912C19.0264 14.8933 19.2671 14.1141 19.7162 13.4546C20.1652 12.7952 20.8021 12.2858 21.5441 11.9926C22.2862 11.6994 23.0992 11.6359 23.8778 11.8104C24.6564 11.9848 25.3645 12.3891 25.9105 12.9709C26.8 12.7952 27.6531 12.4696 28.4334 12.0079C28.1368 12.929 27.5158 13.7109 26.6857 14.2082C27.4747 14.1131 28.2453 13.9022 28.9727 13.5823C28.4433 14.3788 27.7765 15.075 27.0035 15.6382Z" fill="white"/>
</svg>
