<svg width="38" height="38" viewBox="0 0 38 38" fill="none" xmlns="http://www.w3.org/2000/svg">
<path d="M19 0C15.2422 0 11.5687 1.11433 8.44418 3.20208C5.31964 5.28982 2.88439 8.25721 1.44632 11.729C0.00825955 15.2008 -0.368041 19.0211 0.365079 22.7067C1.0982 26.3924 2.90778 29.7778 5.56498 32.435C8.22217 35.0922 11.6077 36.9018 15.2933 37.6349C18.979 38.368 22.7992 37.9918 26.271 36.5537C29.7428 35.1156 32.7102 32.6804 34.798 29.5558C36.8857 26.4313 38 22.7578 38 19C38 13.9609 35.9982 9.12816 32.435 5.56497C28.8718 2.00178 24.0391 0 19 0ZM27.8816 19.7901C27.8736 20.7579 27.8129 21.7246 27.6996 22.6858C27.6996 22.6858 27.5258 23.9268 26.9881 24.4605C26.5143 24.9393 25.8704 25.2114 25.1968 25.2175C22.7148 25.3995 18.9339 25.4037 18.9339 25.4037C18.9339 25.4037 14.2841 25.3623 12.8528 25.2258C12.4392 25.1513 11.5622 25.172 10.8796 24.4605C10.346 23.9186 10.1722 22.6858 10.1722 22.6858C10.0589 21.7246 9.99821 20.7579 9.99025 19.7901V18.4333C9.99821 17.4654 10.0589 16.4988 10.1722 15.5376C10.1722 15.5376 10.346 14.2965 10.8796 13.7629C11.3552 13.2842 12.0003 13.0122 12.675 13.0059C15.157 12.8239 18.9297 12.8239 18.9297 12.8239C18.9297 12.8239 22.6859 12.8239 25.1886 13.0059C25.8622 13.012 26.506 13.2841 26.9798 13.7629C27.5176 14.3048 27.6913 15.5376 27.6913 15.5376C27.8046 16.4988 27.8654 17.4654 27.8733 18.4333L27.8816 19.7901Z" fill="white"/>
<path d="M17.0889 21.4324L21.9206 18.9297L17.0889 16.4062V21.4324Z" fill="white"/>
</svg>
