<svg width="174" height="93" viewBox="0 0 174 93" fill="none" xmlns="http://www.w3.org/2000/svg">
<path d="M142.159 18.1174L163.199 6.46436C163.629 6.2775 164.015 6.003 164.333 5.65839C164.651 5.31378 164.894 4.90664 165.046 4.46298C165.198 4.01931 165.255 3.54888 165.215 3.08172C165.174 2.61456 165.037 2.16096 164.811 1.74987C164.586 1.33879 164.277 0.97927 163.905 0.694278C163.532 0.409286 163.105 0.205087 162.649 0.0947251C162.193 -0.0156368 161.72 -0.0297354 161.258 0.0533298C160.797 0.136395 160.357 0.314798 159.969 0.577143L159.827 0.66481L138.922 12.2369L142.159 18.1174Z" fill="white"/>
<path d="M163.92 8.07581L143.015 19.6412L146.266 25.5284L167.333 13.8754C168.051 13.4119 168.566 12.6929 168.775 11.864C168.983 11.035 168.869 10.1578 168.455 9.4099C168.041 8.66199 167.359 8.09914 166.546 7.8352C165.733 7.57125 164.85 7.62592 164.076 7.98814L163.927 8.07581" fill="white"/>
<path d="M172.734 16.7148C172.301 15.9374 171.578 15.3629 170.723 15.1166C169.867 14.8703 168.949 14.972 168.169 15.3998L168.021 15.4874L147.115 27.0528L150.386 32.9333L171.426 21.287C172.202 20.8524 172.775 20.1288 173.02 19.2737C173.265 18.4185 173.163 17.5012 172.734 16.7215" fill="white"/>
<path d="M166.254 26.1359L166.105 26.2235L146.946 36.8178C143.789 38.5336 140.08 38.9292 136.631 37.9182C133.183 36.9073 130.275 34.5719 128.543 31.4229C126.878 28.2872 126.485 24.6302 127.448 21.2126C128.41 17.795 130.652 14.8798 133.709 13.0734L133.918 12.9587L145.524 6.53878C145.976 6.36785 146.386 6.10156 146.727 5.758C147.067 5.41443 147.33 5.00164 147.497 4.54763C147.664 4.09362 147.731 3.60903 147.694 3.12674C147.657 2.64446 147.517 2.17578 147.283 1.75252C147.048 1.32925 146.726 0.961315 146.337 0.673675C145.948 0.386035 145.502 0.185429 145.029 0.0854745C144.555 -0.0144801 144.066 -0.0114435 143.594 0.0943783C143.122 0.2002 142.679 0.40633 142.293 0.698775L142.145 0.779699L130.681 7.11874C126.135 9.80171 122.814 14.1504 121.422 19.2419C120.029 24.3335 120.676 29.7671 123.224 34.3897C125.773 39.0122 130.022 42.46 135.07 44.0011C140.119 45.5423 145.569 45.0556 150.264 42.6443L150.73 42.3813L169.511 31.9894C169.935 31.797 170.314 31.5189 170.625 31.1727C170.936 30.8265 171.172 30.4197 171.318 29.9778C171.464 29.536 171.517 29.0687 171.474 28.6053C171.431 28.1419 171.292 27.6925 171.066 27.2854C170.841 26.8783 170.534 26.5223 170.164 26.2397C169.794 25.9572 169.37 25.7543 168.917 25.6438C168.465 25.5333 167.995 25.5175 167.537 25.5976C167.078 25.6776 166.641 25.8517 166.254 26.1089" fill="white"/>
<path d="M101.562 67.636C101.248 68.1444 100.811 68.5654 100.291 68.8601C99.7713 69.1547 99.1855 69.3136 98.5881 69.3219C98.232 69.344 97.8754 69.2887 97.5428 69.1597C97.2102 69.0306 96.9095 68.8311 96.6615 68.5747C96.4134 68.3183 96.2239 68.0112 96.106 67.6745C95.988 67.3379 95.9445 66.9796 95.9783 66.6245C95.9783 63.6573 100.119 63.1313 102.365 62.8952V63.6977C102.365 65.1409 102.405 66.348 101.562 67.6293V67.636ZM108.393 60.0831C108.393 57.6284 108.589 55.3626 106.505 53.6969C104.86 52.3482 102.128 51.8491 100.038 51.8491C95.7422 51.8491 90.9205 53.2923 90.3203 58.2354L95.8973 58.7546C95.8973 56.7315 97.5495 55.7874 99.4378 55.7874C99.8829 55.7646 100.328 55.8391 100.741 56.0056C101.155 56.1722 101.527 56.4268 101.832 56.7518C102.432 57.5205 102.351 58.5591 102.351 59.4492V59.9348C99.8626 60.1775 96.6122 60.3326 94.2586 61.2228C91.5612 62.2209 89.6797 64.2709 89.6797 67.2921C89.6797 71.1495 92.4918 73.0714 96.1064 73.0714C99.1613 73.0714 100.928 71.9115 102.614 69.4973C102.567 70.5639 102.663 71.632 102.897 72.6735H108.758C108.467 71.682 108.333 70.6514 108.36 69.6187L108.393 60.0831Z" fill="white"/>
<path d="M0.635742 72.6601H20.3137V67.3191H7.06245V61.2093H17.5016V56.0302H7.06245V50.4464H20.3137V45.1055H0.635742V72.6601Z" fill="white"/>
<path d="M46.2972 51.8558C43.7683 51.8558 41.4013 52.982 40.356 55.3894C39.1489 52.982 37.463 51.8558 34.7722 51.8558C32.0815 51.8558 30.1528 52.982 29.1076 55.3894H29.0334V52.2536H23.4092V72.66H29.3099V61.8701C29.3099 59.6582 29.1885 56.61 32.2838 56.61C35.3792 56.61 34.9341 59.7391 34.9341 61.8701V72.66H40.8348V61.8701C40.8348 60.7844 40.8348 59.1726 41.2394 58.215C41.4805 57.7344 41.8516 57.331 42.3106 57.0508C42.7696 56.7707 43.298 56.625 43.8357 56.6303C45.0833 56.6303 46.0476 56.9944 46.3646 58.2825C46.5067 59.4682 46.5473 60.6639 46.486 61.8566V72.6465H52.3934V59.9279C52.3934 57.9048 52.6699 55.5513 51.3077 53.9396C50.6744 53.256 49.9018 52.7162 49.0421 52.3568C48.1824 51.9973 47.2555 51.8265 46.3241 51.8558" fill="white"/>
<path d="M65.3757 68.9443C64.8735 68.9492 64.379 68.8214 63.9421 68.574C63.5051 68.3265 63.1413 67.9681 62.8873 67.5349C62.3466 66.4833 62.1129 65.3008 62.2129 64.1226V61.1689C62.2129 59.0042 62.6108 55.9088 65.4633 55.9088C68.7205 55.9088 68.7205 60.1708 68.7205 62.4569C68.7205 64.743 68.7205 68.9241 65.3487 68.9241L65.3757 68.9443ZM67.2369 51.8559C66.2055 51.7944 65.1794 52.0444 64.2919 52.5736C63.4044 53.1027 62.6965 53.8865 62.2601 54.8231H62.0982V45.1055H56.2178V72.6601H59.4345C59.7987 71.5743 60.0347 70.4077 60.7832 69.5243C62.2736 71.979 63.6763 73.0579 66.6098 73.0579C72.7532 73.0579 74.8842 67.7979 74.8842 62.4569C74.8842 57.6352 73.1174 51.8559 67.2909 51.8559" fill="white"/>
<path d="M83.6236 56.0709H83.5427V52.254H78.0264V72.6603H83.9338V64.8983C83.9338 61.2837 84.4935 57.6287 88.9916 57.8714V51.937L87.9868 51.8561C85.4174 51.6538 84.2103 53.8792 83.6101 56.0709" fill="white"/>
<path d="M121.725 56.354C123.85 56.354 124.814 58.1613 124.814 60.009L130.438 59.6853C130.04 54.9041 126.264 51.856 121.523 51.856C115.096 51.856 111.32 56.3944 111.32 62.6458C111.32 68.6679 114.975 73.0445 121.159 73.0445C126.142 73.0445 129.959 70.0369 130.438 64.9521L124.814 64.6352C124.618 66.5234 123.573 68.1689 121.483 68.1689C118.111 68.1689 118.07 64.6352 118.07 62.14C118.07 59.5302 118.468 56.3203 121.725 56.3203" fill="white"/>
<path d="M142.246 69.1266C138.875 69.1266 138.915 64.143 138.915 61.8165C138.915 59.4899 139.117 55.7472 142.287 55.7472C142.896 55.6909 143.505 55.8431 144.016 56.1788C144.527 56.5145 144.909 57.0139 145.099 57.5949C145.602 59.2342 145.83 60.9456 145.773 62.6594C145.773 65.1074 145.612 69.1266 142.28 69.1266H142.246ZM142.28 51.8561C136.056 51.8561 132.603 56.4755 132.603 62.4166C132.603 68.3578 136.015 73.0581 142.28 73.0581C148.302 73.0581 152.119 68.4387 152.119 62.619C152.119 56.5969 148.666 51.8291 142.28 51.8291" fill="white"/>
<path d="M171.73 54.1084C171.135 53.3576 170.367 52.7613 169.493 52.3704C168.618 51.9795 167.662 51.8053 166.706 51.8628C163.732 51.8628 162.046 53.1036 160.845 55.7201H160.764V52.2539H155.181V72.6602H161.081V61.695C160.999 60.4527 161.231 59.2096 161.756 58.0804C161.993 57.624 162.349 57.2409 162.788 56.9723C163.226 56.7037 163.73 56.5599 164.244 56.5564C167.211 56.5564 166.942 59.6045 166.942 61.695V72.6602H172.842V60.0496C172.842 58.2018 172.842 55.6325 171.723 54.1017" fill="white"/>
<path d="M8.09463 37.9844C9.24592 37.9932 10.3853 37.751 11.4335 37.2746C12.4816 36.7983 13.4134 36.0993 14.1639 35.2262L12.3229 33.628C11.8063 34.2404 11.1572 34.7275 10.4247 35.0522C9.69215 35.377 8.8954 35.531 8.09463 35.5027C7.38008 35.5252 6.6685 35.401 6.0038 35.1378C5.3391 34.8746 4.73537 34.4781 4.22985 33.9725C3.72434 33.467 3.32776 32.8633 3.06459 32.1986C2.80142 31.5339 2.67724 30.8223 2.6997 30.1078C2.67848 29.3917 2.80321 28.6787 3.0663 28.0123C3.32939 27.346 3.72533 26.7401 4.23002 26.2316C4.73472 25.7231 5.33761 25.3227 6.002 25.0546C6.66639 24.7866 7.37838 24.6565 8.09463 24.6724C8.88711 24.6519 9.67418 24.8084 10.3986 25.1304C11.123 25.4523 11.7666 25.9317 12.2824 26.5336L14.1639 24.9219C13.42 24.0424 12.489 23.3401 11.439 22.8665C10.3889 22.3928 9.24632 22.1596 8.09463 22.184C7.03563 22.1613 5.98263 22.3487 4.99646 22.7353C4.01028 23.1218 3.11048 23.7 2.34903 24.4364C1.5844 25.1632 0.980528 26.0422 0.576327 27.0167C0.172127 27.9912 -0.0234372 29.0396 0.00223706 30.0943C-0.0224893 31.1478 0.173535 32.1949 0.577707 33.1682C0.981879 34.1414 1.58525 35.0194 2.34903 35.7455C3.89369 37.2208 5.959 38.0256 8.09463 37.9844" fill="white"/>
<path d="M24.5154 34.6729C23.8595 35.3042 22.9846 35.6569 22.0742 35.6569C21.1639 35.6569 20.2889 35.3042 19.633 34.6729C18.9976 34.0075 18.651 33.1179 18.6687 32.198C18.6562 31.745 18.7352 31.2942 18.9009 30.8725C19.0666 30.4507 19.3156 30.0667 19.633 29.7433C20.2805 29.0959 21.1586 28.7323 22.0742 28.7323C22.9898 28.7323 23.8679 29.0959 24.5154 29.7433C24.8406 30.0623 25.0965 30.4449 25.2671 30.8673C25.4376 31.2896 25.5192 31.7427 25.5067 32.198C25.5184 32.6562 25.4365 33.1121 25.2661 33.5376C25.0956 33.9631 24.8402 34.3494 24.5154 34.6729ZM28.1098 32.198C28.1258 31.4202 27.978 30.6478 27.676 29.931C27.3739 29.2141 26.9243 28.5688 26.3564 28.0372C25.7933 27.4853 25.1256 27.0513 24.3926 26.7607C23.6597 26.47 22.876 26.3285 22.0877 26.3445C21.2983 26.3284 20.5137 26.4698 19.7796 26.7604C19.0455 27.051 18.3767 27.4851 17.8122 28.0372C17.2572 28.5787 16.8161 29.2258 16.5149 29.9404C16.2137 30.6549 16.0586 31.4225 16.0586 32.198C16.0586 32.9734 16.2137 33.7411 16.5149 34.4556C16.8161 35.1702 17.2572 35.8173 17.8122 36.3588C18.377 36.91 19.046 37.343 19.7801 37.6325C20.5143 37.922 21.2988 38.0621 22.0877 38.0447C22.8756 38.062 23.6591 37.9217 24.3921 37.6322C25.1251 37.3427 25.7929 36.9098 26.3564 36.3588C26.924 35.8269 27.3733 35.1816 27.6754 34.4648C27.9774 33.748 28.1254 32.9757 28.1098 32.198" fill="white"/>
<path d="M33.6535 31.3619C33.6392 31.0216 33.6957 30.682 33.8194 30.3646C33.9431 30.0472 34.1314 29.759 34.3722 29.5181C34.6131 29.2773 34.9013 29.089 35.2187 28.9653C35.5361 28.8416 35.8757 28.7851 36.2161 28.7994C36.539 28.7788 36.8625 28.829 37.1639 28.9467C37.4653 29.0643 37.7373 29.2465 37.9609 29.4803C38.1845 29.7142 38.3543 29.9942 38.4583 30.3006C38.5622 30.607 38.5979 30.9324 38.5629 31.254V37.7212H41.1929V30.8831C41.1929 28.1452 39.6351 26.4593 37.0051 26.4593C36.3313 26.4112 35.6576 26.554 35.0612 26.8713C34.4648 27.1886 33.9699 27.6675 33.6332 28.2531V26.6751H31.0234V37.7212H33.6535V31.3619Z" fill="white"/>
<path d="M49.7774 31.2135C49.3391 31.0584 48.7254 30.8359 48.4287 30.7482C48.1214 30.6379 47.8218 30.5072 47.5318 30.3571C47.3841 30.289 47.2584 30.1809 47.1689 30.0451C47.0795 29.9092 47.03 29.7509 47.026 29.5883C47.026 28.9949 47.552 28.6037 48.3748 28.6037C48.7798 28.5769 49.1855 28.6466 49.5584 28.8072C49.9312 28.9679 50.2605 29.2148 50.5193 29.5276L51.9287 27.9698C51.5068 27.4323 50.9619 27.004 50.3399 26.7211C49.7179 26.4383 49.0369 26.3091 48.3545 26.3446C47.3505 26.321 46.3683 26.6396 45.5694 27.2483C45.2148 27.537 44.934 27.9058 44.7499 28.3244C44.5658 28.743 44.4838 29.1993 44.5106 29.6557C44.5106 31.2338 45.448 32.1307 47.2081 32.7646C47.579 32.9197 48.2331 33.1152 48.5568 33.2299C48.913 33.3341 49.2585 33.4718 49.5886 33.6413C49.7638 33.7163 49.9153 33.8375 50.0269 33.9919C50.1385 34.1463 50.2062 34.3281 50.2225 34.5179C50.2225 35.1923 49.6291 35.725 48.2534 35.725C47.6905 35.7526 47.1295 35.6408 46.6202 35.3996C46.1108 35.1585 45.6688 34.7954 45.3334 34.3426L43.6475 35.7655C44.3218 37.148 45.9943 38.0044 48.2062 38.0044C51.2071 38.0044 52.7447 36.5343 52.7447 34.4977C52.7447 32.9197 51.8208 31.9351 49.7842 31.2135" fill="white"/>
<path d="M72.517 28.3204V26.675H69.9072V37.7211H72.517V31.9148C72.4868 31.5136 72.5445 31.1107 72.6861 30.7341C72.8277 30.3576 73.0497 30.0165 73.3368 29.7346C73.6238 29.4527 73.9689 29.2368 74.3479 29.1021C74.727 28.9673 75.1309 28.9169 75.5314 28.9543C75.8981 28.9568 76.2638 28.9929 76.6239 29.0622V26.5199C76.3522 26.4737 76.0767 26.4534 75.8012 26.4592C75.1314 26.4119 74.4625 26.5632 73.8783 26.8943C73.2941 27.2254 72.8206 27.7215 72.517 28.3204" fill="white"/>
<path d="M84.3455 38.0251C85.1772 38.0444 86.0033 37.8846 86.7677 37.5564C87.5322 37.2283 88.2171 36.7396 88.7761 36.1234L87.1508 34.4307C86.7965 34.8205 86.3628 35.13 85.8789 35.3382C85.395 35.5464 84.8722 35.6486 84.3455 35.6378C83.895 35.6483 83.4472 35.5663 83.0296 35.3969C82.6121 35.2276 82.2337 34.9745 81.9177 34.6532C81.2969 33.9785 80.9523 33.0952 80.9523 32.1783C80.9523 31.2614 81.2969 30.3781 81.9177 29.7034C82.2324 29.3799 82.6104 29.1249 83.0281 28.9543C83.4459 28.7838 83.8944 28.7013 84.3455 28.7121C84.872 28.7026 85.3944 28.8053 85.8782 29.0135C86.3619 29.2216 86.7957 29.5304 87.1508 29.9192L88.7761 28.2333C88.2183 27.6151 87.5338 27.1246 86.7691 26.7953C86.0045 26.4659 85.1778 26.3054 84.3455 26.3248C83.5577 26.3091 82.7747 26.45 82.0419 26.7395C81.3091 27.0289 80.6411 27.461 80.0767 28.0107C79.5274 28.5583 79.0916 29.2089 78.7942 29.9252C78.4968 30.6415 78.3437 31.4095 78.3438 32.1851C78.3438 32.9606 78.4968 33.7286 78.7942 34.4449C79.0916 35.1612 79.5274 35.8118 80.0767 36.3594C80.6412 36.9076 81.3097 37.3374 82.0428 37.6235C82.7759 37.9096 83.5588 38.0461 84.3455 38.0251" fill="white"/>
<path d="M92.7814 22.2715C92.4733 22.2715 92.1721 22.3628 91.916 22.534C91.6598 22.7052 91.4601 22.9485 91.3422 23.2331C91.2243 23.5178 91.1935 23.831 91.2536 24.1332C91.3137 24.4354 91.462 24.7129 91.6799 24.9308C91.8978 25.1487 92.1753 25.297 92.4775 25.3571C92.7797 25.4172 93.0929 25.3864 93.3776 25.2685C93.6622 25.1506 93.9055 24.9509 94.0767 24.6947C94.2478 24.4386 94.3392 24.1374 94.3392 23.8293C94.3392 23.4161 94.1751 23.0199 93.8829 22.7277C93.5908 22.4356 93.1946 22.2715 92.7814 22.2715" fill="white"/>
<path d="M94.0963 26.6753H91.4663V37.7214H94.0963V26.6753Z" fill="white"/>
<path d="M105.487 34.673C104.831 35.3044 103.956 35.657 103.045 35.657C102.135 35.657 101.26 35.3044 100.604 34.673C99.9688 34.0076 99.6221 33.118 99.6399 32.1981C99.6274 31.7451 99.7064 31.2943 99.8721 30.8726C100.038 30.4508 100.287 30.0668 100.604 29.7434C101.253 29.0993 102.131 28.7379 103.045 28.7379C103.96 28.7379 104.837 29.0993 105.487 29.7434C105.811 30.0627 106.066 30.4456 106.235 30.868C106.405 31.2904 106.485 31.7432 106.471 32.1981C106.484 32.6559 106.403 33.1114 106.234 33.5369C106.064 33.9624 105.81 34.349 105.487 34.673V34.673ZM103.059 26.3446C102.269 26.3278 101.485 26.4688 100.75 26.7595C100.016 27.0501 99.3474 27.4846 98.7834 28.0373C98.2284 28.5788 97.7873 29.2259 97.4861 29.9405C97.1849 30.655 97.0298 31.4227 97.0298 32.1981C97.0298 32.9736 97.1849 33.7412 97.4861 34.4558C97.7873 35.1703 98.2284 35.8174 98.7834 36.3589C99.9425 37.4417 101.469 38.044 103.056 38.044C104.642 38.044 106.169 37.4417 107.328 36.3589C107.883 35.8174 108.324 35.1703 108.625 34.4558C108.926 33.7412 109.081 32.9736 109.081 32.1981C109.081 31.4227 108.926 30.655 108.625 29.9405C108.324 29.2259 107.883 28.5788 107.328 28.0373C106.764 27.4854 106.097 27.0514 105.364 26.7608C104.631 26.4701 103.847 26.3287 103.059 26.3446" fill="white"/>
<path d="M64.0199 22.4468H61.0392L60.1221 25.0566H62.2733L64.0199 22.4468Z" fill="white"/>
<path d="M58.4965 29.7434C59.1457 29.0993 60.0232 28.7379 60.9377 28.7379C61.8522 28.7379 62.7297 29.0993 63.3789 29.7434C63.7041 30.0624 63.96 30.445 64.1305 30.8674C64.3011 31.2897 64.3827 31.7427 64.3702 32.1981C64.3836 32.6554 64.3039 33.1106 64.1358 33.5361C63.9677 33.9616 63.7147 34.3484 63.3924 34.673C62.7365 35.3043 61.8615 35.657 60.9512 35.657C60.0408 35.657 59.1658 35.3043 58.51 34.673C57.8745 34.0076 57.5279 33.118 57.5456 32.1981C57.5332 31.7451 57.6121 31.2943 57.7778 30.8725C57.9435 30.4508 58.1925 30.0668 58.51 29.7434H58.4965ZM60.9647 38.0448C61.7526 38.0621 62.536 37.9218 63.269 37.6323C64.002 37.3428 64.6699 36.9099 65.2334 36.3589C65.7884 35.8174 66.2295 35.1703 66.5307 34.4557C66.8319 33.7412 66.987 32.9735 66.987 32.1981C66.987 31.4226 66.8319 30.655 66.5307 29.9404C66.2295 29.2259 65.7884 28.5788 65.2334 28.0373C64.0766 26.95 62.5488 26.3447 60.9613 26.3447C59.3738 26.3447 57.846 26.95 56.6892 28.0373C56.1341 28.5788 55.693 29.2259 55.3919 29.9404C55.0907 30.655 54.9355 31.4226 54.9355 32.1981C54.9355 32.9735 55.0907 33.7412 55.3919 34.4557C55.693 35.1703 56.1341 35.8174 56.6892 36.3589C57.2539 36.9101 57.923 37.3431 58.6571 37.6326C59.3912 37.9221 60.1757 38.0622 60.9647 38.0448" fill="white"/>
<path d="M3.97851 88.78C3.87479 88.8367 3.75945 88.869 3.64133 88.8744H2.39375V87.411H3.63459C3.7546 87.4122 3.87256 87.4423 3.97851 87.4987C4.16734 87.5729 4.28198 87.8089 4.28198 88.173C4.29456 88.2964 4.27289 88.4208 4.21935 88.5326C4.16581 88.6445 4.08248 88.7394 3.97851 88.807V88.78ZM3.71551 85.7723H0.552734V92.516H2.39375V90.5603H3.74249C4.35338 90.5558 4.9386 90.314 5.37445 89.8859C5.60938 89.6636 5.79318 89.3928 5.91311 89.0924C6.03305 88.792 6.08625 88.4691 6.06905 88.1461C6.08168 87.8007 6.01606 87.4569 5.8771 87.1404C5.73813 86.8239 5.52941 86.543 5.26655 86.3185C4.83332 85.948 4.28544 85.7384 3.71551 85.7251" fill="white"/>
<path d="M11.6126 90.4461C11.3976 90.6551 11.1346 90.8083 10.8467 90.8921C10.5588 90.9759 10.2547 90.9879 9.96105 90.927C9.66743 90.866 9.39323 90.734 9.16247 90.5425C8.9317 90.351 8.75141 90.1058 8.63738 89.8285C8.52335 89.5511 8.47906 89.25 8.50839 88.9516C8.53771 88.6531 8.63977 88.3664 8.80561 88.1166C8.97145 87.8667 9.19602 87.6614 9.45965 87.5184C9.72328 87.3755 10.0179 87.2994 10.3178 87.2968C10.5604 87.2928 10.801 87.34 11.0241 87.4353C11.2472 87.5306 11.4477 87.6718 11.6126 87.8498C11.7889 88.0159 11.929 88.2166 12.0242 88.4394C12.1193 88.6622 12.1675 88.9023 12.1656 89.1445C12.1668 89.3877 12.1184 89.6285 12.0233 89.8523C11.9282 90.0761 11.7885 90.2781 11.6126 90.4461V90.4461ZM10.3178 85.6446C9.83242 85.6331 9.34957 85.7178 8.89704 85.8938C8.44452 86.0697 8.03125 86.3334 7.68103 86.6696C7.34201 86.9852 7.07162 87.3672 6.88674 87.7918C6.70186 88.2165 6.60645 88.6746 6.60645 89.1378C6.60645 89.6009 6.70186 90.0591 6.88674 90.4838C7.07162 90.9084 7.34201 91.2904 7.68103 91.606C8.3907 92.2808 9.3388 92.6469 10.3178 92.6243C11.2968 92.6469 12.2449 92.2808 12.9546 91.606C13.3001 91.2946 13.5761 90.9138 13.7643 90.4885C13.9526 90.0632 14.0489 89.6029 14.047 89.1378C14.0519 88.6722 13.957 88.211 13.7685 87.7852C13.5801 87.3594 13.3025 86.979 12.9546 86.6696C12.6044 86.3334 12.1911 86.0697 11.7386 85.8938C11.286 85.7178 10.8032 85.6331 10.3178 85.6446" fill="white"/>
<path d="M17.7557 88.9216H16.7307V87.411H17.9108C18.0029 87.4108 18.094 87.4295 18.1786 87.4659C18.2631 87.5023 18.3394 87.5556 18.4026 87.6226C18.4657 87.6896 18.5145 87.7688 18.5459 87.8553C18.5773 87.9419 18.5907 88.0339 18.5852 88.1258C18.5956 88.2329 18.5823 88.341 18.546 88.4423C18.5097 88.5436 18.4514 88.6356 18.3753 88.7117C18.2992 88.7878 18.2072 88.8461 18.1059 88.8824C18.0046 88.9187 17.8965 88.9321 17.7894 88.9216H17.7557ZM20.4127 88.0719C20.4228 87.7656 20.3679 87.4606 20.2517 87.177C20.1355 86.8933 19.9605 86.6376 19.7383 86.4264C19.5107 86.2057 19.2414 86.0325 18.9462 85.9167C18.651 85.8009 18.3357 85.745 18.0187 85.7521H14.8896V92.4957H16.7307V90.3647H17.405L18.7538 92.4687H20.905L19.2258 89.9736C19.581 89.795 19.8776 89.5185 20.0808 89.1767C20.2839 88.835 20.385 88.4423 20.3722 88.0449" fill="white"/>
<path d="M26.4146 89.8999L25.6728 89.0704L24.459 90.1157L25.1806 90.9114C25.0337 90.9376 24.8846 90.9489 24.7355 90.9451C24.495 90.9488 24.2562 90.9049 24.0328 90.8157C23.8094 90.7266 23.6058 90.5941 23.434 90.4259C23.1779 90.169 23.0038 89.8419 22.9336 89.4861C22.8634 89.1302 22.9003 88.7615 23.0396 88.4266C23.1789 88.0917 23.4144 87.8057 23.7162 87.6046C24.0181 87.4035 24.3728 87.2964 24.7355 87.2968C25.2181 87.3054 25.6787 87.5005 26.0206 87.8412C26.3626 88.1819 26.5594 88.6418 26.5698 89.1244C26.5813 89.3916 26.5281 89.6576 26.4146 89.8999V89.8999ZM27.3655 86.6629C26.6443 86.0118 25.7071 85.6514 24.7355 85.6514C23.7638 85.6514 22.8267 86.0118 22.1054 86.6629C21.7686 86.9783 21.5 87.3595 21.3164 87.7829C21.1328 88.2063 21.0381 88.6629 21.0381 89.1244C21.0381 89.5858 21.1328 90.0424 21.3164 90.4658C21.5 90.8892 21.7686 91.2704 22.1054 91.5858C22.8183 92.2496 23.7616 92.61 24.7355 92.5906C25.306 92.5967 25.8707 92.4745 26.3877 92.2332L26.9811 92.9075L28.1882 91.8555L27.6353 91.2351C28.165 90.6685 28.457 89.9202 28.4512 89.1446C28.4569 88.6805 28.3629 88.2206 28.1756 87.796C27.9883 87.3714 27.712 86.9919 27.3655 86.6831" fill="white"/>
<path d="M33.4416 89.3939C33.4416 90.5134 33.0168 90.9247 32.248 90.9247C31.4792 90.9247 31.0611 90.5134 31.0611 89.3939V85.7456H29.2201V89.5895C29.1927 90.003 29.2558 90.4175 29.4048 90.8041C29.5539 91.1908 29.7854 91.5403 30.0833 91.8284C30.6983 92.3215 31.4631 92.5901 32.2514 92.5901C33.0397 92.5901 33.8044 92.3215 34.4195 91.8284C34.7173 91.5403 34.9488 91.1908 35.0979 90.8041C35.247 90.4175 35.31 90.003 35.2827 89.5895V85.7456H33.4416V89.3939Z" fill="white"/>
<path d="M38.1555 89.839H41.0755V88.3284H38.1555V87.4045H41.2913V85.7456H36.3145V92.496H41.3655V90.8708H38.1555V89.839Z" fill="white"/>
<path d="M48.6222 88.504C48.2338 88.3621 47.8375 88.2428 47.4353 88.1466C47.3194 88.1196 47.2064 88.0812 47.0981 88.0319C47.0132 88.0099 46.9389 87.9586 46.8883 87.887C46.8377 87.8154 46.814 87.7282 46.8216 87.6408C46.8216 87.4048 47.0846 87.2294 47.5567 87.2294C47.7874 87.218 48.0177 87.2602 48.2295 87.3526C48.4412 87.445 48.6287 87.5852 48.7773 87.7622L49.9911 86.7237C49.691 86.3566 49.3071 86.067 48.8717 85.8792C48.4363 85.6915 47.9622 85.611 47.4892 85.6447C46.8742 85.6216 46.2698 85.8096 45.7764 86.1774C45.5517 86.3527 45.373 86.5799 45.2555 86.8395C45.1381 87.0991 45.0854 87.3833 45.102 87.6678C45.1083 88.1197 45.2658 88.5566 45.5494 88.9086C45.833 89.2606 46.2262 89.5075 46.6665 89.6099C46.9835 89.7313 47.469 89.8729 47.732 89.9539L48.1232 90.0887C48.3862 90.1966 48.5008 90.318 48.5008 90.5069C48.5008 90.8238 48.2041 90.9924 47.6039 90.9924C47.2675 91.005 46.933 90.9361 46.6289 90.7917C46.3248 90.6473 46.0601 90.4316 45.8573 90.1629L44.5625 91.161C44.8471 91.5841 45.2285 91.9333 45.6752 92.1793C46.2523 92.4744 46.8955 92.6161 47.5432 92.5906C49.337 92.5906 50.2407 91.7612 50.2407 90.4529C50.2407 89.5358 49.7686 88.9221 48.602 88.504" fill="white"/>
<path d="M55.7297 90.4461C55.4728 90.7021 55.1457 90.8762 54.7899 90.9464C54.434 91.0166 54.0653 90.9797 53.7304 90.8404C53.3956 90.7011 53.1095 90.4656 52.9084 90.1638C52.7073 89.8619 52.6002 89.5072 52.6006 89.1445C52.597 88.9027 52.6438 88.6627 52.7378 88.4398C52.8318 88.2169 52.9711 88.016 53.1469 87.8498C53.3117 87.6718 53.5122 87.5306 53.7353 87.4353C53.9584 87.34 54.1991 87.2928 54.4416 87.2968C54.6851 87.2935 54.9265 87.341 55.1506 87.4362C55.3747 87.5314 55.5765 87.6723 55.7432 87.8498C55.9173 88.0172 56.0555 88.2184 56.1494 88.441C56.2434 88.6636 56.291 88.9029 56.2894 89.1445C56.2903 89.387 56.2424 89.6272 56.1486 89.8508C56.0548 90.0744 55.9169 90.2769 55.7432 90.4461H55.7297ZM54.4282 85.6446C53.9428 85.6331 53.4599 85.7178 53.0074 85.8938C52.5549 86.0697 52.1416 86.3334 51.7914 86.6696C51.4524 86.9852 51.182 87.3672 50.9971 87.7918C50.8122 88.2165 50.7168 88.6746 50.7168 89.1378C50.7168 89.6009 50.8122 90.0591 50.9971 90.4838C51.182 90.9084 51.4524 91.2904 51.7914 91.606C52.5134 92.2609 53.4534 92.6236 54.4282 92.6236C55.403 92.6236 56.3429 92.2609 57.0649 91.606C57.4105 91.2946 57.6864 90.9138 57.8747 90.4885C58.0629 90.0632 58.1593 89.6029 58.1574 89.1378C58.1623 88.6722 58.0673 88.211 57.8789 87.7852C57.6904 87.3594 57.4129 86.979 57.0649 86.6696C56.7147 86.3334 56.3014 86.0697 55.8489 85.8938C55.3964 85.7178 54.9135 85.6331 54.4282 85.6446" fill="white"/>
<path d="M63.4778 89.367L60.6455 85.7456H59V92.496H60.7668V88.7263L63.7408 92.496H65.2379V85.7456H63.4778V89.367Z" fill="white"/>
<path d="M70.7271 88.0924H68.1848V85.7456H66.3438V92.496H68.1848V89.7716H70.7271V92.496H72.5614V85.7456H70.7271V88.0924Z" fill="white"/>
<path d="M75.9536 90.1897L76.7695 88.0991L77.5855 90.1897H75.9536ZM75.9536 85.7456L73.2021 92.4893H75.1376L75.5017 91.6058H78.0913L78.442 92.4893H80.3909L77.6395 85.7456H75.9536Z" fill="white"/>
<path d="M83.844 88.9217H82.819V87.4111H83.9991C84.0912 87.4109 84.1823 87.4296 84.2669 87.466C84.3515 87.5024 84.4277 87.5557 84.4909 87.6227C84.5541 87.6897 84.6029 87.7689 84.6343 87.8554C84.6657 87.942 84.679 88.034 84.6735 88.1259C84.684 88.233 84.6706 88.3411 84.6343 88.4424C84.598 88.5437 84.5397 88.6357 84.4636 88.7118C84.3875 88.7879 84.2955 88.8462 84.1942 88.8825C84.0929 88.9188 83.9848 88.9322 83.8777 88.9217H83.844ZM86.501 88.072C86.512 87.7655 86.4575 87.4603 86.3412 87.1766C86.2249 86.8928 86.0495 86.6371 85.8267 86.4265C85.6007 86.2054 85.3327 86.0318 85.0385 85.916C84.7443 85.8002 84.4299 85.7445 84.1138 85.7522H81.0454V92.4958H82.8864V90.3648H83.5608L84.9095 92.4688H86.9933L85.3074 89.9737C85.6644 89.7967 85.9629 89.5207 86.1673 89.1788C86.3718 88.8368 86.4736 88.4432 86.4606 88.045" fill="white"/>
<path d="M94.9442 89.367L92.1186 85.7456H90.4731V92.496H92.2332V88.7263L95.2072 92.496H96.711V85.7456H94.9442V89.367Z" fill="white"/>
<path d="M100.103 90.1897L100.912 88.0991L101.728 90.1897H100.103ZM100.069 85.7456L97.3179 92.4893H99.26L99.6175 91.6058H102.214L102.558 92.4893H104.527L101.775 85.7456H100.069Z" fill="white"/>
<path d="M100.09 84.9701C100.343 84.9952 100.59 85.066 100.818 85.1792C101.094 85.3131 101.395 85.3866 101.701 85.395C102.531 85.395 103.016 84.8892 103.151 83.8912L102.2 83.7361C102.133 84.0125 101.991 84.1474 101.776 84.1474C101.521 84.1221 101.274 84.0489 101.047 83.9316C100.78 83.8014 100.488 83.7279 100.191 83.7158C99.812 83.7227 99.4506 83.8763 99.1828 84.1442C98.9149 84.4121 98.7613 84.7734 98.7544 85.1522L99.7053 85.3073C99.7069 85.2594 99.7183 85.2124 99.7388 85.1691C99.7593 85.1258 99.7885 85.0871 99.8245 85.0555C99.8605 85.024 99.9026 85.0001 99.9482 84.9854C99.9938 84.9707 100.042 84.9655 100.09 84.9701" fill="white"/>
<path d="M109.436 90.4461C109.221 90.6551 108.958 90.8083 108.67 90.8921C108.382 90.9759 108.078 90.9879 107.785 90.927C107.491 90.866 107.217 90.734 106.986 90.5425C106.755 90.351 106.575 90.1058 106.461 89.8285C106.347 89.5511 106.303 89.25 106.332 88.9516C106.361 88.6531 106.463 88.3664 106.629 88.1166C106.795 87.8667 107.02 87.6614 107.283 87.5184C107.547 87.3755 107.842 87.2994 108.142 87.2968C108.384 87.2928 108.625 87.34 108.848 87.4353C109.071 87.5306 109.271 87.6718 109.436 87.8498C109.613 88.0159 109.753 88.2166 109.848 88.4394C109.943 88.6622 109.991 88.9023 109.989 89.1445C109.991 89.3877 109.942 89.6285 109.847 89.8523C109.752 90.0761 109.612 90.2781 109.436 90.4461V90.4461ZM108.142 85.6446C107.656 85.6331 107.173 85.7178 106.721 85.8938C106.268 86.0697 105.855 86.3334 105.505 86.6696C105.166 86.9852 104.895 87.3672 104.71 87.7918C104.526 88.2165 104.43 88.6746 104.43 89.1378C104.43 89.6009 104.526 90.0591 104.71 90.4838C104.895 90.9084 105.166 91.2904 105.505 91.606C106.227 92.2609 107.167 92.6236 108.142 92.6236C109.116 92.6236 110.056 92.2609 110.778 91.606C111.124 91.2946 111.4 90.9138 111.588 90.4885C111.776 90.0632 111.873 89.6029 111.871 89.1378C111.876 88.6722 111.781 88.211 111.592 87.7852C111.404 87.3594 111.126 86.979 110.778 86.6696C110.428 86.3334 110.015 86.0697 109.562 85.8938C109.11 85.7178 108.627 85.6331 108.142 85.6446" fill="white"/>
<path d="M114.15 87.4113H115.971V92.496H117.812V87.4113H119.592V85.7456H114.15V87.4113Z" fill="white"/>
<path d="M122.033 89.839H124.96V88.3284H122.033V87.4045H125.176V85.7456H120.192V92.496H125.25V90.8708H122.033V89.839Z" fill="white"/>
<path d="M129.89 88.814L127.705 85.7456H126.194V92.496H127.894V88.9219L129.89 91.68L131.886 88.9219V92.496H133.592V85.7456H132.082L129.89 88.814Z" fill="white"/>
<path d="M139.446 85.7456H137.604V92.496H142.015V90.8303H139.446V85.7456Z" fill="white"/>
<path d="M144.638 85.7456H142.797V92.496H144.638V85.7456Z" fill="white"/>
<path d="M149.48 88.814L147.295 85.7456H145.785V92.496H147.484V88.9219L149.48 91.68L151.476 88.9219V92.496H153.182V85.7456H151.672L149.48 88.814Z" fill="white"/>
<path d="M156.17 85.7456H154.329V92.496H156.17V85.7456Z" fill="white"/>
<path d="M156.811 87.4113H158.625V92.496H160.466V87.4113H162.253V85.7456H156.811V87.4113Z" fill="white"/>
<path d="M164.694 89.839H167.62V88.3284H164.694V87.4045H167.829V85.7456H162.853V92.496H167.91V90.8708H164.694V89.839Z" fill="white"/>
<path d="M172.354 88.5038C171.966 88.3619 171.57 88.2425 171.168 88.1463C171.049 88.1193 170.934 88.0809 170.824 88.0317C170.74 88.0084 170.667 87.9565 170.618 87.885C170.569 87.8135 170.546 87.727 170.554 87.6406C170.554 87.4045 170.817 87.2292 171.289 87.2292C171.52 87.2183 171.75 87.2607 171.961 87.3531C172.173 87.4455 172.361 87.5854 172.509 87.762L173.723 86.7234C173.423 86.3568 173.039 86.0675 172.604 85.8798C172.168 85.6921 171.694 85.6114 171.221 85.6444C170.606 85.6214 170.002 85.8094 169.509 86.1772C169.278 86.3488 169.093 86.5744 168.969 86.8343C168.846 87.0941 168.788 87.3802 168.8 87.6675C168.806 88.1186 168.963 88.5547 169.245 88.9066C169.527 89.2585 169.919 89.506 170.358 89.6097C170.682 89.7311 171.168 89.8727 171.424 89.9536L171.822 90.0885C172.085 90.1964 172.199 90.3178 172.199 90.5066C172.199 90.8236 171.903 90.9922 171.302 90.9922C170.976 90.9943 170.653 90.9197 170.36 90.7745C170.067 90.6293 169.813 90.4174 169.616 90.156L168.315 91.154C168.603 91.574 168.984 91.9224 169.428 92.1723C170.007 92.4669 170.653 92.6085 171.302 92.5837C173.089 92.5837 174 91.7542 174 90.4459C174 89.5288 173.528 88.9151 172.361 88.497" fill="white"/>
</svg>
