<svg width="28" height="29" viewBox="0 0 28 29" fill="none" xmlns="http://www.w3.org/2000/svg">
<path d="M0.587446 0.651722C0.773188 0.464946 0.993842 0.31676 1.23677 0.215652C1.4797 0.114543 1.74013 0.0625 2.00314 0.0625C2.26615 0.0625 2.52658 0.114543 2.76951 0.215652C3.01243 0.31676 3.23309 0.464946 3.41883 0.651722L14.0005 11.2694L24.5822 0.651722C24.7681 0.465248 24.9888 0.317329 25.2317 0.216411C25.4746 0.115492 25.735 0.0635501 25.9979 0.0635501C26.2608 0.0635501 26.5212 0.115492 26.7641 0.216411C27.007 0.317329 27.2277 0.465248 27.4136 0.651722C27.5995 0.838195 27.747 1.05957 27.8476 1.30321C27.9482 1.54685 28 1.80798 28 2.07169C28 2.33541 27.9482 2.59654 27.8476 2.84018C27.747 3.08381 27.5995 3.30519 27.4136 3.49166L16.8279 14.1053L27.4136 24.719C27.5995 24.9055 27.747 25.1269 27.8476 25.3705C27.9482 25.6141 28 25.8753 28 26.139C28 26.4027 27.9482 26.6638 27.8476 26.9075C27.747 27.1511 27.5995 27.3725 27.4136 27.559C27.2277 27.7454 27.007 27.8934 26.7641 27.9943C26.5212 28.0952 26.2608 28.1471 25.9979 28.1471C25.735 28.1471 25.4746 28.0952 25.2317 27.9943C24.9888 27.8934 24.7681 27.7454 24.5822 27.559L14.0005 16.9413L3.41883 27.559C3.23292 27.7454 3.01221 27.8934 2.76931 27.9943C2.5264 28.0952 2.26606 28.1471 2.00314 28.1471C1.74022 28.1471 1.47988 28.0952 1.23697 27.9943C0.994066 27.8934 0.773357 27.7454 0.587446 27.559C0.401535 27.3725 0.254062 27.1511 0.153447 26.9075C0.0528327 26.6638 0.00104691 26.4027 0.00104691 26.139C0.00104691 25.8753 0.0528327 25.6141 0.153447 25.3705C0.254062 25.1269 0.401535 24.9055 0.587446 24.719L11.1731 14.1053L0.587446 3.49166C0.401234 3.30536 0.253494 3.08404 0.15269 2.84038C0.0518862 2.59671 0 2.3355 0 2.07169C0 1.80789 0.0518862 1.54667 0.15269 1.30301C0.253494 1.05935 0.401234 0.838025 0.587446 0.651722Z" fill="#152536"/>
</svg>
