<svg width="23" height="18" viewBox="0 0 23 18" fill="none" xmlns="http://www.w3.org/2000/svg">
<path d="M3.77344 6.49207C3.77344 6.30459 3.84922 6.12478 3.98411 5.99221C4.119 5.85963 4.30194 5.78516 4.49271 5.78516H6.4635C6.65426 5.78516 6.83721 5.85963 6.9721 5.99221C7.10699 6.12478 7.18277 6.30459 7.18277 6.49207C7.18277 6.67956 7.10699 6.85937 6.9721 6.99194C6.83721 7.12451 6.65426 7.19899 6.4635 7.19899H4.49271C4.30194 7.19899 4.119 7.12451 3.98411 6.99194C3.84922 6.85937 3.77344 6.67956 3.77344 6.49207Z" fill="#CE181E"/>
<path d="M3.77344 8.95301C3.77344 8.76553 3.84922 8.58572 3.98411 8.45315C4.119 8.32057 4.30194 8.24609 4.49271 8.24609H6.4635C6.65426 8.24609 6.83721 8.32057 6.9721 8.45315C7.10699 8.58572 7.18277 8.76553 7.18277 8.95301C7.17909 9.13936 7.10212 9.31708 6.96803 9.44887C6.83393 9.58067 6.65311 9.65631 6.4635 9.65993H4.49271C4.30194 9.65993 4.119 9.58545 3.98411 9.45288C3.84922 9.3203 3.77344 9.1405 3.77344 8.95301Z" fill="#CE181E"/>
<path d="M3.77344 11.3983C3.77344 11.2108 3.84922 11.031 3.98411 10.8985C4.119 10.7659 4.30194 10.6914 4.49271 10.6914H6.4635C6.65311 10.695 6.83393 10.7707 6.96803 10.9025C7.10212 11.0343 7.17909 11.212 7.18277 11.3983C7.18277 11.5858 7.10699 11.7656 6.9721 11.8982C6.83721 12.0308 6.65426 12.1052 6.4635 12.1052H4.49271C4.30194 12.1052 4.119 12.0308 3.98411 11.8982C3.84922 11.7656 3.77344 11.5858 3.77344 11.3983Z" fill="#CE181E"/>
<path d="M0.0479754 5.44497C-0.0149173 5.28431 -0.0160085 5.10663 0.0449066 4.94524C0.105822 4.78386 0.224557 4.64986 0.378839 4.56839L9.38408 0.072394C9.46905 0.031376 9.56144 0.00724963 9.65592 0.0013989C9.75041 -0.00445182 9.84514 0.00808811 9.93468 0.0382994C10.0242 0.0685106 10.1068 0.115799 10.1777 0.177452C10.2486 0.239105 10.3065 0.31391 10.3479 0.397576C10.4306 0.563451 10.4453 0.754185 10.3891 0.930439C10.3329 1.10669 10.21 1.25503 10.0458 1.34485L1.01179 5.75601C0.928076 5.79947 0.836306 5.82591 0.741963 5.83375C0.64762 5.84159 0.552638 5.83066 0.462683 5.80163C0.372729 5.7726 0.289647 5.72606 0.218396 5.66478C0.147145 5.6035 0.0891853 5.52874 0.0479754 5.44497V5.44497Z" fill="#CE181E"/>
<path fill-rule="evenodd" clip-rule="evenodd" d="M1.41455 15.8778V5.31641H2.85309V15.8778C2.85309 16.0652 2.92887 16.245 3.06376 16.3776C3.19865 16.5102 3.38159 16.5847 3.57236 16.5847H19.3963C19.587 16.5847 19.77 16.5102 19.9049 16.3776C20.0397 16.245 20.1155 16.0652 20.1155 15.8778V8.01683L21.5541 8.80858V15.8778C21.5541 16.4402 21.3267 16.9796 20.9221 17.3774C20.5174 17.7751 19.9685 17.9985 19.3963 17.9985H3.57236C3.00007 17.9985 2.45122 17.7751 2.04656 17.3774C1.64189 16.9796 1.41455 16.4402 1.41455 15.8778Z" fill="#CE181E"/>
<path d="M22.5177 7.84759L9.25439 3.05469V4.56749L22.0718 9.21901C22.1596 9.24778 22.2523 9.25928 22.3447 9.25282C22.4371 9.24637 22.5272 9.2221 22.6101 9.18141C22.6929 9.14071 22.7667 9.08437 22.8274 9.01562C22.8881 8.94687 22.9344 8.86705 22.9636 8.78072C22.9929 8.69438 23.0046 8.60322 22.9981 8.51245C22.9915 8.42167 22.9668 8.33305 22.9254 8.25166C22.884 8.17026 22.8267 8.09767 22.7567 8.03805C22.6868 7.97842 22.6055 7.93292 22.5177 7.90414V7.84759Z" fill="#CE181E"/>
<path fill-rule="evenodd" clip-rule="evenodd" d="M16.6774 13.0515V16.7274H12.3618V13.0515C12.3709 12.9177 12.4069 12.787 12.4675 12.6668C12.5282 12.5467 12.6124 12.4396 12.7154 12.3516C12.8183 12.2636 12.9379 12.1964 13.0673 12.1539C13.1967 12.1115 13.3334 12.0946 13.4695 12.1042H15.6561C15.9163 12.1071 16.1658 12.2062 16.355 12.3817C16.5443 12.5572 16.6594 12.7963 16.6774 13.0515Z" fill="#CE181E"/>
<path fill-rule="evenodd" clip-rule="evenodd" d="M8.10375 2.2923V16.6993C8.10375 17.0952 7.77288 16.5438 7.38448 16.5438H3.57236C3.38884 16.5441 3.21214 16.4755 3.07843 16.3519C2.94471 16.2284 2.8641 16.0593 2.85309 15.8793V4.86548L1.41455 5.5724V15.8793C1.41455 16.4417 1.64189 16.9811 2.04656 17.3789C2.45122 17.7766 3.00007 18 3.57236 18H7.38448C8.57846 18 9.54228 17.8445 9.54228 16.671V1.74091C9.54921 1.6751 9.54921 1.60877 9.54228 1.54297L8.10375 2.2923Z" fill="#CE181E"/>
</svg>
