<svg width="34" height="29" viewBox="0 0 34 29" fill="none" xmlns="http://www.w3.org/2000/svg">
<path fill-rule="evenodd" clip-rule="evenodd" d="M0 26.6333C0 26.2178 0.162825 25.8193 0.452653 25.5255C0.742482 25.2317 1.13557 25.0667 1.54545 25.0667H32.4545C32.8644 25.0667 33.2575 25.2317 33.5473 25.5255C33.8372 25.8193 34 26.2178 34 26.6333C34 27.0488 33.8372 27.4473 33.5473 27.7411C33.2575 28.0349 32.8644 28.2 32.4545 28.2H1.54545C1.13557 28.2 0.742482 28.0349 0.452653 27.7411C0.162825 27.4473 0 27.0488 0 26.6333ZM0 14.1C0 13.6845 0.162825 13.286 0.452653 12.9922C0.742482 12.6984 1.13557 12.5333 1.54545 12.5333H32.4545C32.8644 12.5333 33.2575 12.6984 33.5473 12.9922C33.8372 13.286 34 13.6845 34 14.1C34 14.5155 33.8372 14.914 33.5473 15.2078C33.2575 15.5016 32.8644 15.6667 32.4545 15.6667H1.54545C1.13557 15.6667 0.742482 15.5016 0.452653 15.2078C0.162825 14.914 0 14.5155 0 14.1ZM0 1.56667C0 1.15116 0.162825 0.752673 0.452653 0.458866C0.742482 0.165059 1.13557 0 1.54545 0H32.4545C32.8644 0 33.2575 0.165059 33.5473 0.458866C33.8372 0.752673 34 1.15116 34 1.56667C34 1.98217 33.8372 2.38066 33.5473 2.67447C33.2575 2.96827 32.8644 3.13333 32.4545 3.13333H1.54545C1.13557 3.13333 0.742482 2.96827 0.452653 2.67447C0.162825 2.38066 0 1.98217 0 1.56667Z" fill="#152536"/>
</svg>
