<svg width="23" height="16" viewBox="0 0 23 16" fill="none" xmlns="http://www.w3.org/2000/svg">
<path d="M14.592 6.98405C14.6652 6.93626 14.728 6.87405 14.7766 6.8012C14.8251 6.72835 14.8585 6.64636 14.8746 6.5602C14.8907 6.47404 14.8892 6.3855 14.8702 6.29993C14.8512 6.21436 14.8152 6.13355 14.7642 6.06239C14.7227 5.98693 14.6636 5.92268 14.592 5.87517L11.1055 3.65742C10.9773 3.56693 10.8245 3.51837 10.6679 3.51837C10.5112 3.51837 10.3584 3.56693 10.2302 3.65742L6.61459 6.82564C6.46658 6.92526 6.36388 7.07965 6.32893 7.25505C6.29398 7.43045 6.32963 7.6126 6.42808 7.7617C6.47542 7.8336 6.53941 7.8929 6.61459 7.93451L10.0724 10.1523C10.2005 10.2428 10.3534 10.2913 10.51 10.2913C10.6667 10.2913 10.8195 10.2428 10.9476 10.1523L14.592 6.98405ZM15.4098 4.7663C15.8473 5.06432 16.1489 5.5245 16.2485 6.04569C16.348 6.56687 16.2373 7.10641 15.9407 7.54569C15.8081 7.78256 15.6272 7.98867 15.4098 8.15053L11.7941 11.3187C11.4084 11.5934 10.9471 11.741 10.4742 11.741C10.0012 11.741 9.53991 11.5934 9.15416 11.3187L5.68199 9.10099C5.24452 8.80297 4.94284 8.34279 4.84329 7.8216C4.74374 7.30042 4.85448 6.76088 5.15113 6.3216C5.29443 6.11315 5.47431 5.9326 5.68199 5.78877L9.31198 2.60615C9.69789 2.33861 10.1558 2.19531 10.6248 2.19531C11.0938 2.19531 11.5517 2.33861 11.9376 2.60615L15.4098 4.7663Z" fill="#CE181E"/>
<path d="M13.2292 0.577453C13.3089 0.528141 13.3977 0.495332 13.4903 0.480953C13.5829 0.466575 13.6775 0.470917 13.7684 0.493725C13.8592 0.516533 13.9447 0.557347 14.0196 0.613767C14.0946 0.670188 14.1576 0.741077 14.2048 0.82227L19.3987 10.7734C19.4977 10.9376 19.5276 11.1345 19.4818 11.3209C19.4361 11.5072 19.3184 11.6677 19.1548 11.767C18.9912 11.8663 18.795 11.8963 18.6093 11.8504C18.4237 11.8045 18.2638 11.6864 18.1648 11.5222L12.9853 1.55672C12.9361 1.47665 12.9035 1.38752 12.8891 1.29459C12.8748 1.20166 12.8791 1.10678 12.9018 1.01555C12.9246 0.924321 12.9652 0.838567 13.0214 0.763333C13.0777 0.688099 13.1483 0.624901 13.2292 0.577453Z" fill="#CE181E"/>
<path d="M22.9998 11.6797C22.9998 12.5341 22.7474 13.3694 22.2744 14.0799C21.8014 14.7904 21.1292 15.3441 20.3427 15.6711C19.5561 15.9981 18.6907 16.0837 17.8557 15.917C17.0208 15.7503 16.2538 15.3388 15.6518 14.7346C15.0499 14.1304 14.6399 13.3606 14.4738 12.5225C14.3077 11.6845 14.393 10.8158 14.7188 10.0264C15.0445 9.23693 15.5963 8.5622 16.3041 8.08748C17.0119 7.61276 17.8441 7.35938 18.6955 7.35938C19.837 7.35938 20.9319 7.81455 21.7391 8.62476C22.5463 9.43497 22.9998 10.5339 22.9998 11.6797ZM18.6955 14.5599C19.263 14.5599 19.8178 14.3909 20.2897 14.0745C20.7616 13.758 21.1294 13.3082 21.3466 12.7819C21.5638 12.2556 21.6206 11.6765 21.5099 11.1178C21.3992 10.5591 21.1259 10.0459 20.7245 9.64306C20.3232 9.24026 19.8119 8.96595 19.2553 8.85482C18.6986 8.74368 18.1217 8.80072 17.5973 9.01872C17.073 9.23671 16.6248 9.60587 16.3095 10.0795C15.9942 10.5532 15.8259 11.11 15.8259 11.6797C15.8259 12.4435 16.1282 13.1761 16.6664 13.7163C17.2045 14.2564 17.9344 14.5599 18.6955 14.5599Z" fill="#CE181E"/>
<path d="M8.60868 11.6797C8.60868 12.5341 8.35625 13.3694 7.88328 14.0799C7.41031 14.7904 6.73806 15.3441 5.95155 15.6711C5.16503 15.9981 4.29957 16.0837 3.46461 15.917C2.62965 15.7503 1.8627 15.3388 1.26073 14.7346C0.658756 14.1304 0.248793 13.3606 0.0827094 12.5225C-0.0833746 11.6845 0.00186298 10.8158 0.327648 10.0264C0.653434 9.23693 1.20514 8.5622 1.91299 8.08748C2.62083 7.61276 3.45302 7.35938 4.30434 7.35938C5.44592 7.35938 6.54075 7.81455 7.34797 8.62476C8.15519 9.43497 8.60868 10.5339 8.60868 11.6797ZM4.30434 14.5599C4.87189 14.5599 5.42669 14.3909 5.89859 14.0745C6.37049 13.758 6.73828 13.3082 6.95547 12.7819C7.17267 12.2556 7.2295 11.6765 7.11877 11.1178C7.00805 10.5591 6.73474 10.0459 6.33343 9.64306C5.93211 9.24026 5.42081 8.96595 4.86417 8.85482C4.30753 8.74368 3.73055 8.80072 3.20621 9.01872C2.68186 9.23671 2.23371 9.60587 1.9184 10.0795C1.60308 10.5532 1.43478 11.11 1.43478 11.6797C1.43478 12.4435 1.7371 13.1761 2.27525 13.7163C2.8134 14.2564 3.54328 14.5599 4.30434 14.5599Z" fill="#CE181E"/>
<path d="M9.54111 0.705649C9.54111 0.518499 9.61517 0.339014 9.74702 0.20668C9.87886 0.0743448 10.0577 0 10.2441 0H13.9746C14.1648 0 14.3473 0.0758621 14.4818 0.210898C14.6164 0.345933 14.692 0.529081 14.692 0.72005C14.692 0.911018 14.6164 1.09417 14.4818 1.2292C14.3473 1.36424 14.1648 1.4401 13.9746 1.4401H10.2441C10.1494 1.44018 10.0555 1.42102 9.96831 1.38377C9.88109 1.34652 9.80227 1.29195 9.7366 1.22334C9.67092 1.15474 9.61974 1.07351 9.58615 0.984542C9.55255 0.895576 9.53724 0.800711 9.54111 0.705649Z" fill="#CE181E"/>
<path d="M2.88389 5.1119C2.88389 4.92475 2.95794 4.74526 3.08979 4.61293C3.22164 4.48059 3.40046 4.40625 3.58692 4.40625H7.34606C7.53632 4.40625 7.71878 4.48211 7.85332 4.61715C7.98785 4.75218 8.06345 4.93533 8.06345 5.1263C8.06345 5.31727 7.98785 5.50042 7.85332 5.63545C7.71878 5.77049 7.53632 5.84635 7.34606 5.84635H3.58692C3.49213 5.84643 3.39831 5.82727 3.31109 5.79002C3.22386 5.75277 3.14504 5.6982 3.07937 5.62959C3.0137 5.56099 2.96252 5.47976 2.92892 5.39079C2.89533 5.30183 2.88002 5.20696 2.88389 5.1119Z" fill="#CE181E"/>
<path d="M3.83075 12.5582C3.69328 12.4382 3.60641 12.2703 3.58776 12.0885C3.56911 11.9066 3.62008 11.7244 3.73032 11.5789L6.11207 8.6987C6.16585 8.61484 6.23672 8.54338 6.32003 8.48903C6.40333 8.43467 6.49717 8.39865 6.59535 8.38335C6.69354 8.36805 6.79384 8.37382 6.88964 8.40026C6.98544 8.42671 7.07457 8.47323 7.15115 8.53678C7.22773 8.60032 7.29002 8.67943 7.33391 8.7689C7.37781 8.85837 7.40232 8.95616 7.40581 9.05582C7.40931 9.15549 7.39173 9.25477 7.35421 9.34711C7.31669 9.43946 7.26009 9.52277 7.18815 9.59156L4.82075 12.4718C4.70083 12.6149 4.5292 12.7044 4.34357 12.7206C4.15794 12.7368 3.97348 12.6784 3.83075 12.5582Z" fill="#CE181E"/>
</svg>
