<svg width="23" height="17" viewBox="0 0 23 17" fill="none" xmlns="http://www.w3.org/2000/svg">
<path d="M0 2.125C0 1.56141 0.226477 1.02091 0.629593 0.622398C1.03271 0.223883 1.57944 0 2.14953 0H15.0467C15.6168 0 16.1636 0.223883 16.5667 0.622398C16.9698 1.02091 17.1963 1.56141 17.1963 2.125V4.25H18.6293C18.952 4.25249 19.27 4.32629 19.5601 4.46601C19.8502 4.60573 20.1051 4.80783 20.306 5.0575L22.5271 7.67833C22.8316 8.05165 22.9983 8.51631 23 8.99583V12.0417C23 12.6053 22.7735 13.1458 22.3704 13.5443C21.9673 13.9428 21.4206 14.1667 20.8505 14.1667H20.134C20.134 14.9181 19.832 15.6388 19.2945 16.1701C18.757 16.7015 18.0281 17 17.2679 17C16.5078 17 15.7788 16.7015 15.2413 16.1701C14.7038 15.6388 14.4019 14.9181 14.4019 14.1667H7.23677C7.23677 14.9181 6.93481 15.6388 6.39733 16.1701C5.85984 16.7015 5.13085 17 4.37072 17C3.6106 17 2.88161 16.7015 2.34412 16.1701C1.80663 15.6388 1.50468 14.9181 1.50468 14.1667V14.0392C1.08425 13.8922 0.720451 13.6197 0.463695 13.2592C0.206938 12.8988 0.0699365 12.4683 0.0716555 12.0275L0 2.125ZM1.84861 12.6933C2.24584 12.0528 2.88414 11.5945 3.62316 11.4191C4.36218 11.2438 5.1414 11.3658 5.78942 11.7583C6.20007 11.999 6.54069 12.3406 6.77819 12.75H14.7172C14.9683 12.3207 15.329 11.9641 15.7633 11.7158V2.125C15.7596 1.93827 15.6829 1.76021 15.5493 1.62815C15.4157 1.49609 15.2356 1.42029 15.0467 1.41667H2.14953C1.9595 1.41667 1.77727 1.49129 1.64289 1.62413C1.50852 1.75697 1.43302 1.93714 1.43302 2.125V12.0417C1.4313 12.1783 1.46962 12.3126 1.54336 12.4282C1.6171 12.5439 1.72312 12.6359 1.84861 12.6933ZM17.1963 11.2767C17.6989 11.2772 18.1925 11.4083 18.6276 11.657C19.0628 11.9056 19.4241 12.263 19.6754 12.6933H20.7788C20.9689 12.6933 21.1511 12.6187 21.2855 12.4859C21.4198 12.353 21.4953 12.1729 21.4953 11.985V8.99583C21.4933 8.83625 21.4379 8.68183 21.3377 8.55667L19.2168 5.93583C19.1494 5.85311 19.0644 5.7861 18.9678 5.73958C18.8712 5.69305 18.7654 5.66816 18.658 5.66667H17.2249L17.1963 11.2767ZM4.29907 12.6933C4.01564 12.6933 3.73858 12.7764 3.50292 12.9321C3.26726 13.0877 3.0836 13.309 2.97514 13.5679C2.86667 13.8267 2.83828 14.1116 2.89358 14.3864C2.94887 14.6612 3.08536 14.9136 3.28577 15.1117C3.48618 15.3099 3.74153 15.4448 4.01951 15.4994C4.29749 15.5541 4.58562 15.5261 4.84747 15.4188C5.10932 15.3116 5.33312 15.13 5.49058 14.8971C5.64804 14.6641 5.73209 14.3902 5.73209 14.11C5.71728 13.7442 5.55978 13.3982 5.29262 13.1447C5.02547 12.8912 4.6694 12.7497 4.29907 12.75V12.6933ZM17.1963 12.6933C16.9128 12.6933 16.6358 12.7764 16.4001 12.9321C16.1645 13.0877 15.9808 13.309 15.8723 13.5679C15.7639 13.8267 15.7355 14.1116 15.7908 14.3864C15.8461 14.6612 15.9826 14.9136 16.183 15.1117C16.3834 15.3099 16.6387 15.4448 16.9167 15.4994C17.1947 15.5541 17.4828 15.5261 17.7447 15.4188C18.0065 15.3116 18.2303 15.13 18.3878 14.8971C18.5452 14.6641 18.6293 14.3902 18.6293 14.11C18.6145 13.7442 18.457 13.3982 18.1898 13.1447C17.9227 12.8912 17.5666 12.7497 17.1963 12.75V12.6933Z" fill="#CE181E"/>
<path d="M3.8335 4.50012C3.8335 4.31153 3.90928 4.13068 4.04416 3.99733C4.17905 3.86398 4.362 3.78906 4.55276 3.78906H12.2736C12.4643 3.78906 12.6473 3.86398 12.7822 3.99733C12.917 4.13068 12.9928 4.31153 12.9928 4.50012C12.9928 4.6887 12.917 4.86956 12.7822 5.00291C12.6473 5.13626 12.4643 5.21118 12.2736 5.21118H4.55276C4.362 5.21118 4.17905 5.13626 4.04416 5.00291C3.90928 4.86956 3.8335 4.6887 3.8335 4.50012Z" fill="#CE181E"/>
<path d="M3.8335 6.97668C3.8335 6.7881 3.90928 6.60724 4.04416 6.47389C4.17905 6.34054 4.362 6.26562 4.55276 6.26562H12.2736C12.4643 6.26562 12.6473 6.34054 12.7822 6.47389C12.917 6.60724 12.9928 6.7881 12.9928 6.97668C12.9891 7.16413 12.9122 7.34288 12.7781 7.47545C12.644 7.60802 12.4632 7.6841 12.2736 7.68774H4.55276C4.362 7.68774 4.17905 7.61282 4.04416 7.47948C3.90928 7.34613 3.8335 7.16527 3.8335 6.97668Z" fill="#CE181E"/>
</svg>
