<svg width="23" height="18" viewBox="0 0 23 18" fill="none" xmlns="http://www.w3.org/2000/svg">
<path d="M8.99262 1.22465L12.8602 5.76503H8.70179L6.9252 1.22465H8.99262ZM8.99262 0.0135311H6.94269C6.77546 0.011753 6.6101 0.0486854 6.45965 0.121416C6.3092 0.194147 6.17778 0.300686 6.07575 0.432634C5.97372 0.564582 5.90389 0.718328 5.87173 0.881751C5.83956 1.04517 5.84594 1.2138 5.89041 1.37434L7.54401 6.82646H15.4294L9.83996 0.380949C9.73217 0.263399 9.60141 0.16898 9.45572 0.103465C9.31003 0.0379505 9.15245 0.002718 8.99262 -7.70922e-05V0.0135311Z" fill="#CE181E"/>
<path d="M1.42128 3.16601L4.30481 6.44555C4.41434 6.61314 4.56428 6.75075 4.74092 6.84583C4.91757 6.94091 5.11528 6.99043 5.31608 6.98988H19.6792C20.2264 6.98988 20.7514 7.20636 21.1383 7.59172C21.5253 7.97707 21.7427 8.49972 21.7427 9.04469V9.20799C21.7392 9.75186 21.5206 10.2724 21.1344 10.657C20.7482 11.0416 20.2253 11.2592 19.6792 11.2628H15.8253C15.4843 11.2636 15.1475 11.3382 14.8384 11.4816C14.5292 11.6249 14.2551 11.8335 14.0351 12.0929L8.99226 16.8705H7.1337L8.50031 13.3176C8.56758 13.0843 8.5799 12.8386 8.5363 12.5998C8.4927 12.3609 8.39434 12.1353 8.2489 11.9404C8.10346 11.7456 7.91485 11.5867 7.69772 11.4763C7.4806 11.3659 7.24082 11.3068 6.99703 11.3036H1.10695V3.16601H1.35293H1.42128ZM0.324219 2.27773C0.116625 2.48444 0 2.76481 0 3.05714V11.3309C0 11.6232 0.116625 11.9036 0.324219 12.1103C0.531813 12.317 0.813367 12.4331 1.10695 12.4331H7.10638C7.16174 12.4353 7.21585 12.4499 7.26478 12.4757C7.31371 12.5016 7.35616 12.5381 7.38898 12.5826C7.4218 12.627 7.44415 12.6783 7.45437 12.7325C7.46459 12.7867 7.46244 12.8425 7.44803 12.8958L5.97207 16.6392C5.93049 16.7996 5.92619 16.9672 5.95952 17.1295C5.99285 17.2918 6.06294 17.4443 6.16442 17.5755C6.26589 17.7068 6.39608 17.8132 6.54511 17.8868C6.69413 17.9603 6.85802 17.999 7.02434 18H9.07426C9.23555 17.998 9.39458 17.9618 9.54069 17.8937C9.6868 17.8257 9.81666 17.7274 9.92159 17.6054L14.978 12.8005C15.0848 12.6683 15.2201 12.5617 15.3738 12.4887C15.5276 12.4156 15.6959 12.378 15.8663 12.3787H19.7201C20.59 12.3787 21.4243 12.0346 22.0394 11.4221C22.6544 10.8096 23 9.97892 23 9.11274V9.00387C23 8.13769 22.6544 7.30699 22.0394 6.6945C21.4243 6.08202 20.59 5.73793 19.7201 5.73793H5.31608C5.31608 5.73793 2.85684 2.8447 2.47356 2.40395C2.26788 2.10172 1.91092 1.91354 1.54427 1.91406C1.06018 1.91476 0.657838 1.94553 0.324219 2.27773Z" fill="#CE181E"/>
<path d="M4.76138 14.8895C4.75956 14.8025 4.77519 14.7161 4.80734 14.6353C4.83949 14.5545 4.88752 14.4809 4.94862 14.4188C5.00971 14.3567 5.08264 14.3073 5.16313 14.2736C5.24362 14.24 5.33005 14.2226 5.41736 14.2227L7.14193 14.2227C7.31953 14.2227 7.01635 14.2929 7.14193 14.418C7.26752 14.543 7.33807 14.7126 7.33807 14.8895C7.33808 14.9764 7.32068 15.0625 7.28686 15.1426C7.25304 15.2227 7.2035 15.2954 7.14113 15.3562C7.07876 15.417 7.00483 15.4649 6.92366 15.4969C6.84249 15.5289 6.75571 15.5445 6.66843 15.5426H5.41736C5.3307 15.5445 5.24457 15.5289 5.16414 15.4967C5.08371 15.4645 5.01066 15.4165 4.94937 15.3555C4.88808 15.2944 4.83982 15.2217 4.80752 15.1416C4.77521 15.0615 4.75951 14.9757 4.76138 14.8895Z" fill="#CE181E"/>
<path d="M4.76138 3.51055C4.75956 3.42363 4.77519 3.33723 4.80734 3.2564C4.83949 3.17557 4.88752 3.10195 4.94862 3.03985C5.00971 2.97775 5.08264 2.92841 5.16313 2.89474C5.24362 2.86107 5.33005 2.84373 5.41736 2.84375L7.14193 2.84375C7.31953 2.84375 7.01635 2.914 7.14193 3.03905C7.26752 3.1641 7.33807 3.3337 7.33807 3.51055C7.33808 3.59748 7.32068 3.68355 7.28686 3.76369C7.25304 3.84384 7.2035 3.91646 7.14113 3.9773C7.07876 4.03813 7.00483 4.08596 6.92366 4.11797C6.84249 4.14999 6.75571 4.16554 6.66843 4.16373H5.41736C5.3307 4.16559 5.24457 4.14996 5.16414 4.11779C5.08371 4.08563 5.01066 4.03758 4.94937 3.97655C4.88808 3.91552 4.83982 3.84278 4.80752 3.76269C4.77521 3.6826 4.75951 3.59683 4.76138 3.51055Z" fill="#CE181E"/>
</svg>
