<svg width="23" height="15" viewBox="0 0 23 15" fill="none" xmlns="http://www.w3.org/2000/svg">
<path d="M4.97362 13.5541C4.68931 13.5541 4.41138 13.4693 4.17499 13.3105C3.93859 13.1517 3.75436 12.926 3.64556 12.662C3.53676 12.3979 3.50828 12.1073 3.56374 11.827C3.61921 11.5467 3.75612 11.2892 3.95716 11.0871C4.1582 10.885 4.41434 10.7474 4.69319 10.6916C4.97204 10.6359 5.26107 10.6645 5.52374 10.7739C5.7864 10.8832 6.0109 11.0685 6.16885 11.3061C6.3268 11.5437 6.41111 11.8231 6.41111 12.109C6.41111 12.4922 6.25967 12.8598 5.99008 13.1308C5.7205 13.4018 5.35487 13.5541 4.97362 13.5541ZM4.97362 14.9992C5.54224 14.9992 6.0981 14.8296 6.57088 14.5121C7.04367 14.1945 7.41217 13.7431 7.62977 13.215C7.84737 12.6869 7.90429 12.1057 7.79336 11.5451C7.68242 10.9845 7.40862 10.4695 7.00655 10.0653C6.60447 9.66107 6.0922 9.3858 5.53451 9.27429C4.97681 9.16277 4.39875 9.22 3.87341 9.43875C3.34808 9.65751 2.89907 10.028 2.58316 10.5032C2.26726 10.9785 2.09863 11.5373 2.09863 12.109C2.09863 12.8755 2.40153 13.6106 2.9407 14.1526C3.47986 14.6946 4.21113 14.9992 4.97362 14.9992ZM16.4736 13.5541C16.1893 13.5541 15.9113 13.4693 15.6749 13.3105C15.4385 13.1517 15.2543 12.926 15.1455 12.662C15.0367 12.3979 15.0082 12.1073 15.0637 11.827C15.1192 11.5467 15.2561 11.2892 15.4571 11.0871C15.6581 10.885 15.9143 10.7474 16.1931 10.6916C16.472 10.6359 16.761 10.6645 17.0237 10.7739C17.2864 10.8832 17.5108 11.0685 17.6688 11.3061C17.8268 11.5437 17.9111 11.8231 17.9111 12.109C17.9111 12.4922 17.7596 12.8598 17.49 13.1308C17.2205 13.4018 16.8548 13.5541 16.4736 13.5541ZM16.4736 14.9992C17.0422 14.9992 17.598 14.8296 18.0708 14.5121C18.5436 14.1945 18.9121 13.7431 19.1297 13.215C19.3473 12.6869 19.4042 12.1057 19.2933 11.5451C19.1824 10.9845 18.9086 10.4695 18.5065 10.0653C18.1044 9.66107 17.5921 9.3858 17.0345 9.27429C16.4768 9.16277 15.8987 9.22 15.3734 9.43875C14.848 9.65751 14.399 10.028 14.0831 10.5032C13.7672 10.9785 13.5986 11.5373 13.5986 12.109C13.5986 12.8755 13.9015 13.6106 14.4406 14.1526C14.9798 14.6946 15.7111 14.9992 16.4736 14.9992Z" fill="#CE181E"/>
<path d="M7.84861 1.4451C9.484 1.46187 11.0948 1.90485 12.5626 2.63011C14.0304 3.35537 15.3177 4.40224 16.3298 5.6937H16.4736L3.8955 5.13011L4.72925 1.4451H7.84861ZM7.84861 0H3.53613L2.09863 6.35844L19.3486 7.12435L17.3648 4.66768C16.2109 3.25122 14.7589 2.10959 13.1134 1.32497C11.4679 0.540341 9.66982 0.00218737 7.84861 0Z" fill="#CE181E"/>
<path d="M20.01 5.89721L2.09876 5.16021C1.82382 5.1583 1.55123 5.21109 1.29668 5.31554C1.04213 5.41999 0.810668 5.57403 0.615591 5.7688C0.420514 5.96357 0.265681 6.1952 0.160034 6.45038C0.0543867 6.70555 -6.53783e-06 6.97921 5.8939e-10 7.2556V9.92904C0.00376595 10.4874 0.226103 11.0219 0.618881 11.4167C1.01166 11.8116 1.5433 12.0351 2.09876 12.0389C2.09325 11.5304 2.22757 11.0304 2.48689 10.5938H2.09876C1.90432 10.5938 1.71784 10.5161 1.58036 10.3779C1.44287 10.2397 1.36564 10.0522 1.36564 9.85678V7.2556C1.36917 7.06755 1.44407 6.88797 1.57503 6.75364C1.70598 6.61931 1.88305 6.54039 2.07 6.53305L19.9525 7.27005C20.1745 7.27004 20.3944 7.31425 20.5994 7.40012C20.8044 7.48599 20.9905 7.61183 21.1468 7.77037C21.3032 7.9289 21.4268 8.117 21.5105 8.3238C21.5941 8.53061 21.6362 8.75202 21.6343 8.97527V9.92904C21.6362 10.0251 21.6191 10.1206 21.5838 10.21C21.5486 10.2993 21.4959 10.3807 21.429 10.4493C21.362 10.518 21.2822 10.5725 21.194 10.6097C21.1058 10.6469 21.0112 10.6661 20.9156 10.666H18.9175C19.1811 11.1014 19.3204 11.6014 19.32 12.1111H20.9156C21.1905 12.1111 21.4628 12.0565 21.7166 11.9503C21.9704 11.8441 22.2008 11.6884 22.3946 11.4923C22.5883 11.2962 22.7415 11.0635 22.8454 10.8076C22.9493 10.5517 23.0018 10.2777 23 10.0013V8.97527C23.0039 8.17017 22.6924 7.39587 22.1328 6.81985C21.5733 6.24383 20.8107 5.91239 20.01 5.89721Z" fill="#CE181E"/>
<path d="M7.8485 12.0389H13.5985C13.5851 11.5294 13.72 11.0272 13.9866 10.5938H7.43164C7.70035 11.0277 7.8446 11.5277 7.8485 12.0389Z" fill="#CE181E"/>
<path d="M0.702298 0.677463C0.700468 0.589157 0.716195 0.501371 0.74855 0.419252C0.780905 0.337133 0.829243 0.262334 0.890726 0.199238C0.952209 0.136141 1.0256 0.0860178 1.1066 0.0518056C1.1876 0.0175935 1.27459 -1.91544e-05 1.36245 1.5632e-08H4.96573C5.14446 1.5632e-08 5.31587 0.0713758 5.44225 0.198425C5.56863 0.325474 5.63963 0.497789 5.63963 0.677463C5.63965 0.765789 5.62213 0.85323 5.5881 0.93466C5.55407 1.01609 5.50421 1.08987 5.44144 1.15168C5.37868 1.21349 5.30427 1.26208 5.22259 1.29461C5.1409 1.32713 5.05358 1.34294 4.96573 1.3411H1.36245C1.27524 1.34299 1.18856 1.32711 1.10762 1.29443C1.02668 1.26174 0.953159 1.21293 0.891481 1.15092C0.829804 1.08892 0.781239 1.01501 0.748728 0.93364C0.716217 0.852271 0.700422 0.76513 0.702298 0.677463Z" fill="#CE181E"/>
</svg>
