<?xml version="1.0" encoding="UTF-8"?>
<!DOCTYPE svg PUBLIC "-//W3C//DTD SVG 1.1//EN" "http://www.w3.org/Graphics/SVG/1.1/DTD/svg11.dtd">
<!-- Creator: CorelDRAW X5 -->
<svg xmlns="http://www.w3.org/2000/svg" xml:space="preserve" width="100px" height="30px" style="shape-rendering:geometricPrecision; text-rendering:geometricPrecision; image-rendering:optimizeQuality; fill-rule:evenodd; clip-rule:evenodd"
viewBox="0 0 100 30.0002"
 xmlns:xlink="http://www.w3.org/1999/xlink">
 <defs>
  <style type="text/css">
   <![CDATA[
    .fil0 {fill:#0B6E45}
    .fil1 {fill:#0B6E45;fill-rule:nonzero}
   ]]>
  </style>
 </defs>
 <g id="Camada_x0020_1">
  <metadata id="CorelCorpID_0Corel-Layer"/>
  <g id="_449240752">
   <path id="_449240464" class="fil0" d="M6.68391 10.7056c0,0 0.996858,-4.99256 6.30359,-4.04767 5.30792,0.944889 9.47252,3.12168 14.8466,-1.4445 0,0 -1.13741,4.44334 -6.96974,5.30201 -5.83233,0.858668 -8.48983,-2.28781 -14.1804,0.190159zm-6.68509 -10.0418l0 0 28.6738 0 0 28.6727 -28.6738 0 0 -6.12879c3.63546,0.655517 7.33707,1.59332 12.3674,0.851582 10.3595,-1.52482 12.3781,-9.41582 12.3781,-9.41582 -8.98708,7.63825 -16.0737,4.65122 -24.7455,2.87601l0 -1.82836c5.93863,-1.14686 9.77488,1.90868 16.8568,0.865755 8.40715,-1.23899 10.0454,-7.64297 10.0454,-7.64297 -7.74455,6.58234 -13.7493,3.44294 -21.4006,2.08112 -2.39293,-0.4252 -4.17759,-0.0129922 -5.50162,0.752368l0 -11.0836z"/>
   <g>
    <path id="_449241184" class="fil1" d="M39.5129 20.9175l1.10906 0c0.409846,0 0.791345,0.0342522 1.14332,0.109843 0.351971,0.0779534 0.661423,0.196065 0.928354,0.355515 0.266931,0.15945 0.477169,0.370869 0.625989,0.622446 0.14882,0.257482 0.224411,0.562209 0.226773,0.917724 -0.00236222,0.377956 -0.0779534,0.70158 -0.226773,0.968512 -0.146458,0.262207 -0.348428,0.479531 -0.608273,0.647249 -0.256301,0.164175 -0.551579,0.284648 -0.883472,0.363782 -0.334255,0.0779534 -0.686226,0.113387 -1.05591,0.113387 -0.274018,0 -0.516146,0 -0.718116,-0.00354333 -0.203151,-0.00708667 -0.385042,-0.0177167 -0.540949,-0.0377956l0 -4.05712zm0 -5.67878l0 0c0.124017,-0.02126 0.294097,-0.04252 0.516146,-0.0602367 0.224411,-0.0141733 0.511421,-0.0248033 0.87166,-0.0248033 0.739376,0 1.30867,0.141733 1.70316,0.422838 0.399216,0.281105 0.597643,0.698037 0.602367,1.24135 0,0.360239 -0.100394,0.66969 -0.295278,0.933078 -0.199608,0.266931 -0.491342,0.468901 -0.88229,0.618903 -0.388586,0.146458 -0.872842,0.217325 -1.44922,0.219687l-1.06654 0 0 -3.35081zm-3.05435 12.0013l0 0c0.351971,0.0496067 0.715754,0.0803156 1.26379,0.120473 0.590556,0.04252 1.28859,0.0649611 2.08821,0.0673234 0.950795,0 1.78702,-0.05315 2.50514,-0.153545 0.719297,-0.0992134 1.3382,-0.249215 1.85789,-0.440555 0.516146,-0.194883 0.949614,-0.431106 1.29568,-0.708667 0.302365,-0.240947 0.562209,-0.514965 0.78662,-0.824416 0.22323,-0.30827 0.39331,-0.650793 0.517327,-1.0252 0.125198,-0.373231 0.188978,-0.781896 0.188978,-1.22363 -0.00236222,-0.615359 -0.131103,-1.15985 -0.376775,-1.6323 -0.245671,-0.477169 -0.582288,-0.876385 -1.00985,-1.19647 -0.431106,-0.320081 -0.922448,-0.550398 -1.47285,-0.693313l0 -0.04252c0.539768,-0.210238 0.985047,-0.473626 1.33348,-0.78662 0.353152,-0.316538 0.612997,-0.664966 0.783077,-1.05237 0.167718,-0.388586 0.251577,-0.790164 0.251577,-1.21418 -0.00236222,-0.440555 -0.0732289,-0.843314 -0.219687,-1.20592 -0.142915,-0.362601 -0.342522,-0.679139 -0.597643,-0.954338 -0.256301,-0.272837 -0.551579,-0.500791 -0.889377,-0.679139 -0.353152,-0.205513 -0.73347,-0.366145 -1.13859,-0.486618 -0.409846,-0.118111 -0.868117,-0.203151 -1.37718,-0.253939 -0.512602,-0.0496067 -1.09489,-0.0708667 -1.75395,-0.0708667 -0.555122,0 -1.09607,0.0141733 -1.62875,0.0437011 -0.533862,0.0271656 -1.0252,0.0649611 -1.47403,0.108662 -0.406302,0.04252 -0.664966,0.0767723 -0.943708,0.121655 -0.0980323,0.0129922 -0.164175,0.109843 -0.15945,0.188978l0 13.8143c0,0.0779534 0.0673234,0.164175 0.17008,0.179529z"/>
    <path id="_449241064" class="fil1" d="M54.0406 23.4781c0,0.09567 -0.00354333,0.192521 -0.0141733,0.284648 -0.01063,0.0968512 -0.0271656,0.185435 -0.0484256,0.271656 -0.0755911,0.22323 -0.192521,0.421657 -0.356696,0.604729 -0.162993,0.177167 -0.362601,0.320081 -0.590556,0.426381 -0.227955,0.1063 -0.472445,0.15945 -0.739376,0.164175 -0.245671,0 -0.461815,-0.0472445 -0.654336,-0.135828 -0.19134,-0.0921267 -0.346066,-0.226773 -0.455909,-0.413389 -0.109843,-0.179529 -0.167718,-0.412208 -0.17008,-0.689769 0.00708667,-0.409846 0.141733,-0.735833 0.405121,-0.97796 0.266931,-0.238585 0.625989,-0.412208 1.0819,-0.516146 0.455909,-0.102757 0.96733,-0.153545 1.54253,-0.14882l0 1.13032zm3.13939 -2.36813l0 0c0.00236222,-0.623627 -0.0708667,-1.2071 -0.224411,-1.75159 -0.153545,-0.546855 -0.405121,-1.02402 -0.75473,-1.44096 -0.351971,-0.415751 -0.817329,-0.739376 -1.40907,-0.974417 -0.587012,-0.236222 -1.31103,-0.355515 -2.18033,-0.360239 -0.633076,0.00472445 -1.213,0.05315 -1.73623,0.153545 -0.519689,0.0992134 -0.974417,0.219687 -1.36655,0.363782 -0.321262,0.115749 -0.598824,0.229136 -0.81851,0.347247 -0.11693,0.0685045 -0.102757,0.186616 -0.0921267,0.22323l0.485437 1.70316c0.0354333,0.119292 0.171261,0.177167 0.27638,0.120473 0.18071,-0.0992134 0.383861,-0.190159 0.607091,-0.274018 0.309451,-0.11693 0.644887,-0.213781 0.998039,-0.284648 0.355515,-0.0708667 0.711029,-0.111024 1.07009,-0.111024 0.399216,0.00472445 0.72284,0.0460634 0.970874,0.132285 0.252758,0.08504 0.445279,0.198427 0.581107,0.334255 0.133466,0.13819 0.226773,0.284648 0.27638,0.445279 0.0507878,0.155907 0.0755911,0.309451 0.0708667,0.455909l0 0.12756c-0.92481,0 -1.76458,0.0814967 -2.51459,0.240947 -0.750006,0.164175 -1.39489,0.409846 -1.9323,0.737014 -0.537406,0.331892 -0.953157,0.742919 -1.24253,1.24489 -0.28701,0.501972 -0.433468,1.09371 -0.43583,1.76931 0,0.420476 0.0779534,0.820873 0.230317,1.20237 0.150001,0.380318 0.374412,0.721659 0.661423,1.02048 0.292916,0.302365 0.643706,0.537406 1.06064,0.71221 0.416932,0.173623 0.890558,0.262207 1.4197,0.266931 0.622446,0 1.19174,-0.111024 1.70434,-0.327168 0.509059,-0.217325 0.938984,-0.537406 1.28387,-0.954338l0.06378 0 0 0.852763c0,0.0897645 0.0720478,0.193702 0.192521,0.193702l2.92561 0c-0.0437011,-0.196065 -0.07441,-0.422838 -0.100394,-0.69095 -0.0248033,-0.266931 -0.04252,-0.553941 -0.0566934,-0.868117 -0.0118111,-0.309451 -0.0141733,-0.629533 -0.0141733,-0.961425l0 -3.64845z"/>
    <path id="_449241016" class="fil1" d="M59.0969 27.279l2.85357 0c0.133466,0 0.196065,-0.11693 0.196065,-0.19134l-0.00118111 -5.82879c0,-0.153545 0.00708667,-0.298821 0.02126,-0.438192 0.0141733,-0.141733 0.04252,-0.266931 0.0862212,-0.373231 0.0767723,-0.20197 0.187797,-0.398035 0.336617,-0.579926 0.146458,-0.184253 0.327168,-0.337798 0.548036,-0.455909 0.220868,-0.11693 0.480712,-0.177167 0.779534,-0.18071 0.390948,0.00354333 0.707486,0.0992134 0.950795,0.288191 0.240947,0.187797 0.415751,0.452366 0.527957,0.790164 0.112206,0.337798 0.168899,0.731108 0.165356,1.18229l0 5.59611c0,0.108662 0.0897645,0.19134 0.192521,0.19134l2.85593 0c0.134647,0 0.197246,-0.113387 0.197246,-0.19134l0 -5.97761c-0.00472445,-0.770085 -0.0968512,-1.43505 -0.28701,-2.0008 -0.183072,-0.565752 -0.442917,-1.03465 -0.781896,-1.40552 -0.334255,-0.369688 -0.728746,-0.647249 -1.18465,-0.827959 -0.451185,-0.181891 -0.94607,-0.270475 -1.48348,-0.270475 -0.437011,0.00354333 -0.833865,0.0590556 -1.18111,0.166537 -0.351971,0.1063 -0.661423,0.249215 -0.92481,0.420476 -0.268112,0.17008 -0.494886,0.351971 -0.68032,0.548036 -0.184253,0.19134 -0.32953,0.375594 -0.438192,0.550398l-0.0625989 0 0 -1.25316c0,-0.151182 -0.129922,-0.197246 -0.196065,-0.197246l-2.77207 0 0.0614178 0.920086c0.0366145,0.551579 0.0248033,0.929535 0.0248033,1.57915l0 7.74455c0,0.121655 0.0944889,0.194883 0.196065,0.194883z"/>
    <path id="_449240920" class="fil1" d="M73.0234 20.8738c0.0224411,-0.216143 0.0708667,-0.447641 0.157088,-0.688588 0.08504,-0.242128 0.206695,-0.473626 0.366145,-0.687407 0.160631,-0.217325 0.363782,-0.392129 0.604729,-0.526776 0.245671,-0.134647 0.538587,-0.205513 0.878747,-0.210238 0.370869,0.00472445 0.675596,0.0779534 0.918905,0.217325 0.236222,0.142915 0.426381,0.324806 0.561028,0.544492 0.133466,0.217325 0.229136,0.448822 0.282286,0.687407 0.05315,0.240947 0.0779534,0.461815 0.0732289,0.663785l-3.84216 0zm6.77486 2.05632l0 0c0.0141733,-0.0992134 0.0283467,-0.218506 0.04252,-0.355515 0.0236222,-0.226773 0.0354333,-0.480712 0.0354333,-0.760636 0,-0.519689 -0.05315,-1.03229 -0.15945,-1.53308 -0.107481,-0.501972 -0.277561,-0.975598 -0.504335,-1.41615 -0.232679,-0.441736 -0.527957,-0.833865 -0.894102,-1.17048 -0.366145,-0.337798 -0.804337,-0.602367 -1.31694,-0.793707 -0.512602,-0.194883 -1.1067,-0.291735 -1.77757,-0.295278 -0.726384,0.00354333 -1.37363,0.113387 -1.94293,0.323625 -0.570477,0.213781 -1.06418,0.505516 -1.48111,0.875204 -0.420476,0.369688 -0.76536,0.793707 -1.0382,1.26615 -0.274018,0.475988 -0.47835,0.979142 -0.612997,1.50828 -0.131103,0.5315 -0.198427,1.06418 -0.198427,1.59804 0.00354333,1.09253 0.22323,2.03978 0.657879,2.82876 0.433468,0.792526 1.063,1.40552 1.89214,1.83545 0.830321,0.426381 1.83663,0.643706 3.02246,0.651974 0.707486,0 1.37836,-0.0578745 2.01734,-0.165356 0.575201,-0.0944889 1.11615,-0.242128 1.60631,-0.43583 0.100394,-0.0377956 0.142915,-0.146458 0.124017,-0.216143 -0.11693,-0.608273 -0.236222,-1.21773 -0.354333,-1.826 -0.0295278,-0.151182 -0.165356,-0.172442 -0.249215,-0.151182 -0.368507,0.11693 -0.752368,0.207876 -1.14568,0.271656 -0.468901,0.07441 -0.979142,0.109843 -1.52954,0.109843 -0.381499,0 -0.7441,-0.0389767 -1.08898,-0.120473 -0.341341,-0.0826778 -0.651974,-0.203151 -0.921267,-0.367326 -0.271656,-0.162993 -0.487799,-0.368507 -0.650793,-0.618903 -0.167718,-0.248033 -0.259845,-0.544492 -0.284648,-0.878747l6.56226 0c0.0921267,0 0.175986,-0.0685045 0.190159,-0.164175z"/>
    <path id="_449240992" class="fil1" d="M81.1294 26.8337c0.374412,0.186616 0.819691,0.341341 1.3382,0.466539 0.581107,0.13819 1.21418,0.209057 1.90513,0.213781 0.994496,-0.00708667 1.82836,-0.153545 2.49805,-0.445279 0.664966,-0.288191 1.16576,-0.686226 1.50001,-1.19529 0.338979,-0.509059 0.505516,-1.09253 0.505516,-1.75513 -0.00354333,-0.504335 -0.102757,-0.955519 -0.298821,-1.35828 -0.196065,-0.399216 -0.498429,-0.75473 -0.910637,-1.06418 -0.412208,-0.305908 -0.949614,-0.572839 -1.60749,-0.799613 -0.424019,-0.146458 -0.758274,-0.282286 -1.00631,-0.402759 -0.246852,-0.120473 -0.4252,-0.245671 -0.527957,-0.370869 -0.105119,-0.126379 -0.157088,-0.27638 -0.152363,-0.444098 0.00236222,-0.259845 0.108662,-0.461815 0.323625,-0.608273 0.213781,-0.145277 0.516146,-0.219687 0.91418,-0.22323 0.295278,0.00354333 0.587012,0.0354333 0.870479,0.09567 0.284648,0.06378 0.549217,0.141733 0.791345,0.230317 0.144096,0.0566934 0.272837,0.109843 0.387405,0.162993 0.0708667,0.0413389 0.230317,0.0295278 0.272837,-0.132285l0.477169 -1.92757c0.0153545,-0.0602367 -0.0283467,-0.0968512 -0.0543311,-0.109843 -0.314176,-0.151182 -0.703943,-0.282286 -1.17284,-0.394491 -0.504335,-0.120473 -1.063,-0.18071 -1.67836,-0.188978 -0.647249,0.00472445 -1.23072,0.0897645 -1.75395,0.259845 -0.519689,0.171261 -0.968512,0.413389 -1.3382,0.72284 -0.374412,0.309451 -0.65906,0.673234 -0.853944,1.08898 -0.198427,0.415751 -0.298821,0.87166 -0.303546,1.36655 -0.01063,0.415751 0.0874023,0.813786 0.282286,1.20237 0.198427,0.387405 0.519689,0.742919 0.960244,1.07363 0.441736,0.331892 1.0252,0.61654 1.74686,0.86103 0.395672,0.131103 0.703943,0.256301 0.92481,0.374412 0.220868,0.113387 0.373231,0.237403 0.464177,0.369688 0.0874023,0.135828 0.129922,0.291735 0.126379,0.473626 0.00354333,0.269293 -0.101576,0.475988 -0.323625,0.625989 -0.220868,0.150001 -0.575201,0.22323 -1.063,0.227955 -0.327168,-0.00472445 -0.666147,-0.04252 -1.01812,-0.118111 -0.355515,-0.0779534 -0.686226,-0.174805 -1.00394,-0.291735 -0.213781,-0.0767723 -0.405121,-0.150001 -0.564571,-0.243309 -0.0885834,-0.0496067 -0.236222,-0.00354333 -0.270475,0.122836l-0.47835 1.91576c-0.0153545,0.0555122 -0.00708667,0.160631 0.0921267,0.218506z"/>
    <path id="_449240824" class="fil1" d="M93.1472 20.8738c0.02126,-0.216143 0.0708667,-0.447641 0.157088,-0.688588 0.08504,-0.242128 0.205513,-0.473626 0.366145,-0.687407 0.15945,-0.217325 0.363782,-0.392129 0.604729,-0.526776 0.245671,-0.134647 0.537406,-0.205513 0.879928,-0.210238 0.368507,0.00472445 0.674415,0.0779534 0.917724,0.217325 0.237403,0.142915 0.426381,0.324806 0.562209,0.544492 0.131103,0.217325 0.226773,0.448822 0.279923,0.687407 0.0543311,0.240947 0.0791345,0.461815 0.0755911,0.663785l-3.84334 0zm6.77368 2.05632l0 0c0.0165356,-0.0992134 0.0295278,-0.218506 0.0437011,-0.355515 0.0224411,-0.226773 0.0354333,-0.480712 0.0354333,-0.760636 0,-0.519689 -0.05315,-1.03229 -0.15945,-1.53308 -0.107481,-0.501972 -0.277561,-0.975598 -0.505516,-1.41615 -0.231498,-0.441736 -0.527957,-0.833865 -0.894102,-1.17048 -0.366145,-0.337798 -0.804337,-0.602367 -1.31576,-0.793707 -0.511421,-0.194883 -1.10552,-0.291735 -1.77875,-0.295278 -0.725203,0.00354333 -1.37363,0.113387 -1.94175,0.323625 -0.570477,0.213781 -1.06418,0.505516 -1.48111,0.875204 -0.419295,0.369688 -0.764179,0.793707 -1.0382,1.26615 -0.275199,0.475988 -0.477169,0.979142 -0.612997,1.50828 -0.131103,0.5315 -0.199608,1.06418 -0.199608,1.59804 0.00354333,1.09253 0.22323,2.03978 0.65906,2.82876 0.433468,0.792526 1.06418,1.40552 1.89332,1.83545 0.82914,0.426381 1.83545,0.643706 3.0201,0.651974 0.707486,0 1.37954,-0.0578745 2.01734,-0.165356 0.576382,-0.0944889 1.11615,-0.242128 1.60749,-0.43583 0.100394,-0.0377956 0.142915,-0.146458 0.124017,-0.216143 -0.11693,-0.608273 -0.236222,-1.21773 -0.355515,-1.826 -0.0283467,-0.151182 -0.164175,-0.172442 -0.246852,-0.151182 -0.370869,0.11693 -0.753549,0.207876 -1.14686,0.271656 -0.470082,0.07441 -0.97796,0.109843 -1.52954,0.109843 -0.381499,0 -0.7441,-0.0389767 -1.09017,-0.120473 -0.34016,-0.0826778 -0.650793,-0.203151 -0.920086,-0.367326 -0.270475,-0.162993 -0.487799,-0.368507 -0.650793,-0.618903 -0.168899,-0.248033 -0.259845,-0.544492 -0.285829,-0.878747l6.56344 0c0.0921267,0 0.174805,-0.0685045 0.188978,-0.164175z"/>
   </g>
   <path id="_449240848" class="fil1" d="M36.2873 6.92604c0,0.496067 0.0767723,0.9567 0.230317,1.376 0.153545,0.421657 0.381499,0.788983 0.686226,1.1008 0.304727,0.314176 0.683864,0.558666 1.13387,0.731108 0.453547,0.174805 0.97796,0.263388 1.57797,0.26575 0.282286,-0.00236222 0.539768,-0.0165356 0.772447,-0.0472445 0.231498,-0.03189 0.433468,-0.0673234 0.603548,-0.113387 0.17008,-0.0448822 0.304727,-0.0909456 0.400397,-0.135828l-0.235041 -1.23308c-0.105119,0.0413389 -0.227955,0.0791345 -0.370869,0.113387 -0.141733,0.0330711 -0.292916,0.0614178 -0.453547,0.0814967 -0.160631,0.02126 -0.321262,0.0307089 -0.479531,0.0307089 -0.46772,-0.00236222 -0.868117,-0.09567 -1.19647,-0.277561 -0.330711,-0.183072 -0.58465,-0.444098 -0.760636,-0.779534 -0.174805,-0.337798 -0.261026,-0.738195 -0.263388,-1.20355 0.00236222,-0.386224 0.0602367,-0.721659 0.172442,-1.00985 0.113387,-0.28701 0.269293,-0.524414 0.470082,-0.714573 0.20197,-0.19134 0.434649,-0.333073 0.700399,-0.426381 0.268112,-0.09567 0.556304,-0.141733 0.865755,-0.141733 0.277561,0.00236222 0.526776,0.0283467 0.745281,0.0767723 0.218506,0.0507878 0.405121,0.109843 0.561028,0.179529l0.328349 -1.2319c-0.139371,-0.0814967 -0.354333,-0.151182 -0.649611,-0.213781 -0.295278,-0.0602367 -0.647249,-0.0933078 -1.05709,-0.09567 -0.527957,0 -1.0193,0.0814967 -1.47521,0.242128 -0.454728,0.158269 -0.855125,0.395672 -1.20119,0.705124 -0.344885,0.311813 -0.612997,0.695675 -0.80788,1.1504 -0.193702,0.455909 -0.291735,0.981504 -0.29764,1.57088z"/>
   <path id="_4492408481" class="fil1" d="M42.3795 7.77998c0.00236222,0.41457 0.0673234,0.783077 0.197246,1.1067 0.128741,0.324806 0.311813,0.600005 0.543311,0.823235 0.230317,0.225592 0.501972,0.395672 0.813786,0.512602 0.309451,0.118111 0.644887,0.177167 1.00631,0.177167 0.251577,0 0.506697,-0.0307089 0.760636,-0.0933078 0.256301,-0.0625989 0.498429,-0.158269 0.728746,-0.289372 0.230317,-0.132285 0.43583,-0.302365 0.61654,-0.509059 0.181891,-0.205513 0.323625,-0.454728 0.426381,-0.742919 0.105119,-0.288191 0.158269,-0.618903 0.160631,-0.994496 -0.00472445,-0.539768 -0.114568,-1.00749 -0.330711,-1.39607 -0.216143,-0.390948 -0.516146,-0.693313 -0.901188,-0.90355 -0.383861,-0.211419 -0.830321,-0.3189 -1.3382,-0.321262 -0.37205,0 -0.719297,0.0566934 -1.04292,0.172442 -0.323625,0.114568 -0.609454,0.282286 -0.853944,0.505516 -0.24449,0.225592 -0.43583,0.498429 -0.575201,0.825597 -0.139371,0.328349 -0.209057,0.70158 -0.211419,1.12678zm1.6134 0c0,-0.178348 0.0177167,-0.355515 0.0507878,-0.532681 0.0330711,-0.177167 0.0909456,-0.34016 0.17008,-0.48898 0.0767723,-0.14882 0.181891,-0.269293 0.314176,-0.360239 0.129922,-0.0909456 0.292916,-0.135828 0.484256,-0.13819 0.190159,0.00236222 0.348428,0.0472445 0.477169,0.13819 0.129922,0.0909456 0.235041,0.211419 0.311813,0.360239 0.0767723,0.151182 0.134647,0.314176 0.167718,0.493705 0.0342522,0.179529 0.0507878,0.360239 0.0507878,0.539768 0,0.275199 -0.0366145,0.526776 -0.111024,0.750006 -0.07441,0.22323 -0.184253,0.402759 -0.333073,0.535044 -0.151182,0.132285 -0.337798,0.200789 -0.56339,0.203151 -0.230317,-0.00236222 -0.419295,-0.07441 -0.570477,-0.210238 -0.151182,-0.137009 -0.263388,-0.3189 -0.337798,-0.544492 -0.07441,-0.225592 -0.111024,-0.474807 -0.111024,-0.745281z"/>
   <path id="_44924084812" class="fil1" d="M48.5779 10.2875l1.57206 0 0 -2.89845c0,-0.07441 0.00472445,-0.144096 0.0153545,-0.213781 0.0118111,-0.0696856 0.0259845,-0.129922 0.0472445,-0.177167 0.0342522,-0.0980323 0.0838589,-0.190159 0.153545,-0.278742 0.0696856,-0.0885834 0.158269,-0.162993 0.263388,-0.217325 0.1063,-0.0578745 0.230317,-0.0862212 0.374412,-0.0885834 0.184253,0.00236222 0.335436,0.0472445 0.451185,0.13819 0.11693,0.0909456 0.203151,0.218506 0.258663,0.379137 0.0555122,0.162993 0.0814967,0.354333 0.0814967,0.570477l0 2.78624 1.56025 0 0 -2.97994c-0.00236222,-0.493705 -0.0814967,-0.900007 -0.236222,-1.21891 -0.155907,-0.3189 -0.367326,-0.55276 -0.6378,-0.708667 -0.269293,-0.153545 -0.576382,-0.230317 -0.923629,-0.230317 -0.281105,0.00472445 -0.523232,0.0496067 -0.731108,0.135828 -0.206695,0.0897645 -0.379137,0.194883 -0.513784,0.3189 -0.135828,0.125198 -0.239766,0.242128 -0.305908,0.355515l-0.03189 0 -0.0720478 -0.698037 -1.36655 0c0.00944889,0.225592 0.0188978,0.470082 0.0295278,0.735833 0.00708667,0.266931 0.0118111,0.553941 0.0118111,0.868117l0 3.42168z"/>
   <path id="_449240848123" class="fil1" d="M54.3217 10.0406c0.187797,0.105119 0.422838,0.188978 0.702761,0.256301 0.281105,0.0673234 0.587012,0.100394 0.921267,0.102757 0.479531,-0.00236222 0.879928,-0.07441 1.20355,-0.214962 0.321262,-0.141733 0.565752,-0.333073 0.728746,-0.581107 0.162993,-0.24449 0.24449,-0.522051 0.24449,-0.838589 -0.00236222,-0.367326 -0.111024,-0.676777 -0.328349,-0.928354 -0.218506,-0.253939 -0.56339,-0.459452 -1.0382,-0.622446 -0.204332,-0.0696856 -0.364964,-0.134647 -0.484256,-0.192521 -0.118111,-0.0578745 -0.204332,-0.11693 -0.25512,-0.177167 -0.0496067,-0.0602367 -0.0732289,-0.12756 -0.0708667,-0.206695 0,-0.124017 0.0519689,-0.222049 0.155907,-0.296459 0.100394,-0.07441 0.246852,-0.111024 0.438192,-0.113387 0.146458,0.00236222 0.288191,0.0165356 0.424019,0.0507878 0.137009,0.0307089 0.264569,0.0673234 0.379137,0.112206 0.112206,0.0437011 0.209057,0.0862212 0.285829,0.125198l0.277561 -1.07954c-0.158269,-0.0791345 -0.359058,-0.146458 -0.603548,-0.200789 -0.248033,-0.0555122 -0.518508,-0.0838589 -0.813786,-0.0862212 -0.419295,0.00236222 -0.780715,0.07441 -1.0878,0.214962 -0.304727,0.141733 -0.539768,0.336617 -0.705124,0.583469 -0.165356,0.24449 -0.249215,0.526776 -0.251577,0.845676 -0.00236222,0.199608 0.0448822,0.390948 0.141733,0.578745 0.0933078,0.186616 0.246852,0.356696 0.45709,0.517327 0.213781,0.158269 0.491342,0.295278 0.83977,0.412208 0.186616,0.0649611 0.333073,0.125198 0.440555,0.179529 0.1063,0.0555122 0.18071,0.115749 0.225592,0.178348 0.0437011,0.0614178 0.0649611,0.133466 0.0625989,0.217325 0.00236222,0.137009 -0.05315,0.239766 -0.160631,0.311813 -0.109843,0.0720478 -0.283467,0.111024 -0.516146,0.111024 -0.152363,0 -0.316538,-0.0224411 -0.484256,-0.0602367 -0.167718,-0.0389767 -0.328349,-0.0862212 -0.479531,-0.144096 -0.147639,-0.0578745 -0.272837,-0.11693 -0.373231,-0.174805l-0.27638 1.11969z"/>
   <path id="_4492408481234" class="fil1" d="M58.7887 7.77998c0.00236222,0.41457 0.0673234,0.783077 0.197246,1.1067 0.128741,0.324806 0.311813,0.600005 0.543311,0.823235 0.230317,0.225592 0.501972,0.395672 0.813786,0.512602 0.309451,0.118111 0.644887,0.177167 1.00631,0.177167 0.251577,0 0.506697,-0.0307089 0.760636,-0.0933078 0.256301,-0.0625989 0.498429,-0.158269 0.728746,-0.289372 0.230317,-0.132285 0.43583,-0.302365 0.61654,-0.509059 0.181891,-0.205513 0.323625,-0.454728 0.426381,-0.742919 0.105119,-0.288191 0.158269,-0.618903 0.160631,-0.994496 -0.00472445,-0.539768 -0.114568,-1.00749 -0.330711,-1.39607 -0.216143,-0.390948 -0.516146,-0.693313 -0.901188,-0.90355 -0.383861,-0.211419 -0.830321,-0.3189 -1.3382,-0.321262 -0.37205,0 -0.719297,0.0566934 -1.04292,0.172442 -0.323625,0.114568 -0.609454,0.282286 -0.853944,0.505516 -0.24449,0.225592 -0.43583,0.498429 -0.575201,0.825597 -0.139371,0.328349 -0.209057,0.70158 -0.211419,1.12678zm1.6134 0c0,-0.178348 0.0177167,-0.355515 0.0507878,-0.532681 0.0330711,-0.177167 0.0909456,-0.34016 0.17008,-0.48898 0.0767723,-0.14882 0.181891,-0.269293 0.314176,-0.360239 0.129922,-0.0909456 0.292916,-0.135828 0.484256,-0.13819 0.190159,0.00236222 0.348428,0.0472445 0.477169,0.13819 0.129922,0.0909456 0.235041,0.211419 0.311813,0.360239 0.0767723,0.151182 0.134647,0.314176 0.167718,0.493705 0.0342522,0.179529 0.0507878,0.360239 0.0507878,0.539768 0,0.275199 -0.0366145,0.526776 -0.111024,0.750006 -0.07441,0.22323 -0.184253,0.402759 -0.333073,0.535044 -0.151182,0.132285 -0.337798,0.200789 -0.56339,0.203151 -0.230317,-0.00236222 -0.419295,-0.07441 -0.570477,-0.210238 -0.151182,-0.137009 -0.263388,-0.3189 -0.337798,-0.544492 -0.07441,-0.225592 -0.111024,-0.474807 -0.111024,-0.745281zm0.248033 -3.14412l1.213 0 1.33702 -1.5508 -1.56261 0 -0.987409 1.5508z"/>
   <path id="_44924084812345" class="fil1" d="M64.9871 10.2875l1.57206 0 0 -2.54884c0,-0.0578745 0.00236222,-0.11693 0.00708667,-0.179529 0.00590556,-0.0602367 0.0129922,-0.118111 0.0248033,-0.17008 0.0519689,-0.24449 0.172442,-0.437011 0.359058,-0.577564 0.187797,-0.139371 0.422838,-0.211419 0.707486,-0.213781 0.0885834,0 0.165356,0.00472445 0.235041,0.0118111 0.0720478,0.00944889 0.137009,0.0188978 0.197246,0.0283467l0 -1.46694c-0.0578745,-0.0118111 -0.113387,-0.0165356 -0.160631,-0.0188978 -0.0484256,-0.00236222 -0.108662,-0.00236222 -0.178348,-0.00236222 -0.167718,0 -0.337798,0.0330711 -0.512602,0.105119 -0.174805,0.0696856 -0.337798,0.181891 -0.486618,0.333073 -0.14882,0.153545 -0.269293,0.353152 -0.357877,0.600005l-0.0401578 0 -0.0625989 -0.925992 -1.34529 0c0.00944889,0.144096 0.0188978,0.295278 0.0236222,0.455909 0.00826778,0.162993 0.01063,0.34016 0.0153545,0.537406 0.00236222,0.196065 0.00236222,0.416932 0.00236222,0.661423l0 3.37089z"/>
   <path id="_449240848123456" class="fil1" d="M68.6143 7.82014c0.00236222,0.530319 0.113387,0.987409 0.328349,1.37127 0.218506,0.386224 0.525595,0.683864 0.923629,0.891739 0.395672,0.209057 0.865755,0.314176 1.41025,0.316538 0.301183,-0.00236222 0.572839,-0.0259845 0.814967,-0.0708667 0.242128,-0.0460634 0.43583,-0.101576 0.582288,-0.166537l-0.184253 -1.1504c-0.122836,0.0484256 -0.257482,0.0862212 -0.402759,0.118111 -0.146458,0.0307089 -0.311813,0.0472445 -0.501972,0.0472445 -0.253939,0 -0.481894,-0.0555122 -0.687407,-0.162993 -0.206695,-0.107481 -0.369688,-0.26575 -0.491342,-0.477169 -0.122836,-0.211419 -0.185435,-0.470082 -0.187797,-0.779534 -0.00236222,-0.275199 0.05315,-0.517327 0.160631,-0.728746 0.111024,-0.210238 0.266931,-0.375594 0.46772,-0.496067 0.204332,-0.119292 0.441736,-0.179529 0.716935,-0.181891 0.206695,0 0.379137,0.0165356 0.523232,0.0472445 0.140552,0.03189 0.258663,0.0696856 0.351971,0.118111l0.24449 -1.17284c-0.165356,-0.0625989 -0.354333,-0.107481 -0.565752,-0.144096 -0.209057,-0.0330711 -0.421657,-0.0496067 -0.635438,-0.0496067 -0.465358,0.00236222 -0.875204,0.0720478 -1.2319,0.210238 -0.357877,0.137009 -0.657879,0.328349 -0.900007,0.57402 -0.242128,0.24449 -0.424019,0.526776 -0.548036,0.848038 -0.125198,0.323625 -0.187797,0.66969 -0.187797,1.0382z"/>
   <path id="_4492408481234567" class="fil1" d="M73.5277 10.2875l1.57206 0 0 -5.02563 -1.57206 0 0 5.02563zm0.768904 -5.64217c0.178348,-0.00236222 0.328349,-0.0377956 0.455909,-0.107481 0.12756,-0.0696856 0.22323,-0.162993 0.290553,-0.277561 0.0673234,-0.118111 0.100394,-0.250396 0.0980323,-0.395672 0,-0.151182 -0.0366145,-0.288191 -0.100394,-0.405121 -0.0673234,-0.120473 -0.162993,-0.213781 -0.285829,-0.281105 -0.121655,-0.0696856 -0.268112,-0.102757 -0.43583,-0.105119 -0.165356,0.00236222 -0.309451,0.0354333 -0.432287,0.105119 -0.124017,0.0673234 -0.218506,0.160631 -0.28701,0.281105 -0.0673234,0.11693 -0.101576,0.253939 -0.103938,0.405121 0,0.145277 0.0342522,0.277561 0.0992134,0.395672 0.06378,0.114568 0.158269,0.207876 0.275199,0.277561 0.119292,0.0696856 0.263388,0.105119 0.426381,0.107481z"/>
   <path id="_44924084812345678" class="fil1" d="M76.0636 7.77998c0.00236222,0.41457 0.0673234,0.783077 0.197246,1.1067 0.128741,0.324806 0.311813,0.600005 0.543311,0.823235 0.230317,0.225592 0.501972,0.395672 0.813786,0.512602 0.309451,0.118111 0.644887,0.177167 1.00631,0.177167 0.251577,0 0.506697,-0.0307089 0.760636,-0.0933078 0.256301,-0.0625989 0.498429,-0.158269 0.728746,-0.289372 0.230317,-0.132285 0.43583,-0.302365 0.61654,-0.509059 0.181891,-0.205513 0.323625,-0.454728 0.426381,-0.742919 0.105119,-0.288191 0.158269,-0.618903 0.160631,-0.994496 -0.00472445,-0.539768 -0.114568,-1.00749 -0.330711,-1.39607 -0.216143,-0.390948 -0.516146,-0.693313 -0.901188,-0.90355 -0.383861,-0.211419 -0.830321,-0.3189 -1.3382,-0.321262 -0.37205,0 -0.719297,0.0566934 -1.04292,0.172442 -0.323625,0.114568 -0.609454,0.282286 -0.853944,0.505516 -0.24449,0.225592 -0.43583,0.498429 -0.575201,0.825597 -0.139371,0.328349 -0.209057,0.70158 -0.211419,1.12678zm1.6134 0c0,-0.178348 0.0177167,-0.355515 0.0507878,-0.532681 0.0330711,-0.177167 0.0909456,-0.34016 0.17008,-0.48898 0.0767723,-0.14882 0.181891,-0.269293 0.314176,-0.360239 0.129922,-0.0909456 0.292916,-0.135828 0.484256,-0.13819 0.190159,0.00236222 0.348428,0.0472445 0.477169,0.13819 0.129922,0.0909456 0.235041,0.211419 0.311813,0.360239 0.0767723,0.151182 0.134647,0.314176 0.167718,0.493705 0.0342522,0.179529 0.0507878,0.360239 0.0507878,0.539768 0,0.275199 -0.0366145,0.526776 -0.111024,0.750006 -0.07441,0.22323 -0.184253,0.402759 -0.333073,0.535044 -0.151182,0.132285 -0.337798,0.200789 -0.56339,0.203151 -0.230317,-0.00236222 -0.419295,-0.07441 -0.570477,-0.210238 -0.151182,-0.137009 -0.263388,-0.3189 -0.337798,-0.544492 -0.07441,-0.225592 -0.111024,-0.474807 -0.111024,-0.745281z"/>
  </g>
 </g>
</svg>
