<?xml version="1.0" encoding="UTF-8"?>
<!DOCTYPE svg PUBLIC "-//W3C//DTD SVG 1.1//EN" "http://www.w3.org/Graphics/SVG/1.1/DTD/svg11.dtd">
<!-- Creator: CorelDRAW X5 -->
<svg xmlns="http://www.w3.org/2000/svg" xml:space="preserve" width="200px" height="30px" style="shape-rendering:geometricPrecision; text-rendering:geometricPrecision; image-rendering:optimizeQuality; fill-rule:evenodd; clip-rule:evenodd"
viewBox="0 0 200 30.0002"
 xmlns:xlink="http://www.w3.org/1999/xlink">
 <defs>
  <style type="text/css">
   <![CDATA[
    .fil0 {fill:#97999B;fill-rule:nonzero}
    .fil1 {fill:#C73440;fill-rule:nonzero}
   ]]>
  </style>
 </defs>
 <g id="Camada_x0020_1">
  <metadata id="CorelCorpID_0Corel-Layer"/>
  <g id="_289347168">
   <path id="_289347960" class="fil0" d="M7.66187 22.1435c-3.13821,0 -5.96816,-1.40552 -7.14218,-4.42799 -0.347247,-0.885834 -0.519689,-1.82954 -0.519689,-2.77325 0,-4.27444 3.52326,-7.16226 7.64297,-7.16226 1.96419,0 4.00515,0.674415 5.44847,2.04096 0.519689,0.500791 0.92481,1.09725 1.30985,1.69371l-1.15513 0.655517c-0.270475,-0.442917 -0.539768,-0.885834 -0.885834,-1.27088 -1.13623,-1.30985 -2.92679,-1.90631 -4.64059,-1.90631 -3.52326,0 -6.27643,2.38703 -6.27643,6.00713 0,3.54333 2.73427,5.94926 6.21855,5.94926 1.98309,0 3.8894,-0.71221 5.16028,-2.27128 0.289372,-0.347247 0.500791,-0.732289 0.751187,-1.09725l1.17402 0.538587c-1.54017,2.6953 -4.02405,4.02405 -7.08549,4.02405z"/>
   <path id="_289347792" class="fil0" d="M21.6214 22.0667c-2.19569,0 -4.37129,-0.751187 -5.41067,-2.81105 -0.346066,-0.674415 -0.538587,-1.4445 -0.538587,-2.19569 0,-3.38861 2.88782,-5.08232 5.96816,-5.08232 0.731108,0 1.4823,0.0578745 2.19451,0.269293 2.29136,0.654336 3.79373,2.46498 3.79373,4.8709 0,3.27286 -3.06144,4.94886 -6.00713,4.94886zm0.0578745 -9.04968l0 0c-2.44608,0 -4.56382,1.42442 -4.56382,4.04295 0,2.6575 2.04096,3.92838 4.48586,3.92838 2.426,0 4.60161,-1.27088 4.60161,-3.92838 0,-2.59845 -2.07876,-4.04295 -4.52366,-4.04295z"/>
   <path id="_289347600" class="fil0" d="M39.4881 21.7962l0 -5.52524c0,-2.4449 -2.02206,-3.04254 -4.06302,-3.04254 -1.96301,0 -4.31224,0.693313 -4.31224,3.04254l0 5.52524 -1.27088 0 0 -9.51031 1.27088 0 0 1.32757c0.269293,-0.250396 0.519689,-0.49961 0.827959,-0.71221 0.962606,-0.635438 2.52167,-0.885834 3.63901,-0.885834 1.71379,0 3.81145,0.462996 4.69728,2.07994 0.424019,0.770085 0.481894,1.57915 0.481894,2.4449l0 5.25595 -1.27088 0z"/>
   <path id="_289347936" class="fil0" d="M52.9079 20.4876c-1.02048,1.30867 -2.92679,1.54017 -4.48586,1.54017 -2.00317,0 -5.00673,-0.327168 -5.73784,-2.57955l1.38544 -0.30827c0.751187,1.52127 2.73427,1.73269 4.25555,1.73269 1.15513,0 3.81263,-0.269293 3.81263,-1.88624 0,-1.13623 -1.28977,-1.27088 -2.13781,-1.34765 -0.422838,-0.0389767 -0.846857,-0.0578745 -1.27088,-0.0779534 -0.519689,-0.0377956 -1.03938,-0.0578745 -1.54017,-0.0767723 -1.09725,-0.0389767 -2.71419,-0.0767723 -3.50318,-0.962606 -0.405121,-0.461815 -0.578745,-0.904732 -0.578745,-1.52127 0,-2.59963 2.9079,-2.98467 4.89098,-2.98467 1.94411,0 4.25436,0.270475 5.21815,2.23348l-1.40552 0.289372c-0.558666,-1.213 -2.73427,-1.40552 -3.8894,-1.40552 -1.07835,0 -3.50436,0.230317 -3.50436,1.73269 0,0.289372 0.09567,0.519689 0.269293,0.731108 0.385042,0.462996 1.1941,0.481894 1.73269,0.52087 0.732289,0.0578745 1.4634,0.09567 2.21458,0.134647 1.28977,0.0578745 3.42759,0.09567 4.29334,1.2508 0.327168,0.424019 0.500791,0.904732 0.500791,1.4445 0,0.558666 -0.173623,1.09725 -0.519689,1.54017z"/>
   <path id="_289348176" class="fil0" d="M60.917 22.0667c-2.19451,0 -4.37011,-0.751187 -5.41067,-2.81105 -0.346066,-0.674415 -0.538587,-1.4445 -0.538587,-2.19569 0,-3.38861 2.88782,-5.08232 5.96816,-5.08232 0.732289,0 1.48348,0.0578745 2.19569,0.269293 2.29018,0.654336 3.79255,2.46498 3.79255,4.8709 0,3.27286 -3.06144,4.94886 -6.00713,4.94886zm0.0578745 -9.04968l0 0c-2.4449,0 -4.56263,1.42442 -4.56263,4.04295 0,2.6575 2.03978,3.92838 4.48586,3.92838 2.426,0 4.60161,-1.27088 4.60161,-3.92838 0,-2.59845 -2.07994,-4.04295 -4.52484,-4.04295zm0.09567 -1.90631l0 0 -0.827959 0 1.50237 -2.79215 2.09884 0 -2.77325 2.79215z"/>
   <path id="_289348152" class="fil0" d="M74.1632 13.2485c-2.00198,0 -3.75475,1.05828 -3.75475,3.23388l0 5.31382 -1.2697 0 0 -9.51031 1.2697 0 0 1.54017c1.17521,-1.65592 2.889,-1.82954 4.75634,-1.82954l0 1.32875c-0.327168,-0.0389767 -0.674415,-0.0767723 -1.00158,-0.0767723z"/>
   <path id="_289347144" class="fil0" d="M86.4089 20.4687c-1.17521,1.11615 -2.94569,1.54017 -4.52484,1.54017 -3.04254,0 -5.71776,-1.73269 -5.71776,-5.02563 0,-3.31184 2.88782,-5.0835 5.92918,-5.0835 2.23348,0 4.48586,1.02166 5.58311,3.04254l-1.2697 0.539768c-1.02048,-1.676 -2.34923,-2.48388 -4.33232,-2.48388 -1.80946,0 -3.42759,0.693313 -4.15869,2.426 -0.211419,0.500791 -0.327168,1.02048 -0.327168,1.55907 0,2.52285 2.07876,3.9083 4.42799,3.9083 1.30985,0 2.81105,-0.480712 3.71578,-1.44332 0.385042,-0.424019 0.597643,-0.866936 0.866936,-1.36773l1.2697 0.481894c-0.422838,0.693313 -0.865755,1.32875 -1.46222,1.90631z"/>
   <path id="_289346832" class="fil0" d="M89.6039 10.591l0 -1.84844 1.27088 0 0 1.84844 -1.27088 0zm0 11.2052l0 0 0 -9.51031 1.27088 0 0 9.51031 -1.27088 0z"/>
   <path id="_289347360" class="fil0" d="M99.0197 22.0667c-2.19569,0 -4.37129,-0.751187 -5.41067,-2.81105 -0.346066,-0.674415 -0.538587,-1.4445 -0.538587,-2.19569 0,-3.38861 2.88782,-5.08232 5.96816,-5.08232 0.731108,0 1.4823,0.0578745 2.19451,0.269293 2.29136,0.654336 3.79373,2.46498 3.79373,4.8709 0,3.27286 -3.06144,4.94886 -6.00713,4.94886zm0.0566934 -9.04968l0 0c-2.4449,0 -4.56263,1.42442 -4.56263,4.04295 0,2.6575 2.04096,3.92838 4.48704,3.92838 2.42482,0 4.60043,-1.27088 4.60043,-3.92838 0,-2.59845 -2.07876,-4.04295 -4.52484,-4.04295z"/>
   <path id="_289347000" class="fil1" d="M124.45 21.7962l-6.75832 -7.66187c-0.615359,-0.693313 -1.17402,-1.40552 -1.75159,-2.13781 0.0767723,0.770085 0.115749,1.54017 0.115749,2.31025l0 7.48943 -3.23506 0 0 -13.5922 3.40869 0 6.66147 7.5662c0.635438,0.71221 1.213,1.4445 1.80946,2.19569 -0.09567,-0.943708 -0.134647,-1.86852 -0.134647,-2.81105l0 -6.95084 3.23506 0 0 13.5922 -3.35081 0z"/>
   <polygon id="_289347288" class="fil1" points="130.9,21.7962 130.9,8.204 134.308,8.204 134.308,21.7962 "/>
   <path id="_289347264" class="fil1" d="M147.496 11.843c-0.71221,-1.38663 -2.61852,-1.63702 -4.00397,-1.63702 -1.04056,0 -2.96577,0.153545 -2.96577,1.57915 0,0.385042 0.134647,0.596461 0.40394,0.846857 0.52087,0.461815 3.35081,0.866936 4.17877,1.00158 2.50278,0.40394 5.44847,0.865755 5.44847,4.06184 0,3.83153 -3.86932,4.52484 -6.91187,4.52484 -3.09924,0 -5.94926,-0.885834 -7.43155,-3.83153l3.09924 -0.788983c0.115749,0.211419 0.231498,0.422838 0.385042,0.596461 0.962606,1.213 2.6953,1.54017 4.17877,1.54017 1.15513,0 3.4264,-0.269293 3.4264,-1.82954 0,-1.13505 -1.40552,-1.28977 -2.25238,-1.42442l-2.38703 -0.385042c-1.676,-0.269293 -3.65908,-0.558666 -4.75634,-2.00198 -0.442917,-0.596461 -0.673234,-1.32875 -0.673234,-2.07994 0,-3.33073 3.61893,-4.23547 6.3343,-4.23547 2.75317,0 5.69886,0.654336 7.14336,3.25396l-3.21617 0.809061z"/>
   <path id="_289346784" class="fil1" d="M162.745 11.843c-0.713391,-1.38663 -2.61852,-1.63702 -4.00515,-1.63702 -1.03938,0 -2.96459,0.153545 -2.96459,1.57915 0,0.385042 0.134647,0.596461 0.40394,0.846857 0.519689,0.461815 3.34963,0.866936 4.17759,1.00158 2.50278,0.40394 5.44847,0.865755 5.44847,4.06184 0,3.83153 -3.86932,4.52484 -6.91187,4.52484 -3.09924,0 -5.94926,-0.885834 -7.43155,-3.83153l3.10042 -0.788983c0.114568,0.211419 0.230317,0.422838 0.385042,0.596461 0.962606,1.213 2.6953,1.54017 4.17759,1.54017 1.15513,0 3.42759,-0.269293 3.42759,-1.82954 0,-1.13505 -1.40552,-1.28977 -2.25356,-1.42442l-2.38703 -0.385042c-1.67482,-0.269293 -3.6579,-0.558666 -4.75516,-2.00198 -0.442917,-0.596461 -0.674415,-1.32875 -0.674415,-2.07994 0,-3.33073 3.62011,-4.23547 6.3343,-4.23547 2.75317,0 5.69886,0.654336 7.14336,3.25396l-3.21499 0.809061z"/>
   <path id="_289347192" class="fil1" d="M179.707 21.7962l-1.15513 -2.56065 -6.96974 0 -1.15513 2.56065 -3.71578 0 6.56462 -13.5922 3.67798 0 6.5658 13.5922 -3.81263 0zm-4.27444 -9.41464l0 0c-0.153545,-0.346066 -0.269293,-0.693313 -0.346066,-1.05828 -0.0968512,0.327168 -0.211419,0.673234 -0.347247,0.981504l-2.05986 4.52484 4.77523 0 -2.02206 -4.44807z"/>
   <path id="_289346856" class="fil1" d="M196.65 21.7962l-6.75832 -7.66187c-0.615359,-0.693313 -1.17402,-1.40552 -1.75159,-2.13781 0.0767723,0.770085 0.115749,1.54017 0.115749,2.31025l0 7.48943 -3.23506 0 0 -13.5922 3.40869 0 6.66147 7.5662c0.635438,0.71221 1.213,1.4445 1.80946,2.19569 -0.0968512,-0.943708 -0.134647,-1.86852 -0.134647,-2.81105l0 -6.95084 3.23388 0 0 13.5922 -3.34963 0z"/>
  </g>
 </g>
</svg>
