<?xml version="1.0" encoding="UTF-8"?>
<!DOCTYPE svg PUBLIC "-//W3C//DTD SVG 1.1//EN" "http://www.w3.org/Graphics/SVG/1.1/DTD/svg11.dtd">
<!-- Creator: CorelDRAW X5 -->
<svg xmlns="http://www.w3.org/2000/svg" xml:space="preserve" width="200px" height="57px" style="shape-rendering:geometricPrecision; text-rendering:geometricPrecision; image-rendering:optimizeQuality; fill-rule:evenodd; clip-rule:evenodd"
viewBox="0 0 200 57.0004"
 xmlns:xlink="http://www.w3.org/1999/xlink">
 <defs>
  <style type="text/css">
   <![CDATA[
    .str0 {stroke:#00A157;stroke-width:0.900007}
    .fil0 {fill:#155A9E}
    .fil2 {fill:#FFCC29}
    .fil1 {fill:#00A157}
    .fil3 {fill:#155A9E;fill-rule:nonzero}
   ]]>
  </style>
 </defs>
 <g id="Camada_x0020_1">
  <metadata id="CorelCorpID_0Corel-Layer"/>
  <g id="_617059048">
   <g>
    <path id="_617077856" class="fil0" d="M171.378 -0.122836c7.61699,0 14.8537,3.00002 20.2383,8.38471 5.38469,5.38469 8.38353,12.6214 8.38353,20.2383 0,7.61699 -2.99884,14.8537 -8.38353,20.2383 -5.38469,5.38469 -12.6225,8.38471 -20.2383,8.38471 -7.61699,0 -14.8537,-3.00002 -20.2383,-8.38471 -5.38469,-5.38469 -8.38471,-12.6214 -8.38471,-20.2383 0,-7.61699 3.00002,-14.8537 8.38471,-20.2383 5.38469,-5.38469 12.6214,-8.38471 20.2383,-8.38471zm18.3202 10.3028c-4.87445,-4.87445 -11.4261,-7.58982 -18.3202,-7.58982 -6.89533,0 -13.4458,2.71538 -18.3202,7.58982 -4.87445,4.87445 -7.58982,11.4249 -7.58982,18.3202 0,6.89533 2.71419,13.4458 7.58982,18.3202 4.87445,4.87563 11.4249,7.58982 18.3202,7.58982 6.89415,0 13.4458,-2.71538 18.3202,-7.58982 4.87445,-4.87445 7.58864,-11.4249 7.58864,-18.3202 0,-6.89533 -2.71419,-13.4458 -7.58864,-18.3202z"/>
    <path id="_616325560" class="fil1" d="M171.375 18.9084c-0.466539,0 -0.940165,0.231498 -1.18347,0.638981l-2.66931 4.45397 -1.48938 -2.48388 1.96773 -3.28113c0.716935,-1.20592 2.0138,-1.86379 3.38034,-1.88151 1.35474,0.00944889 2.64569,0.621265 3.37325,1.88033l5.10358 8.517c0.360239,0.602367 0.162993,1.39135 -0.439374,1.75159 -0.603548,0.360239 -1.39135,0.161812 -1.75277,-0.440555l-5.10358 -8.51582c-0.24449,-0.409846 -0.719297,-0.638981 -1.18702,-0.638981zm2.33742 15.7808l-1.86379 0 0 4.67602c0,0.707486 -0.572839,1.28033 -1.28033,1.28033 -0.707486,0 -1.28033,-0.572839 -1.28033,-1.28033l0 -4.67602 -4.37838 0c-1.49529,0 -2.91616,-0.83977 -3.56105,-2.20277 -0.55276,-1.17048 -0.438192,-2.54057 0.272837,-3.60712 0.388586,-0.587012 1.18347,-0.748825 1.77049,-0.360239 0.588194,0.388586 0.750006,1.18347 0.360239,1.77167 -0.214962,0.323625 -0.262207,0.745281 -0.0921267,1.10434 0.22323,0.472445 0.738195,0.741738 1.24962,0.741738l7.11265 0c0.268112,1.00513 0.872842,1.90868 1.69017,2.55238z"/>
    <path id="_617059240" class="fil2" d="M159.411 18.9049c-0.464177,0.0153545 -0.921267,0.229136 -1.16576,0.638981l-6.40989 10.695c-0.220868,0.362601 -0.317719,0.740557 -0.122836,1.15276 0.22323,0.470082 0.739376,0.741738 1.2508,0.741738l7.11147 0c0.266931,1.00394 0.869298,1.91104 1.68663,2.55238l-1.85907 0 0 4.67602c0,0.707486 -0.57402,1.28033 -1.28151,1.28033 -0.707486,0 -1.28033,-0.572839 -1.28033,-1.28033l0 -4.67602 -4.3772 0c-1.49883,0 -2.91971,-0.844495 -3.56223,-2.20277 -0.548036,-1.16103 -0.43583,-2.54175 0.270475,-3.60239l6.38155 -10.6477c0.657879,-1.10434 1.95356,-1.87797 3.24924,-1.87797 1.41615,-0.0188978 2.76734,0.641344 3.50436,1.87797l5.10595 8.51818c0.360239,0.602367 0.161812,1.39135 -0.440555,1.75159 -0.602367,0.360239 -1.39135,0.162993 -1.75159,-0.439374l-5.10476 -8.51936c-0.248033,-0.415751 -0.729927,-0.642525 -1.20473,-0.638981z"/>
    <path id="_617059024" class="fil0" d="M189.79 32.1369c0.51024,0 1.02639,-0.269293 1.24962,-0.742919 0.220868,-0.465358 0.0685045,-0.796069 -0.14882,-1.19647l-6.38391 -10.6501c-0.24449,-0.409846 -0.718116,-0.638981 -1.18702,-0.638981 -0.46772,0 -0.940165,0.232679 -1.18229,0.638981l-2.67049 4.45515 -1.48938 -2.48388 1.96773 -3.28231c0.71221,-1.19647 2.0197,-1.86261 3.38625,-1.88151 1.35119,0.00944889 2.6575,0.69095 3.36735,1.88033l6.38037 10.6465c0.708667,1.06654 0.824416,2.43427 0.271656,3.60357 -0.646068,1.36418 -2.06576,2.20277 -3.56105,2.20277l-5.18744 0 0 4.67602c0,0.707486 -0.572839,1.28151 -1.28033,1.28151 -0.707486,0 -1.28033,-0.57402 -1.28033,-1.28151l0 -4.67602 -5.18626 0c-1.49647,0 -2.91498,-0.837408 -3.56223,-2.20277 -0.55276,-1.1693 -0.438192,-2.53939 0.274018,-3.60593 0.388586,-0.587012 1.18347,-0.750006 1.77049,-0.360239 0.588194,0.388586 0.748825,1.18347 0.360239,1.77167 -0.217325,0.327168 -0.264569,0.741738 -0.0933078,1.10316 0.225592,0.473626 0.738195,0.742919 1.2508,0.742919l12.9344 0z"/>
    <path id="_617059456" class="fil3" d="M-0.00118111 39.8401l3.99216 0 0 -4.11499 1.97482 0c3.57995,0 6.19257,-1.78938 6.19257,-5.1839l0 -0.0413389c0,-3.189 -2.34569,-5.06106 -5.98706,-5.06106l-6.17249 0 0 14.4013zm3.99216 -7.24258l0 -3.80554 1.87206 0c1.43978,0 2.30435,0.657879 2.30435,1.89214l0 0.0413389c0,1.1315 -0.864574,1.87206 -2.28427,1.87206l-1.89214 0zm9.85401 7.24258l3.99216 0 0 -4.36185 1.74923 0 2.89963 4.36185 4.6087 0 -3.43585 -5.01972c1.79057,-0.761817 2.96341,-2.22285 2.96341,-4.42326l0 -0.0413389c0,-1.4197 -0.432287,-2.53112 -1.2756,-3.35436 -0.96733,-0.987409 -2.48978,-1.56261 -4.69138,-1.56261l-6.81029 0 0 14.4013zm3.99216 -7.48943l0 -3.45593 2.61262 0c1.33702,0 2.16025,0.576382 2.16025,1.70789l0 0.0413389c0,1.04883 -0.781896,1.70671 -2.14017,1.70671l-2.6327 0zm10.8828 7.48943l4.01224 0 0 -14.4013 -4.01224 0 0 14.4013zm6.64612 0l3.9083 0 0 -8.22999 3.66263 5.59611 0.0826778 0 3.68271 -5.63745 0 8.27132 3.9709 0 0 -14.4013 -4.21775 0 -3.43585 5.57485 -3.43585 -5.57485 -4.21775 0 0 14.4013zm16.7056 0l4.19649 0 1.02875 -2.57246 5.55595 0 1.04883 2.57246 4.27917 0 -6.13115 -14.5052 -3.84688 0 -6.13115 14.5052zm6.39808 -5.67878l1.62521 -4.09373 1.60513 4.09373 -3.23034 0zm17.1179 5.96698c3.189,0 5.01972,-1.37836 6.378,-3.25042l-3.00357 -2.14017c-0.864574,1.04883 -1.74923,1.74923 -3.2516,1.74923 -2.01616,0 -3.43467,-1.68781 -3.43467,-3.84806l0 -0.0413389c0,-2.09765 1.41852,-3.80554 3.43467,-3.80554 1.37836,0 2.32561,0.657879 3.14884,1.68663l3.00357 -2.32443c-1.2756,-1.76931 -3.16892,-3.00357 -6.11107,-3.00357 -4.36185,0 -7.591,3.29176 -7.591,7.48825l0 0.0413389c0,4.30043 3.31184,7.44809 7.42683,7.44809zm8.08471 -0.288191l3.99216 0 0 -4.36185 1.74805 0 2.90081 4.36185 4.6087 0 -3.43585 -5.01972c1.79057,-0.761817 2.96341,-2.22285 2.96341,-4.42326l0 -0.0413389c0,-1.4197 -0.432287,-2.53112 -1.2756,-3.35436 -0.96733,-0.987409 -2.48978,-1.56261 -4.69138,-1.56261l-6.81029 0 0 14.4013zm3.99216 -7.48943l0 -3.45593 2.61262 0c1.33702,0 2.16025,0.576382 2.16025,1.70789l0 0.0413389c0,1.04883 -0.781896,1.70671 -2.14017,1.70671l-2.6327 0zm10.8013 7.48943l11.6859 0 0 -3.39451 -7.73628 0 0 -2.28427 6.91305 0 0 -3.14766 -6.91305 0 0 -2.18033 7.63352 0 0 -3.39451 -11.5832 0 0 14.4013zm13.7222 0l5.47327 0c5.1839,0 8.20873,-3.08624 8.20873,-7.24258l0 -0.0401578c0,-4.15633 -2.98349,-7.11856 -8.12723,-7.11856l-5.55477 0 0 14.4013zm3.99216 -3.53861l0 -7.32407 1.62521 0c2.38585,0 3.96972,1.33702 3.96972,3.64137l0 0.0413389c0,2.32443 -1.58387,3.64137 -3.96972,3.64137l-1.62521 0zm11.83 3.53861l4.01106 0 0 -14.4013 -4.01106 0 0 14.4013z"/>
    <rect id="_617059384" class="fil1" x="-0.000618523" y="17.3796" width="27.5168" height="1.32292"/>
    <rect id="_617059312" class="fil1" x="104.505" y="17.3796" width="27.5168" height="1.32292"/>
   </g>
   <path id="_617059072" class="fil1 str0" d="M41.2787 15.6438c-0.611816,-0.707486 -1.32875,-0.979142 -2.16734,-0.979142 -1.90631,0 -3.2705,1.2945 -3.2705,3.27877 0,1.9323 1.36418,3.22562 3.2705,3.22562 0.908275,0 1.74805,-0.331892 2.30789,-1.10198l-0.909456 -0.646068c-0.411027,0.524414 -0.891739,0.751187 -1.39017,0.751187 -1.27678,0 -2.12482,-0.979142 -2.12482,-2.29844 0,-1.23308 0.848038,-2.21222 2.12482,-2.21222 0.428744,0 0.848038,0.131103 1.30277,0.611816l0.856306 -0.629533zm1.02757 2.29962c0,1.9323 1.36418,3.22562 3.2705,3.22562 1.93112,-0.0342522 3.2953,-1.32875 3.2953,-3.26105 0,-1.98427 -1.36418,-3.27877 -3.2953,-3.24333 -1.90631,0 -3.2705,1.2945 -3.2705,3.27877zm1.15395 -0.0696856c0,-1.23308 0.848038,-2.21222 2.12482,-2.21222 1.28505,0 2.13309,0.979142 2.13309,2.21222 0,1.3193 -0.848038,2.29844 -2.13309,2.29844 -1.27678,0 -2.12482,-0.979142 -2.12482,-2.29844zm6.93785 3.13821l1.10198 0 0 -4.74689 0.0177167 0 3.05908 4.74689 1.39844 0 0 -6.19021 -1.1008 0 0 4.59925 -0.0177167 0.0177167 0.0177167 0 -0.0177167 -0.0177167 -2.99884 -4.59925 -1.45985 0 0 6.19021zm11.2737 -5.70949c-0.480712,-0.453547 -1.12796,-0.6378 -1.77403,-0.6378 -1.14568,0 -2.28191,0.594099 -2.28191,1.87088 0,2.21222 2.93742,1.43387 2.93742,2.7886 0,0.569296 -0.577564,0.848038 -1.08426,0.848038 -0.490161,0 -0.953157,-0.235041 -1.22363,-0.646068l-0.831503 0.804337c0.507878,0.602367 1.25907,0.838589 2.02915,0.838589 1.21536,0 2.26419,-0.647249 2.26419,-1.976 0,-2.20277 -2.93742,-1.49411 -2.93742,-2.73664 0,-0.568115 0.506697,-0.794888 1.01339,-0.794888 0.428744,0 0.848038,0.157088 1.08426,0.48898l0.804337 -0.848038zm1.32521 2.64097c0,1.9323 1.36418,3.22562 3.26932,3.22562 1.9323,-0.0342522 3.29648,-1.32875 3.29648,-3.26105 0,-1.98427 -1.36418,-3.27877 -3.29648,-3.24333 -1.90513,0 -3.26932,1.2945 -3.26932,3.27877zm1.15395 -0.0696856c0,-1.23308 0.848038,-2.21222 2.12482,-2.21222 1.28505,0 2.13309,0.979142 2.13309,2.21222 0,1.3193 -0.848038,2.29844 -2.13309,2.29844 -1.27678,0 -2.12482,-0.979142 -2.12482,-2.29844zm1.72206 -3.47129l0.822054 0 1.2319 -1.25907 -1.1882 0 -0.865755 1.25907zm5.21579 6.6095l1.1008 0 0 -2.62325 0.804337 0 1.43387 2.62325 1.32875 0 -1.64293 -2.73664c0.917724,-0.131103 1.43387,-0.78662 1.43387,-1.67836 0,-1.39017 -1.11969,-1.77521 -2.30907,-1.77521l-2.14962 0 0 6.19021zm1.1008 -3.56696l0 -1.67836 0.953157 0c0.568115,0 1.2508,0.0874023 1.2508,0.822054 0,0.804337 -0.726384,0.856306 -1.34647,0.856306l-0.857487 0zm9.98866 -1.8012c-0.611816,-0.707486 -1.32875,-0.979142 -2.16734,-0.979142 -1.90631,0 -3.2705,1.2945 -3.2705,3.27877 0,1.9323 1.36418,3.22562 3.2705,3.22562 0.908275,0 1.74805,-0.331892 2.30789,-1.10198l-0.909456 -0.646068c-0.411027,0.524414 -0.891739,0.751187 -1.39017,0.751187 -1.27678,0 -2.12482,-0.979142 -2.12482,-2.29844 0,-1.23308 0.848038,-2.21222 2.12482,-2.21222 0.428744,0 0.848038,0.131103 1.30277,0.611816l0.856306 -0.629533zm1.33348 5.36815l1.10198 0 0 -6.19021 -1.10198 0 0 6.19021zm2.60199 -3.06853c0,1.9323 1.36418,3.22562 3.26932,3.22562 1.9323,-0.0342522 3.29648,-1.32875 3.29648,-3.26105 0,-1.98427 -1.36418,-3.27877 -3.29648,-3.24333 -1.90513,0 -3.26932,1.2945 -3.26932,3.27877zm1.15395 -0.0696856c0,-1.23308 0.848038,-2.21222 2.12482,-2.21222 1.28505,0 2.13309,0.979142 2.13309,2.21222 0,1.3193 -0.848038,2.29844 -2.13309,2.29844 -1.27678,0 -2.12482,-0.979142 -2.12482,-2.29844zm10.7753 -2.57128c-0.480712,-0.453547 -1.12796,-0.6378 -1.77521,-0.6378 -1.1445,0 -2.28073,0.594099 -2.28073,1.87088 0,2.21222 2.93742,1.43387 2.93742,2.7886 0,0.569296 -0.577564,0.848038 -1.08426,0.848038 -0.490161,0 -0.953157,-0.235041 -1.22363,-0.646068l-0.831503 0.804337c0.507878,0.602367 1.25907,0.838589 2.02915,0.838589 1.21418,0 2.26419,-0.647249 2.26419,-1.976 0,-2.20277 -2.93742,-1.49411 -2.93742,-2.73664 0,-0.568115 0.506697,-0.794888 1.01339,-0.794888 0.428744,0 0.848038,0.157088 1.08426,0.48898l0.804337 -0.848038z"/>
  </g>
 </g>
</svg>
