<?xml version="1.0" encoding="UTF-8"?>
<!DOCTYPE svg PUBLIC "-//W3C//DTD SVG 1.1//EN" "http://www.w3.org/Graphics/SVG/1.1/DTD/svg11.dtd">
<!-- Creator: CorelDRAW X5 -->
<svg xmlns="http://www.w3.org/2000/svg" xml:space="preserve" width="147px" height="30px" style="shape-rendering:geometricPrecision; text-rendering:geometricPrecision; image-rendering:optimizeQuality; fill-rule:evenodd; clip-rule:evenodd"
viewBox="0 0 147 30"
 xmlns:xlink="http://www.w3.org/1999/xlink">
 <defs>
  <style type="text/css">
   <![CDATA[
    .fil0 {fill:#373435}
    .fil1 {fill:#939598}
   ]]>
  </style>
 </defs>
 <g id="Camada_x0020_1">
  <metadata id="CorelCorpID_0Corel-Layer"/>
  <g id="_448882128">
   <path id="_448882416" class="fil0" d="M87.1937 9.98504l3.54685 0c2.15079,0 3.02244,0.735827 3.02244,2.61614 0,1.87913 -0.871654,2.59606 -3.02244,2.59606l-3.54685 0 0 -5.2122zm3.33307 6.45236l3.31417 5.33031 1.76339 0 -3.4878 -5.50394c2.22874,-0.232677 3.21732,-1.37598 3.21732,-3.6626 0,-2.73307 -1.29921,-3.8563 -4.41969,-3.8563l-5.91142 0 -0.134646 0.716929 0.581102 0.251575c0.135827,0.057874 0.193701,0.115748 0.193701,0.251575l0 11.8028 1.55079 0 0 -5.33031 3.33307 0zm5.83819 0.62126c0,3.4878 1.51181,4.94173 5.05866,4.94173 1.14331,0 2.17087,-0.135827 3.12047,-0.446457l0 -1.24016c-1.00748,0.31063 -1.99606,0.465354 -3.00472,0.465354 -2.53819,0 -3.56575,-0.930709 -3.6437,-3.2752l6.99685 0c0.0200787,-0.174803 0.0200787,-0.387402 0.0200787,-0.601181 0,-3.35197 -1.20236,-4.78583 -4.07008,-4.78583 -3.14055,0 -4.47756,1.47283 -4.47756,4.94173zm4.47756 -3.8185c1.80236,0 2.53819,0.91063 2.57717,3.19724l-5.52402 0c0.0590551,-2.24764 0.930709,-3.19724 2.94685,-3.19724zm14.152 2.61614c0,-2.65512 -1.04646,-3.73937 -3.6437,-3.73937 -1.39488,0 -2.40236,0.464173 -3.06142,1.08425l0 -0.659055c0,-0.154724 -0.0389764,-0.193701 -0.174803,-0.193701l-1.95709 0 -0.154724 0.794882 0.581102 0.251575c0.135827,0.0590551 0.154724,0.116929 0.154724,0.271654l0 8.10118 1.55079 0 0 -7.6748c0.406299,-0.290551 1.56969,-0.698031 2.79094,-0.698031 1.68543,0 2.36457,0.679134 2.36457,2.50039l0 5.67874c0,0.154724 0.0389764,0.193701 0.173622,0.193701l1.95827 0 0.154724 -0.794882 -0.581102 -0.251575c-0.135827,-0.0590551 -0.155906,-0.116929 -0.155906,-0.271654l0 -4.59331zm8.37756 2.96575c0,1.41378 -0.81378,2.05394 -2.67402,2.05394 -1.62874,0 -2.34567,-0.523228 -2.34567,-1.66654 0,-1.20118 0.737008,-1.66654 2.50039,-1.66654 0.930709,0 1.78346,0.134646 2.51929,0.426378l0 0.852756zm0.290551 2.78976c0.0200787,0.155906 0.057874,0.155906 0.174803,0.155906l1.60866 0 0.154724 -0.794882 -0.581102 -0.251575c-0.135827,-0.0590551 -0.154724,-0.116929 -0.154724,-0.271654l0 -4.74803c0,-2.51929 -1.22126,-3.58465 -4.12795,-3.58465 -1.10551,0 -2.11299,0.154724 -3.08268,0.445276l0 1.24016c0.969685,-0.309449 1.95827,-0.465354 2.90787,-0.465354 1.99606,0 2.80984,0.640157 2.80984,2.24764l0 1.29921c-0.793701,-0.271654 -1.74449,-0.40748 -2.75197,-0.40748 -2.63622,0 -3.79843,0.852756 -3.79843,2.75197 0,1.89921 1.12441,2.77205 3.58583,2.77205 1.53071,0 2.59606,-0.388583 3.17835,-1.20236l0.0767717 0.81378zm5.14134 -9.06969c0,-0.154724 -0.0389764,-0.193701 -0.174803,-0.193701l-1.97717 0 -0.135827 0.814961 0.601181 0.290551c0.0779528,0.0389764 0.135827,0.0968504 0.135827,0.173622l0 4.55433c0,2.69409 1.22126,3.8185 4.12795,3.8185 2.90787,0 4.12795,-1.12441 4.12795,-3.8185l0 -5.83346 -1.54961 0 0 5.71772c0,1.91811 -0.755906,2.69291 -2.57835,2.69291 -1.84134,0 -2.57717,-0.774803 -2.57717,-2.69291l0 -5.52402zm10.5083 -4.2248c0,-0.154724 -0.0377953,-0.193701 -0.173622,-0.193701l-1.95709 0 -0.155906 0.794882 0.582283 0.251575c0.134646,0.0590551 0.154724,0.116929 0.154724,0.271654l0 12.1323c0,0.154724 0.0389764,0.193701 0.173622,0.193701l1.95827 0 0.154724 -0.794882 -0.581102 -0.251575c-0.135827,-0.0590551 -0.155906,-0.116929 -0.155906,-0.271654l0 -12.1323zm2.7189 10.6205c0,2.15079 0.968504,3.0626 3.17835,3.0626 0.581102,0 1.12441,-0.0590551 1.60866,-0.174803l0 -1.24016c-0.445276,0.0968504 -0.91063,0.173622 -1.37598,0.173622 -1.29921,0 -1.86024,-0.542126 -1.86024,-1.87913l0 -5.31024 3.23622 0 0 -1.22126 -3.23622 0 0 -2.80984 -1.55079 0 0 2.80984 -1.16339 0 -0.135827 0.852756 1.10551 0.31063c0.193701,0.057874 0.193701,0.0779528 0.193701,0.290551l0 5.13543z"/>
   <path id="_448882272" class="fil1" d="M0.18189 15.1323c0,4.74803 1.86024,6.74409 6.20197,6.74409 1.31811,0 2.53937,-0.155906 3.68268,-0.485433l0 -1.31693c-1.12441,0.329528 -2.26772,0.50315 -3.4689,0.50315 -3.37323,0 -4.76811,-1.56969 -4.76811,-5.44488 0,-3.87638 1.39488,-5.44606 4.76811,-5.44606 1.20118,0 2.36339,0.174803 3.33307,0.465354l0.232677 -1.26024c-0.620079,-0.212598 -2.09291,-0.50315 -3.77953,-0.50315 -4.34173,0 -6.20197,1.99606 -6.20197,6.74409zm10.878 1.80236c0,3.4878 1.39488,4.94173 4.65118,4.94173 3.2563,0 4.63228,-1.45394 4.63228,-4.94173 0,-3.4689 -1.37598,-4.94173 -4.63228,-4.94173 -3.2563,0 -4.65118,1.47283 -4.65118,4.94173zm1.58858 0c0,-2.63622 0.891732,-3.70157 3.0626,-3.70157 2.15079,0 3.04252,1.06535 3.04252,3.70157 0,2.63504 -0.891732,3.70157 -3.04252,3.70157 -2.17087,0 -3.0626,-1.06654 -3.0626,-3.70157zm17.8157 -1.20236c0,-2.65512 -1.04646,-3.73937 -3.6437,-3.73937 -1.39488,0 -2.40236,0.464173 -3.06142,1.08425l0 -0.659055c0,-0.154724 -0.0389764,-0.193701 -0.174803,-0.193701l-1.95709 0 -0.155906 0.794882 0.582283 0.251575c0.135827,0.0590551 0.154724,0.116929 0.154724,0.271654l0 8.10118 1.55079 0 0 -7.6748c0.406299,-0.290551 1.56969,-0.698031 2.79094,-0.698031 1.68543,0 2.36339,0.679134 2.36339,2.50039l0 5.67874c0,0.154724 0.0389764,0.193701 0.174803,0.193701l1.95827 0 0.154724 -0.794882 -0.582283 -0.251575c-0.134646,-0.0590551 -0.154724,-0.116929 -0.154724,-0.271654l0 -4.59331zm1.86614 -1.02638c0,3.72047 5.67756,1.80236 5.67756,4.34055 0,1.02756 -0.755906,1.62756 -2.40236,1.62756 -1.08543,0 -2.15197,-0.173622 -3.17953,-0.523228l0 1.26024c0.988583,0.309449 2.09409,0.465354 3.29528,0.465354 2.40354,0 3.77953,-0.969685 3.77953,-2.84882 0,-3.77953 -5.67874,-2.05512 -5.67874,-4.34173 0,-0.968504 0.737008,-1.49173 2.32559,-1.49173 0.949606,0 1.82126,0.135827 2.71299,0.426378l0.252756 -1.20236c-2.22165,-0.634252 -6.78307,-1.02756 -6.78307,2.2878zm8.47323 2.22874c0,3.4878 1.39606,4.94173 4.65118,4.94173 3.2563,0 4.63228,-1.45394 4.63228,-4.94173 0,-3.4689 -1.37598,-4.94173 -4.63228,-4.94173 -3.25512,0 -4.65118,1.47283 -4.65118,4.94173zm1.58976 0c0,-2.63622 0.891732,-3.70157 3.06142,-3.70157 2.15197,0 3.0437,1.06535 3.0437,3.70157 0,2.63504 -0.891732,3.70157 -3.0437,3.70157 -2.16969,0 -3.06142,-1.06654 -3.06142,-3.70157zm6.06614 -8.93386l-1.68661 0 -2.34449 2.71299 1.43386 0 2.59724 -2.71299zm3.4937 13.6429l1.54961 0 0 -7.3063c0.679134,-0.562205 1.47283,-1.02756 2.82992,-1.02756 0.348425,0 0.640157,0.0590551 0.871654,0.116929l0.271654 -1.35709c-1.47165,-0.266929 -3.01417,0.0814961 -3.97323,1.29921l0 -0.950787c0,-0.154724 -0.0377953,-0.193701 -0.173622,-0.193701l-1.95827 0 -0.154724 0.794882 0.581102 0.251575c0.135827,0.0590551 0.155906,0.116929 0.155906,0.271654l0 8.10118zm5.37283 -4.70906c0,3.4878 1.39488,4.94173 4.65118,4.94173 1.02756,0 1.93819,-0.116929 2.75197,-0.368504l0 -1.26024c-0.794882,0.252756 -1.64646,0.388583 -2.53819,0.388583 -2.32677,0 -3.2752,-1.06654 -3.2752,-3.70157 0,-2.63622 0.948425,-3.70157 3.2752,-3.70157 1.08543,0 1.84016,0.173622 2.38346,0.367323l0.251575 -1.20118c-0.523228,-0.193701 -1.47283,-0.406299 -2.84882,-0.406299 -3.2563,0 -4.65118,1.47283 -4.65118,4.94173zm8.57126 -3.91535l0.581102 0.251575c0.135827,0.0590551 0.154724,0.116929 0.154724,0.271654l0 8.10118 1.55079 0 0 -9.22559c0,-0.154724 -0.0389764,-0.193701 -0.174803,-0.193701l-1.95709 0 -0.154724 0.794882zm0.464173 -3.6626c0,0.677953 0.291732,0.969685 1.00866,0.969685 0.698031,0 1.00748,-0.291732 1.00748,-0.969685 0,-0.698031 -0.309449,-0.988583 -1.00748,-0.988583 -0.716929,0 -1.00866,0.290551 -1.00866,0.988583zm3.62953 7.57795c0,3.4878 1.39606,4.94173 4.65118,4.94173 3.2563,0 4.63228,-1.45394 4.63228,-4.94173 0,-3.4689 -1.37598,-4.94173 -4.63228,-4.94173 -3.25512,0 -4.65118,1.47283 -4.65118,4.94173zm1.58976 0c0,-2.63622 0.890551,-3.70157 3.06142,-3.70157 2.15197,0 3.0437,1.06535 3.0437,3.70157 0,2.63504 -0.891732,3.70157 -3.0437,3.70157 -2.17087,0 -3.06142,-1.06654 -3.06142,-3.70157z"/>
  </g>
 </g>
</svg>
