<svg width="79" height="52" viewBox="0 0 79 52" fill="none" xmlns="http://www.w3.org/2000/svg">
<path d="M34.6134 3.06065C35.0097 3.09188 35.4024 2.96674 35.705 2.71276C36.0077 2.45877 36.1955 2.09675 36.2272 1.70633C36.2589 1.3159 36.1319 0.929048 35.8741 0.630892C35.6162 0.332737 35.2488 0.14771 34.8525 0.116477C15.0682 -1.31636 7.93561 10.8136 5.52484 17.6245L0.942291 15.6617L4.38917 24.5923L13.4544 21.2164L8.19455 18.8807C10.167 12.8353 16.3434 1.6867 34.6134 3.06065Z" fill="#152536"/>
<path d="M74.6201 27.4785L65.6145 30.8741L70.8744 33.2098C68.882 39.0982 62.7455 50.3253 44.4556 48.9121C44.0614 48.8898 43.6736 49.0183 43.3731 49.2705C43.0725 49.5228 42.8821 49.8794 42.8418 50.2664C42.8282 50.4598 42.8536 50.654 42.9164 50.8377C42.9793 51.0214 43.0783 51.1911 43.2079 51.337C43.3375 51.4829 43.4951 51.6022 43.6716 51.6879C43.8481 51.7737 44.0401 51.8241 44.2364 51.8366C64.0207 53.2891 71.1334 41.1591 73.5441 34.3483L78.1267 36.311L74.6201 27.4785Z" fill="#152536"/>
<path d="M59.1394 31.5415C59.0689 31.7251 58.9604 31.8922 58.8207 32.0322C58.6762 32.1718 58.5075 32.2848 58.3226 32.3658C58.1403 32.4441 57.9435 32.4842 57.7447 32.4836H53.76C53.5049 32.0382 53.19 31.6289 52.8236 31.2667C51.9836 30.4411 50.9172 29.8748 49.7553 29.6375C48.5961 29.4174 47.3968 29.5403 46.3085 29.9908C45.5281 30.2982 44.8223 30.7643 44.2371 31.3586C43.6519 31.9529 43.2006 32.662 42.9125 33.4398C42.6244 34.2176 42.5061 35.0465 42.5652 35.8725C42.6243 36.6984 42.8594 37.5027 43.2554 38.233C43.6514 38.9633 44.1994 39.6031 44.8634 40.1107C45.5274 40.6183 46.2926 40.9821 47.109 41.1786C47.9255 41.3751 48.7748 41.3997 49.6016 41.2509C50.4283 41.1022 51.2139 40.7832 51.9071 40.3151C52.8918 39.6729 53.6613 38.7577 54.1186 37.685C54.4113 36.9676 54.5602 36.201 54.557 35.4278H57.8245C58.3991 35.4252 58.9676 35.3119 59.498 35.0941C60.0237 34.8779 60.4985 34.5572 60.8927 34.152C61.3099 33.761 61.6362 33.2856 61.849 32.7584C62.0543 32.2388 62.1624 31.6868 62.1678 31.1293V29.0291C62.1733 27.3905 61.5245 25.8155 60.3615 24.6441C59.1985 23.4726 57.6146 22.7987 55.9516 22.7678L52.5048 22.6304C50.6718 20.0591 44.2165 11.8351 35.9681 10.8537C25.1894 9.67601 21.4637 14.7793 20.2085 18.0179C19.8541 19.0596 19.5941 20.1303 19.4315 21.2172H18.7142C18.1418 21.2228 17.575 21.3291 17.0406 21.5312C16.5114 21.7428 16.0304 22.0565 15.626 22.4538C15.2252 22.8583 14.9014 23.3303 14.6697 23.8474C14.455 24.3712 14.3467 24.9313 14.3509 25.4961V30.933C14.3509 32.0731 14.8106 33.1663 15.6289 33.9725C16.4472 34.7786 17.557 35.2315 18.7142 35.2315C18.7142 35.2315 18.7142 35.2315 18.7142 35.2315C18.7036 35.3163 18.7036 35.402 18.7142 35.4867C18.7174 36.5502 19.0128 37.593 19.5692 38.5043C20.1257 39.4157 20.9223 40.1615 21.8744 40.6627C22.8265 41.1639 23.8987 41.4017 24.977 41.3509C26.0553 41.3 27.0994 40.9625 27.9986 40.374C28.8533 39.8245 29.5475 39.0646 30.0123 38.1695C30.4771 37.2744 30.6964 36.275 30.6485 35.2707V35.2707H42.6027C42.5641 34.2329 42.8416 33.2075 43.3996 32.3265H29.7519C29.7485 32.3985 29.7485 32.4706 29.7519 32.5425C29.4901 32.0734 29.1614 31.6437 28.7757 31.2667C27.9357 30.4411 26.8692 29.8748 25.7074 29.6375C24.5482 29.4174 23.3489 29.5403 22.2606 29.9908C21.1671 30.4327 20.2311 31.1841 19.5709 32.15C19.1408 32.7933 18.8429 33.5135 18.6943 34.2698C18.7967 33.5803 19.0262 32.9151 19.3716 32.307H18.5748C18.1713 32.307 17.7841 32.1505 17.497 31.8713C17.2098 31.5921 17.0458 31.2127 17.0406 30.8153V25.5157C17.0503 25.1331 17.207 24.7683 17.479 24.4951C17.6129 24.3562 17.7734 24.2449 17.9512 24.1674C18.129 24.0899 18.3206 24.0479 18.5149 24.0436H19.6107H20.0292L55.6926 25.4764C56.619 25.4895 57.5044 25.8553 58.1631 26.4971C58.498 26.8167 58.7566 27.2056 58.9202 27.6356C59.0959 28.0522 59.1841 28.4995 59.1793 28.9506V30.9134C59.2148 31.123 59.2011 31.3379 59.1394 31.5415V31.5415ZM50.6319 37.4298C50.0696 37.9785 49.3115 38.2885 48.52 38.2935C47.9227 38.2931 47.3395 38.1152 46.8465 37.7831C46.3537 37.4651 45.9713 37.0063 45.7507 36.4681C45.5279 35.9268 45.4725 35.3327 45.5913 34.7605C45.7108 34.1957 45.995 33.6776 46.4091 33.2697C46.8232 32.8618 47.3491 32.5817 47.9223 32.4639C48.5033 32.348 49.1059 32.4027 49.6557 32.621C50.1988 32.8436 50.6631 33.2191 50.9905 33.7005C51.3276 34.1862 51.5082 34.7609 51.5086 35.3493C51.5166 35.7487 51.4432 36.1455 51.2926 36.5164C51.142 36.8873 50.9173 37.2246 50.6319 37.5083V37.4298ZM21.7824 34.839C21.902 34.2742 22.1862 33.7561 22.6002 33.3482C23.0143 32.9403 23.5402 32.6603 24.1135 32.5425C24.6944 32.4266 25.2971 32.4811 25.8468 32.6995C26.3899 32.9221 26.8544 33.2977 27.1818 33.7791C27.5189 34.2648 27.6993 34.8394 27.6997 35.4278C27.6997 36.2086 27.3849 36.9575 26.8244 37.5096C26.264 38.0618 25.5038 38.3719 24.7112 38.3719C24.1139 38.3716 23.5307 38.1937 23.0377 37.8616C22.5448 37.5436 22.1625 37.0847 21.9419 36.5466C21.7191 36.0053 21.6636 35.4112 21.7824 34.839V34.839ZM22.44 21.4135C22.6484 19.5177 23.4893 17.7437 24.8308 16.3692C27.0822 14.1513 30.8078 13.3072 35.6692 13.8568C41.2279 14.4653 46.1092 19.3919 48.6395 22.4734L22.44 21.4135Z" fill="#152536"/>
</svg>
