<svg width="53" height="45" viewBox="0 0 53 45" fill="none" xmlns="http://www.w3.org/2000/svg">
<path d="M42.9126 22.4094C42.5729 22.2211 42.1739 22.1707 41.798 22.2686C41.4222 22.3664 41.0984 22.6051 40.8932 22.9353L32.4117 37.0926C32.2285 37.4339 32.1809 37.8319 32.2783 38.2069C32.3756 38.5819 32.6108 38.9063 32.9367 39.115C33.1755 39.2565 33.4469 39.3332 33.7243 39.3375C33.9863 39.3372 34.2437 39.268 34.4705 39.1366C34.6974 39.0053 34.8858 38.8164 35.0168 38.5892L43.4982 24.4319C43.681 24.0844 43.7222 23.6796 43.613 23.3024C43.5038 22.9252 43.2527 22.605 42.9126 22.4094V22.4094Z" fill="#152536"/>
<path d="M36.491 26.5551C36.491 25.9951 36.3251 25.4476 36.0145 24.982C35.7038 24.5163 35.2623 24.1534 34.7457 23.9391C34.2291 23.7248 33.6606 23.6688 33.1122 23.778C32.5637 23.8873 32.06 24.1569 31.6646 24.5529C31.2693 24.9489 30.9999 25.4535 30.8908 26.0027C30.7818 26.552 30.8378 27.1212 31.0518 27.6386C31.2658 28.156 31.6282 28.5983 32.0931 28.9094C32.558 29.2205 33.1046 29.3865 33.6637 29.3865C34.4135 29.3865 35.1327 29.0882 35.6629 28.5572C36.1931 28.0262 36.491 27.3061 36.491 26.5551V26.5551Z" fill="#152536"/>
<path d="M42.1452 32.2178C41.586 32.2178 41.0395 32.3838 40.5745 32.6949C40.1096 33.0061 39.7472 33.4484 39.5333 33.9658C39.3193 34.4832 39.2632 35.0524 39.3723 35.6016C39.4814 36.1509 39.7507 36.6555 40.1461 37.0515C40.5415 37.4474 41.0452 37.7171 41.5936 37.8263C42.142 37.9356 42.7105 37.8795 43.2271 37.6652C43.7437 37.4509 44.1852 37.088 44.4959 36.6224C44.8066 36.1567 44.9724 35.6092 44.9724 35.0492C44.9751 34.6767 44.9038 34.3073 44.7626 33.9626C44.6215 33.6178 44.4134 33.3045 44.1503 33.0411C43.8872 32.7776 43.5745 32.5692 43.2303 32.4278C42.8861 32.2865 42.5172 32.2152 42.1452 32.2178V32.2178Z" fill="#152536"/>
<path d="M39.2171 17.1911C38.7317 13.4302 37.1738 9.88933 34.7301 6.99269C32.2864 4.09604 29.0605 1.96644 25.4391 0.85923C21.8177 -0.247983 17.9543 -0.285895 14.3118 0.749983C10.6694 1.78586 7.40248 3.85166 4.90252 6.69976C2.40257 9.54786 0.7757 13.0575 0.21672 16.808C-0.342261 20.5586 0.190464 24.3911 1.751 27.8462C3.31154 31.3013 5.83371 34.2324 9.01531 36.2884C12.1969 38.3444 15.9029 39.4381 19.6894 39.4383C21.9289 39.4368 24.1507 39.0397 26.2525 38.2652C27.4815 40.3036 29.2129 41.9915 31.2807 43.1668C33.3484 44.3422 35.683 44.9656 38.0606 44.9772C40.4381 44.9889 42.7788 44.3885 44.858 43.2335C46.9372 42.0785 48.685 40.4077 49.9339 38.3815C51.1828 36.3553 51.8908 34.0416 51.9899 31.6625C52.0891 29.2834 51.5762 26.9188 50.5003 24.7954C49.4243 22.6719 47.8216 20.8611 45.8458 19.5366C43.87 18.2121 41.5873 17.4183 39.2171 17.2314V17.1911ZM24.96 35.4944C21.7132 36.5771 18.2123 36.6322 14.9332 35.6522C11.654 34.6722 8.75563 32.7048 6.63217 30.0172C4.50871 27.3296 3.26319 24.0524 3.06478 20.6309C2.86638 17.2095 3.7247 13.8098 5.52324 10.8941C7.32177 7.97837 9.97316 5.68805 13.117 4.33449C16.2609 2.98093 19.7447 2.62982 23.0948 3.32881C26.4449 4.0278 29.4989 5.74302 31.8415 8.2413C34.1841 10.7396 35.7016 13.8998 36.188 17.2922V17.2922C35.8011 17.3399 35.4169 17.4074 35.0369 17.4944V17.4944C31.5044 18.3267 28.4338 20.5026 26.4746 23.5618C26.2161 22.3434 25.5782 21.2385 24.6529 20.4063C23.7275 19.574 22.5623 19.0573 21.3251 18.9304V12.2966C22.0209 12.7154 22.5956 13.309 22.9922 14.0184C23.3889 14.7278 23.5939 15.5285 23.5868 16.3416C23.5868 16.5398 23.6261 16.7361 23.7024 16.919C23.7788 17.1019 23.8907 17.2679 24.0316 17.4071C24.1726 17.5464 24.3397 17.6561 24.5233 17.7302C24.707 17.8042 24.9034 17.841 25.1014 17.8383C25.5031 17.8383 25.8883 17.6784 26.1723 17.3939C26.4564 17.1094 26.6159 16.7237 26.6159 16.3214C26.6527 14.6948 26.1548 13.1011 25.1989 11.7856C24.2429 10.47 22.8819 9.50555 21.3251 9.04046V6.75506C21.3251 6.35277 21.1655 5.96694 20.8815 5.68247C20.5974 5.39801 20.2122 5.23821 19.8105 5.23821C19.4088 5.23821 19.0236 5.39801 18.7396 5.68247C18.4555 5.96694 18.296 6.35277 18.296 6.75506V8.77753C16.7954 8.91986 15.4106 9.64603 14.4389 10.8C13.4673 12.0611 12.9544 13.6164 12.9849 15.209C12.8932 16.7638 13.3883 18.2964 14.3721 19.5027C15.3559 20.7089 16.7565 21.5009 18.296 21.7214V28.3147C17.6175 27.885 17.0617 27.2864 16.683 26.5775C16.3043 25.8686 16.1156 25.0735 16.1352 24.2697C16.1352 23.8674 15.9756 23.4816 15.6916 23.1971C15.4075 22.9127 15.0223 22.7529 14.6206 22.7529C14.2189 22.7529 13.8337 22.9127 13.5496 23.1971C13.2656 23.4816 13.106 23.8674 13.106 24.2697C13.0629 25.8835 13.5461 27.4673 14.4827 28.7812C15.4192 30.095 16.758 31.0673 18.296 31.5506V33.5731C18.296 33.9754 18.4555 34.3612 18.7396 34.6456C19.0236 34.9301 19.4088 35.0899 19.8105 35.0899C20.2122 35.0899 20.5974 34.9301 20.8815 34.6456C21.1655 34.3612 21.3251 33.9754 21.3251 33.5731V31.7124C22.4274 31.6104 23.4779 31.1965 24.3542 30.5191V30.7012C24.358 31.3784 24.4121 32.0544 24.5158 32.7237V33.1079C24.6275 33.7448 24.7827 34.3732 24.9802 34.9888C24.9802 34.9888 24.9398 35.454 24.96 35.4944V35.4944ZM23.5868 25.5439C23.6466 26.3092 23.4426 27.0719 23.009 27.7049C22.5754 28.3379 21.9384 28.8029 21.2039 29.0225V22.0854C21.9347 22.3044 22.5691 22.7664 23.0023 23.3952C23.4356 24.0239 23.6418 24.7819 23.5868 25.5439V25.5439ZM18.1748 11.9933V18.8899C17.4972 18.6041 16.919 18.1246 16.5123 17.5112C16.1057 16.8978 15.8888 16.1779 15.8888 15.4417C15.8888 14.7054 16.1057 13.9854 16.5123 13.372C16.919 12.7587 17.4972 12.2791 18.1748 11.9933V11.9933ZM38.1064 41.9259C35.9935 41.9196 33.9282 41.2963 32.1636 40.1324C30.3989 38.9685 29.0114 37.3146 28.1709 35.3731L28.07 35.1304C27.8273 34.535 27.638 33.919 27.5045 33.2899C27.5045 33.2899 27.5045 33.1686 27.5045 33.0877C27.3764 32.421 27.3088 31.7441 27.3026 31.0652V31.0652C27.3035 30.3382 27.3779 29.6131 27.5247 28.9012C27.6491 28.2542 27.8455 27.6234 28.1103 27.0203C28.1103 27.0203 28.1103 27.0203 28.1103 26.8989C29.1647 24.4118 31.0993 22.4024 33.5425 21.2563L33.7849 21.1147C34.3098 20.9001 34.8499 20.7243 35.4005 20.5888L35.7841 20.4675C36.3877 20.3325 37.0034 20.258 37.6218 20.245H37.9448H38.268C41.0659 20.3828 43.7025 21.5976 45.6275 23.6359C47.5524 25.6741 48.6169 28.3781 48.5987 31.1836C48.5804 33.9891 47.4809 36.679 45.5296 38.6919C43.5783 40.7049 40.9261 41.8853 38.1266 41.9866L38.1064 41.9259Z" fill="#152536"/>
</svg>
