<svg width="44" height="56" viewBox="0 0 44 56" fill="none" xmlns="http://www.w3.org/2000/svg">
<path d="M26.8554 15.3555C27.9803 14.4435 28.8891 13.2879 29.5151 11.9736C30.1411 10.6593 30.4684 9.2197 30.4728 7.76053C30.4728 2.13156 29.6349 0 20.7651 0C11.8954 0 11.0574 2.06948 11.0574 7.76053C11.0619 9.25228 11.403 10.7232 12.0547 12.061C12.7065 13.3989 13.6516 14.5682 14.8178 15.4796C5.78454 18.5011 0.0417095 28.1242 0.0417095 37.2506C-0.00812963 39.6643 0.424151 42.0635 1.31268 44.3039C2.2012 46.5443 3.52759 48.5798 5.21227 50.2882C9.0136 54.0133 14.6953 56 21.6644 56C28.6335 56 34.1311 54.0546 37.8916 50.3917C39.5711 48.7095 40.8954 46.6993 41.7843 44.483C42.6731 42.2667 43.1079 39.8905 43.0621 37.4989C43.0472 32.54 41.4662 27.7159 38.5503 23.7319C35.6344 19.7478 31.5364 16.8127 26.8554 15.3555ZM14.0821 7.76053C14.0821 3.62158 14.0821 3.10421 20.7242 3.10421C27.3663 3.10421 27.3663 3.5388 27.3663 7.76053C27.3663 9.54432 26.6665 11.2551 25.4209 12.5164C24.1752 13.7777 22.4858 14.4863 20.7242 14.4863C18.9626 14.4863 17.2732 13.7777 16.0275 12.5164C14.7819 11.2551 14.0821 9.54432 14.0821 7.76053V7.76053ZM35.7252 48.1567C32.537 51.2609 27.6729 52.8958 21.6235 52.8958C15.574 52.8958 10.526 51.2194 7.31737 48.0532C5.92215 46.6387 4.82579 44.9516 4.09498 43.0944C3.36418 41.2373 3.01417 39.249 3.06638 37.2506C3.06638 27.7517 10.1581 17.5905 20.7242 17.5905C32.2304 17.5905 39.9556 27.9379 39.9556 37.4989C40.0053 39.4736 39.6557 41.4377 38.9281 43.2705C38.2006 45.1033 37.1107 46.7662 35.7252 48.1567Z" fill="#152536"/>
<path d="M23.0328 33.1733V26.3853C23.7442 26.8059 24.3315 27.4114 24.734 28.1392C25.1365 28.8669 25.3394 29.6904 25.3218 30.5243C25.3218 30.9359 25.4833 31.3307 25.7707 31.6218C26.0582 31.9129 26.448 32.0764 26.8546 32.0764C27.2611 32.0764 27.651 31.9129 27.9384 31.6218C28.2259 31.3307 28.3874 30.9359 28.3874 30.5243C28.4291 28.8564 27.9274 27.2209 26.9596 25.8706C25.9918 24.5203 24.6118 23.5303 23.0328 23.0535V20.7357C23.0328 20.3241 22.8713 19.9293 22.5839 19.6382C22.2964 19.3471 21.9065 19.1836 21.5 19.1836C21.0935 19.1836 20.7036 19.3471 20.4162 19.6382C20.1287 19.9293 19.9672 20.3241 19.9672 20.7357V22.8052C19.2171 22.8733 18.4877 23.0913 17.8212 23.4465C17.1547 23.8017 16.5643 24.2871 16.0841 24.8747C15.0978 26.1726 14.5723 27.7692 14.5922 29.4068C14.4951 30.9965 14.9952 32.5646 15.992 33.7966C16.9889 35.0286 18.4089 35.8335 19.9672 36.0497V42.9411C19.2833 42.4985 18.7231 41.8855 18.3403 41.1608C17.9574 40.4361 17.7646 39.6239 17.7804 38.8022C17.7804 38.3905 17.6189 37.9957 17.3315 37.7047C17.044 37.4136 16.6542 37.2501 16.2476 37.2501C15.8411 37.2501 15.4512 37.4136 15.1638 37.7047C14.8763 37.9957 14.7148 38.3905 14.7148 38.8022C14.679 40.4492 15.1715 42.0635 16.1185 43.403C17.0655 44.7426 18.416 45.7351 19.9672 46.2317V48.3011C19.9672 48.7128 20.1287 49.1074 20.4162 49.3985C20.7036 49.6896 21.0935 49.8532 21.5 49.8532C21.9065 49.8532 22.2964 49.6896 22.5839 49.3985C22.8713 49.1074 23.0328 48.7128 23.0328 48.3011V46.3971C23.8182 46.3563 24.5868 46.1514 25.2902 45.7952C25.9936 45.4391 26.6167 44.9394 27.1203 44.3276C28.1066 43.0297 28.6321 41.4331 28.6121 39.7955C28.6944 38.1787 28.1621 36.5914 27.1244 35.3597C26.0867 34.1281 24.6225 33.3457 23.0328 33.1733V33.1733ZM19.9672 33.0284C19.283 32.7319 18.6997 32.2385 18.2899 31.6094C17.88 30.9803 17.6614 30.2432 17.6614 29.4895C17.6614 28.7359 17.88 27.9987 18.2899 27.3697C18.6997 26.7406 19.283 26.2472 19.9672 25.9507V33.0284ZM23.0328 43.3758V36.2981C23.741 36.5714 24.3505 37.0562 24.7805 37.6881C25.2106 38.3201 25.4408 39.0695 25.4408 39.8369C25.4408 40.6044 25.2106 41.3538 24.7805 41.9857C24.3505 42.6177 23.741 43.1024 23.0328 43.3758V43.3758Z" fill="#152536"/>
</svg>
