<svg width="63" height="55" viewBox="0 0 63 55" fill="none" xmlns="http://www.w3.org/2000/svg">
<path d="M59.0301 41.9996L53.36 25.5996H36.66C36.3637 24.8628 35.9133 24.1979 35.339 23.6494C34.7646 23.101 34.0797 22.6816 33.33 22.4196V15.4196C35.1818 14.9571 36.8005 13.8333 37.8811 12.26C38.9617 10.6867 39.4295 8.77244 39.1965 6.87805C38.9635 4.98366 38.0457 3.2399 36.6161 1.97533C35.1864 0.710755 33.3437 0.0126953 31.435 0.0126953C29.5264 0.0126953 27.6836 0.710755 26.2539 1.97533C24.8243 3.2399 23.9065 4.98366 23.6735 6.87805C23.4405 8.77244 23.9083 10.6867 24.9889 12.26C26.0695 13.8333 27.6882 14.9571 29.54 15.4196V22.4696C28.8241 22.7434 28.1723 23.1617 27.6252 23.6985C27.078 24.2353 26.6474 24.879 26.36 25.5896H9.36002L3.69003 41.9996H3.05176e-05V43.8996C3.05176e-05 46.7799 1.14417 49.5422 3.18082 51.5788C5.21746 53.6154 7.97976 54.7596 10.86 54.7596C13.7403 54.7596 16.5026 53.6154 18.5392 51.5788C20.5759 49.5422 21.72 46.7799 21.72 43.8996V41.9996H17.84L13.41 29.3996H26.25C26.6157 30.5058 27.3208 31.4685 28.2652 32.1509C29.2095 32.8333 30.3449 33.2007 31.51 33.2007C32.6751 33.2007 33.8105 32.8333 34.7549 32.1509C35.6992 31.4685 36.4043 30.5058 36.77 29.3996H49.31L44.88 41.9996H41.15V43.8996C41.15 45.3258 41.4309 46.738 41.9767 48.0556C42.5224 49.3732 43.3224 50.5704 44.3308 51.5788C45.3393 52.5872 46.5364 53.3872 47.854 53.933C49.1716 54.4787 50.5839 54.7596 52.01 54.7596C53.4362 54.7596 54.8483 54.4787 56.1659 53.933C57.4835 53.3872 58.6808 52.5872 59.6892 51.5788C60.6977 50.5704 61.4976 49.3732 62.0434 48.0556C62.5891 46.738 62.87 45.3258 62.87 43.8996V41.9996H59.0301ZM10.86 50.9996C9.31952 50.9964 7.82212 50.4909 6.59494 49.5597C5.36776 48.6284 4.47779 47.3224 4.06003 45.8396H17.66C17.2328 47.3121 16.3386 48.6057 15.112 49.5256C13.8855 50.4455 12.3932 50.9418 10.86 50.9396V50.9996ZM13.76 41.8896H7.75998L10.76 33.2796L13.76 41.8896ZM27.41 7.88962C27.41 7.09849 27.6446 6.32514 28.0841 5.66734C28.5237 5.00955 29.1483 4.49686 29.8792 4.19411C30.6101 3.89136 31.4144 3.81214 32.1903 3.96648C32.9663 4.12082 33.679 4.50178 34.2384 5.06119C34.7978 5.6206 35.1788 6.33333 35.3332 7.10925C35.4875 7.88518 35.4082 8.68944 35.1055 9.42035C34.8027 10.1513 34.2901 10.776 33.6323 11.2155C32.9745 11.655 32.2011 11.8896 31.41 11.8896C30.8788 11.8897 30.3529 11.784 29.8629 11.5786C29.373 11.3732 28.9289 11.0723 28.5565 10.6934C28.1842 10.3145 27.891 9.86527 27.6942 9.37186C27.4973 8.87845 27.4007 8.35077 27.41 7.81963V7.88962ZM31.51 29.4496C31.1639 29.4496 30.8255 29.347 30.5378 29.1547C30.25 28.9624 30.0257 28.6891 29.8932 28.3693C29.7608 28.0495 29.7261 27.6977 29.7936 27.3582C29.8611 27.0187 30.0278 26.7069 30.2726 26.4622C30.5173 26.2174 30.8291 26.0508 31.1686 25.9832C31.5081 25.9157 31.8599 25.9504 32.1797 26.0828C32.4995 26.2153 32.7728 26.4396 32.9651 26.7274C33.1573 27.0152 33.26 27.3535 33.26 27.6996C33.2419 28.1515 33.0496 28.5788 32.7234 28.892C32.3971 29.2052 31.9622 29.38 31.51 29.3796V29.4496ZM51.98 33.2896L54.98 41.8996H48.98L51.98 33.2896ZM51.98 51.0096C50.4391 51.0081 48.9409 50.5031 47.7134 49.5717C46.4859 48.6402 45.5963 47.3332 45.18 45.8496H58.7801C58.3511 47.3144 57.4601 48.6014 56.2401 49.5186C55.0201 50.4359 53.5364 50.9343 52.01 50.9396L51.98 51.0096Z" fill="#152536"/>
</svg>
