<svg width="45" height="46" viewBox="0 0 45 46" fill="none" xmlns="http://www.w3.org/2000/svg">
<g clip-path="url(#clip0_534:1009)">
<path d="M44.4601 30.1928L41.452 26.9764C41.8278 25.6902 41.944 24.3422 41.7936 23.0108C41.6173 20.6646 41.0443 15.8178 40.7578 13.4715C41.0014 13.2506 41.2194 13.003 41.4079 12.7335C41.8011 12.0779 42.0558 11.3487 42.1563 10.5909C42.2567 9.83311 42.2008 9.06276 41.9919 8.3274C41.8844 7.66493 41.6308 7.03465 41.2497 6.48217C40.8686 5.92969 40.3694 5.46884 39.7882 5.13296C38.2806 4.44782 36.5653 4.37669 35.0061 4.93467L31.5242 5.83794C30.4224 4.63727 28.2186 2.291 27.238 1.43181C26.2158 0.570015 24.9273 0.0873213 23.5903 0.0652453C22.2533 0.0431694 20.9497 0.483063 19.8996 1.31064L19.2715 1.75124C16.7923 3.43659 14.4454 5.26514 13.2884 7.36907L12.5612 7.12673C12.0555 6.98441 11.5267 6.94338 11.005 7.00598C10.4834 7.06858 9.97923 7.2336 9.52157 7.49153C9.06391 7.74946 8.66174 8.09523 8.33813 8.50899C8.01453 8.92275 7.77588 9.39636 7.63589 9.9026C7.40438 10.5555 7.31425 11.2501 7.37145 11.9404C6.529 12.4086 5.86331 13.1399 5.47628 14.0223C5.08436 14.9046 4.98775 15.8897 5.20082 16.8312C4.37264 17.3802 3.75086 18.1893 3.43363 19.1307C3.1164 20.0722 3.12175 21.0924 3.44883 22.0305C2.79328 22.4837 2.27044 23.1035 1.9341 23.8259C1.59777 24.5484 1.4601 25.3474 1.5353 26.1406C1.6105 26.9339 1.8958 27.6928 2.3619 28.3392C2.82799 28.9857 3.458 29.4962 4.18706 29.8183L10.7101 32.7264C11.2875 32.977 11.9097 33.1082 12.5392 33.1119C13.0926 33.1113 13.6414 33.0105 14.1589 32.8145C15.1255 32.4389 15.9334 31.7424 16.4471 30.8418C16.9607 29.9412 17.1488 28.8914 16.9797 27.8686C17.9582 27.427 18.7418 26.6437 19.1834 25.6655C19.4739 25.0154 19.606 24.3057 19.5691 23.5946C20.368 23.2435 21.0473 22.6675 21.5244 21.937C22.0014 21.2064 22.2554 20.3528 22.2554 19.4804C22.2554 18.608 22.0014 17.7544 21.5244 17.0238C21.0473 16.2933 20.368 15.7173 19.5691 15.3662L19.0402 15.1349C20.6429 14.598 22.0351 13.5686 23.0179 12.1938L36.0308 8.83411C36.607 8.6704 37.2099 8.62173 37.8049 8.6909C37.9371 8.757 38.6974 9.95766 38.0804 10.4974C37.6061 10.6197 37.1928 10.9112 36.9188 11.3171C36.6448 11.7229 36.5288 12.215 36.5928 12.7005C36.5928 12.7776 37.5515 20.4112 37.7718 23.3743C37.9812 26.029 37.3641 26.5578 36.3504 27.1967C34.4662 28.3643 27.6898 32.0985 26.2133 32.7043C25.6293 32.9467 24.902 33.189 24.1858 33.4093C23.0168 33.7137 21.9018 34.1967 20.8803 34.8413C20.5439 35.1123 20.2239 35.4029 19.9217 35.7115L19.8005 35.8327C18.4452 37.1655 16.2635 39.4677 14.6107 41.2192L3.39375 31.3054C2.99485 30.9519 2.47178 30.7713 1.93969 30.8033C1.40759 30.8353 0.910042 31.0773 0.556442 31.4761C0.202842 31.8749 0.0221731 32.3978 0.0542021 32.9297C0.0862311 33.4616 0.328366 33.959 0.727263 34.3125L13.3656 45.4931C13.7572 45.842 14.2705 46.0225 14.7944 45.9957C15.3182 45.9689 15.8103 45.7369 16.1643 45.3499C18.2027 43.1468 20.4505 40.8006 21.8719 39.3466C22.692 39.4676 23.4971 39.6743 24.274 39.9634C24.8914 40.3377 25.4271 40.8321 25.8496 41.4174C27.6456 43.4333 28.3509 44.3585 28.3509 44.3585C28.5192 44.5811 28.731 44.7671 28.9735 44.9053C29.2159 45.0435 29.484 45.1311 29.7613 45.1627H29.9597C30.4548 45.1645 30.9332 44.9841 31.3039 44.6559L44.3278 33.0458C44.529 32.8681 44.6923 32.6516 44.8078 32.4094C44.9233 32.1671 44.9886 31.904 45 31.6358C45.0146 31.1029 44.821 30.5853 44.4601 30.1928ZM7.19518 20.6756C7.17091 20.62 7.15833 20.56 7.15833 20.4993C7.15833 20.4387 7.17091 20.3787 7.19518 20.3231C7.21912 20.2647 7.25502 20.2121 7.30057 20.1684C7.34611 20.1248 7.40029 20.0912 7.45962 20.0697C7.51398 20.0571 7.57049 20.0571 7.62486 20.0697C7.69006 20.0543 7.75798 20.0543 7.82318 20.0697L15.2277 23.3743C15.3397 23.4293 15.4269 23.5245 15.4718 23.6408C15.5168 23.7572 15.5161 23.8863 15.4701 24.0022C15.445 24.0595 15.4089 24.1113 15.3636 24.1546C15.3184 24.1979 15.2651 24.2318 15.2067 24.2543C15.1483 24.2768 15.086 24.2876 15.0234 24.2859C14.9608 24.2842 14.8992 24.2702 14.8421 24.2445L7.43756 20.9399C7.38124 20.9148 7.33069 20.8783 7.289 20.8329C7.24731 20.7874 7.21539 20.7339 7.19518 20.6756ZM17.9383 19.0012C17.9953 19.0252 18.0469 19.0603 18.09 19.1045C18.1332 19.1487 18.1671 19.2011 18.1896 19.2586C18.2122 19.3161 18.2231 19.3775 18.2216 19.4392C18.2201 19.501 18.2061 19.5618 18.1807 19.6181C18.1568 19.6765 18.1209 19.7291 18.0753 19.7728C18.0298 19.8164 17.9756 19.85 17.9163 19.8715C17.8607 19.8957 17.8006 19.9082 17.7399 19.9082C17.6793 19.9082 17.6193 19.8957 17.5637 19.8715L9.34376 16.2254C9.28608 16.2003 9.234 16.1641 9.19049 16.1187C9.14698 16.0733 9.11293 16.0197 9.09035 15.961C9.0658 15.9036 9.05316 15.8417 9.05316 15.7793C9.05316 15.7168 9.0658 15.655 9.09035 15.5975C9.14197 15.4817 9.23689 15.3908 9.35479 15.3442C9.40964 15.3369 9.46524 15.3369 9.52009 15.3442H9.61922C9.80009 15.4454 9.98788 15.5337 10.1812 15.6085L10.3685 15.6746L17.9383 19.0012ZM12.9358 28.8049C12.9132 28.8628 12.8788 28.9155 12.8348 28.9595C12.7908 29.0036 12.7382 29.038 12.6803 29.0608C12.6223 29.0836 12.5604 29.0941 12.4982 29.0918C12.436 29.0894 12.3749 29.0743 12.3188 29.0472L5.78477 26.1502C5.72879 26.1245 5.6785 26.0878 5.63688 26.0424C5.59525 25.997 5.56316 25.9438 5.54239 25.8858C5.51784 25.8284 5.50513 25.7666 5.50513 25.7041C5.50513 25.6416 5.51784 25.5798 5.54239 25.5223C5.59401 25.4065 5.68893 25.3156 5.80683 25.269C5.86168 25.2617 5.91721 25.2617 5.97206 25.269C6.03418 25.2599 6.09732 25.2599 6.15943 25.269L12.6935 28.177C12.8037 28.2274 12.8904 28.318 12.9358 28.4304C12.9619 28.4893 12.9754 28.5531 12.9754 28.6176C12.9754 28.6821 12.9619 28.7459 12.9358 28.8049ZM11.3933 11.6871C11.3486 11.6475 11.321 11.5923 11.3161 11.5329C11.3105 11.3278 11.3724 11.1265 11.4924 10.9601L12.6935 11.3786C12.8117 11.7652 12.9783 12.1353 13.1893 12.4802L11.3933 11.6871ZM21.31 8.38247C20.811 8.51693 20.3817 8.83585 20.109 9.27471C19.6098 10.1372 18.833 10.8051 17.9052 11.1694C17.784 11.1694 17.5526 11.2354 17.1229 10.894C16.4728 10.3652 16.4839 10.0458 16.4839 9.94665C16.4839 8.84512 23.095 3.97635 23.5468 3.97635C23.8407 3.95594 24.1326 4.03766 24.3732 4.20767C24.9131 4.73641 25.9929 5.85997 26.9956 6.90643L21.31 8.38247ZM30.2131 40.2058L28.8797 38.6856C28.2652 37.9452 27.5622 37.283 26.7863 36.7139C27.1389 36.5817 27.4804 36.4605 27.822 36.3173C29.6401 35.5353 36.5708 31.7019 38.4991 30.4902C38.6754 30.3911 38.8296 30.2809 38.9949 30.1708L40.0967 31.3825L30.2131 40.2058Z" fill="#152536"/>
</g>
<defs>
<clipPath id="clip0_534:1009">
<rect width="45" height="46" fill="white"/>
</clipPath>
</defs>
</svg>
