<svg width="69" height="54" viewBox="0 0 69 54" fill="none" xmlns="http://www.w3.org/2000/svg">
<path d="M27.4926 3.62905L38.9367 17.0091H26.6321L21.3751 3.62905H27.4926ZM27.4926 0.0599861H21.4269C20.932 0.0547462 20.4428 0.163583 19.9976 0.377913C19.5524 0.592244 19.1635 0.906208 18.8616 1.29505C18.5597 1.68388 18.3531 2.13696 18.2579 2.61855C18.1627 3.10014 18.1816 3.59708 18.3132 4.07017L23.2062 20.1371H46.5391L29.9999 1.14273C29.681 0.796326 29.294 0.51808 28.8629 0.325014C28.4319 0.131948 27.9656 0.0281208 27.4926 0.0198839V0.0599861Z" fill="#152536"/>
<path d="M5.08986 9.35008L13.6222 19.0146C13.9463 19.5085 14.39 19.914 14.9127 20.1942C15.4354 20.4744 16.0204 20.6203 16.6146 20.6187H59.1149C60.7343 20.6187 62.2875 21.2567 63.4326 22.3923C64.5778 23.5279 65.2211 25.0681 65.2211 26.6741V27.1553C65.2105 28.758 64.5638 30.2921 63.4209 31.4255C62.2781 32.5588 60.7311 33.2001 59.1149 33.2106H47.7114C46.7023 33.2129 45.7058 33.4329 44.7911 33.8553C43.8763 34.2777 43.0652 34.8925 42.414 35.6569L27.4924 49.7361H21.9929L26.0367 39.266C26.2358 38.5784 26.2722 37.8544 26.1432 37.1505C26.0142 36.4466 25.7231 35.7817 25.2928 35.2075C24.8624 34.6333 24.3043 34.1652 23.6618 33.8398C23.0194 33.5143 22.3099 33.3402 21.5885 33.331H4.15974V9.35008H4.88759H5.08986ZM1.84364 6.7324C1.22937 7.34157 0.884277 8.16777 0.884277 9.02926V33.4112C0.884277 34.2726 1.22937 35.0989 1.84364 35.708C2.45791 36.3172 3.29103 36.6594 4.15974 36.6594H21.9121C22.0759 36.6659 22.236 36.7088 22.3808 36.7851C22.5255 36.8613 22.6511 36.9689 22.7483 37.0999C22.8454 37.2309 22.9115 37.3818 22.9418 37.5416C22.972 37.7014 22.9656 37.8659 22.923 38.0229L18.5556 49.0544C18.4326 49.5269 18.4199 50.0211 18.5185 50.4993C18.6171 50.9775 18.8245 51.427 19.1248 51.8137C19.4251 52.2004 19.8103 52.5141 20.2512 52.7309C20.6922 52.9476 21.1772 53.0617 21.6693 53.0646H27.735C28.2123 53.0586 28.6828 52.9518 29.1152 52.7513C29.5475 52.5508 29.9318 52.2611 30.2423 51.9016L45.2042 37.7422C45.5201 37.3525 45.9204 37.0384 46.3755 36.8232C46.8305 36.6079 47.3285 36.4971 47.8327 36.499H59.2362C61.8101 36.499 64.2787 35.485 66.0987 33.6801C67.9188 31.8751 68.9413 29.4271 68.9413 26.8746V26.5538C68.9413 24.0012 67.9188 21.5532 66.0987 19.7482C64.2787 17.9433 61.8101 16.9293 59.2362 16.9293H16.6146C16.6146 16.9293 9.33768 8.40322 8.20353 7.10437C7.59493 6.21371 6.53869 5.65916 5.45378 5.66071C4.02134 5.66275 2.83082 5.75343 1.84364 6.7324Z" fill="#152536"/>
<path d="M14.9736 43.9006C14.9682 43.6445 15.0144 43.3898 15.1096 43.1517C15.2047 42.9135 15.3468 42.6965 15.5276 42.5135C15.7084 42.3305 15.9242 42.1851 16.1624 42.0859C16.4005 41.9866 16.6563 41.9356 16.9146 41.9356L22.0176 41.9356C22.5432 41.9356 21.646 42.1426 22.0176 42.5111C22.3892 42.8796 22.598 43.3794 22.598 43.9006C22.5981 44.1568 22.5466 44.4104 22.4465 44.6466C22.3464 44.8828 22.1998 45.0968 22.0153 45.2761C21.8307 45.4553 21.6119 45.5963 21.3718 45.6906C21.1316 45.785 20.8748 45.8308 20.6165 45.8255H16.9146C16.6582 45.831 16.4033 45.7849 16.1654 45.6901C15.9274 45.5953 15.7112 45.4537 15.5298 45.2739C15.3485 45.094 15.2057 44.8797 15.1101 44.6436C15.0145 44.4076 14.9681 44.1549 14.9736 43.9006Z" fill="#152536"/>
<path d="M14.9736 10.3682C14.9682 10.1121 15.0144 9.85743 15.1096 9.61924C15.2047 9.38106 15.3468 9.1641 15.5276 8.98109C15.7084 8.79808 15.9242 8.65269 16.1624 8.55346C16.4005 8.45423 16.6563 8.40314 16.9146 8.4032L22.0176 8.4032C22.5432 8.4032 21.646 8.61022 22.0176 8.97873C22.3892 9.34724 22.598 9.84704 22.598 10.3682C22.5981 10.6244 22.5466 10.878 22.4465 11.1142C22.3464 11.3504 22.1998 11.5644 22.0153 11.7437C21.8307 11.9229 21.6119 12.0639 21.3718 12.1582C21.1316 12.2526 20.8748 12.2984 20.6165 12.2931H16.9146C16.6582 12.2985 16.4033 12.2525 16.1654 12.1577C15.9274 12.0629 15.7112 11.9213 15.5298 11.7415C15.3485 11.5616 15.2057 11.3472 15.1101 11.1112C15.0145 10.8752 14.9681 10.6225 14.9736 10.3682Z" fill="#152536"/>
</svg>
