<svg width="69" height="52" viewBox="0 0 69 52" fill="none" xmlns="http://www.w3.org/2000/svg">
<path d="M0.471191 6.40549C0.471191 4.71332 1.14134 3.09045 2.33416 1.89391C3.52698 0.697359 5.14476 0.0251465 6.83166 0.0251465H44.9945C46.6814 0.0251465 48.2992 0.697359 49.4921 1.89391C50.6849 3.09045 51.355 4.71332 51.355 6.40549V12.7858H55.5953C56.5501 12.7933 57.4912 13.0149 58.3496 13.4344C59.2081 13.8539 59.9621 14.4607 60.5565 15.2104L67.1289 23.0795C68.0298 24.2003 68.5232 25.5955 68.5282 27.0353V36.1804C68.5282 37.8726 67.8581 39.4955 66.6653 40.692C65.4725 41.8886 63.8546 42.5608 62.1677 42.5608H60.0476C60.0476 44.817 59.1541 46.9808 57.5637 48.5762C55.9733 50.1716 53.8162 51.0679 51.567 51.0679C49.3178 51.0679 47.1607 50.1716 45.5703 48.5762C43.9799 46.9808 43.0864 44.817 43.0864 42.5608H21.8848C21.8848 44.817 20.9913 46.9808 19.4009 48.5762C17.8105 50.1716 15.6534 51.0679 13.4042 51.0679C11.155 51.0679 8.99787 50.1716 7.40745 48.5762C5.81702 46.9808 4.92353 44.817 4.92353 42.5608V42.1779C3.67949 41.7368 2.60301 40.9184 1.84326 39.8362C1.08352 38.7539 0.678133 37.4615 0.68322 36.1379L0.471191 6.40549ZM5.94123 38.1371C7.11663 36.2138 9.00537 34.8377 11.1921 34.3112C13.3789 33.7847 15.6846 34.1511 17.6021 35.3297C18.8172 36.0523 19.8251 37.0781 20.5279 38.3072H44.0192C44.7624 37.0183 45.8297 35.9476 47.1147 35.2021V6.40549C47.1038 5.84484 46.8769 5.31019 46.4817 4.91368C46.0864 4.51717 45.5534 4.2896 44.9945 4.27871H6.83166C6.26936 4.27871 5.73012 4.50278 5.33252 4.90163C4.93491 5.30048 4.71151 5.84143 4.71151 6.40549V36.1804C4.70642 36.5908 4.8198 36.9939 5.03799 37.3411C5.25619 37.6883 5.56991 37.9647 5.94123 38.1371ZM51.355 33.8835C52.8422 33.885 54.3028 34.2788 55.5904 35.0254C56.8779 35.772 57.9472 36.8451 58.6908 38.1371H61.9557C62.5181 38.1371 63.0573 37.913 63.4549 37.5141C63.8525 37.1153 64.0759 36.5743 64.0759 36.0103V27.0353C64.0699 26.5561 63.9059 26.0925 63.6095 25.7167L57.3338 17.8476C57.1344 17.5992 56.8827 17.398 56.5969 17.2583C56.311 17.1186 55.998 17.0439 55.6801 17.0394H51.4398L51.355 33.8835ZM13.1921 38.1371C12.3535 38.1371 11.5336 38.3865 10.8363 38.8539C10.139 39.3213 9.59556 39.9856 9.27462 40.7629C8.95368 41.5401 8.86967 42.3953 9.03328 43.2205C9.19689 44.0456 9.60076 44.8035 10.1938 45.3983C10.7868 45.9932 11.5424 46.3983 12.3649 46.5625C13.1875 46.7266 14.04 46.6423 14.8149 46.3204C15.5897 45.9985 16.2519 45.4533 16.7178 44.7538C17.1837 44.0543 17.4324 43.2319 17.4324 42.3906C17.3886 41.2923 16.9226 40.2536 16.1321 39.4923C15.3416 38.731 14.288 38.3063 13.1921 38.3072V38.1371ZM51.355 38.1371C50.5163 38.1371 49.6965 38.3865 48.9992 38.8539C48.3018 39.3213 47.7584 39.9856 47.4375 40.7629C47.1165 41.5401 47.0325 42.3953 47.1961 43.2205C47.3597 44.0456 47.7636 44.8035 48.3566 45.3983C48.9496 45.9932 49.7052 46.3983 50.5277 46.5625C51.3503 46.7266 52.2029 46.6423 52.9777 46.3204C53.7525 45.9985 54.4147 45.4533 54.8806 44.7538C55.3466 44.0543 55.5953 43.2319 55.5953 42.3906C55.5514 41.2923 55.0854 40.2536 54.2949 39.4923C53.5044 38.731 52.4508 38.3063 51.355 38.3072V38.1371Z" fill="#152536"/>
<path d="M11.814 13.5383C11.814 12.9721 12.0382 12.4291 12.4373 12.0287C12.8365 11.6283 13.3778 11.4034 13.9423 11.4034H36.7881C37.3526 11.4034 37.8939 11.6283 38.2931 12.0287C38.6922 12.4291 38.9164 12.9721 38.9164 13.5383C38.9164 14.1046 38.6922 14.6476 38.2931 15.048C37.8939 15.4484 37.3526 15.6733 36.7881 15.6733H13.9423C13.3778 15.6733 12.8365 15.4484 12.4373 15.048C12.0382 14.6476 11.814 14.1046 11.814 13.5383Z" fill="#152536"/>
<path d="M11.814 20.9678C11.814 20.4016 12.0382 19.8586 12.4373 19.4582C12.8365 19.0578 13.3778 18.8329 13.9423 18.8329H36.7881C37.3526 18.8329 37.8939 19.0578 38.2931 19.4582C38.6922 19.8586 38.9164 20.4016 38.9164 20.9678C38.9055 21.5306 38.6778 22.0673 38.281 22.4654C37.8842 22.8634 37.3492 23.0918 36.7881 23.1028H13.9423C13.3778 23.1028 12.8365 22.8778 12.4373 22.4775C12.0382 22.0771 11.814 21.534 11.814 20.9678Z" fill="#152536"/>
</svg>
