<svg width="69" height="45" viewBox="0 0 69 45" fill="none" xmlns="http://www.w3.org/2000/svg">
<path d="M14.9817 39.8254C14.1404 39.8254 13.318 39.5766 12.6185 39.1104C11.9191 38.6442 11.3739 37.9816 11.052 37.2064C10.73 36.4312 10.6457 35.5782 10.8099 34.7552C10.974 33.9322 11.3791 33.1763 11.974 32.583C12.5689 31.9896 13.3268 31.5856 14.1519 31.4219C14.977 31.2582 15.8323 31.3422 16.6095 31.6633C17.3867 31.9844 18.051 32.5282 18.5184 33.2259C18.9858 33.9235 19.2352 34.7438 19.2352 35.5829C19.2352 36.708 18.7871 37.7872 17.9894 38.5828C17.1917 39.3784 16.1098 39.8254 14.9817 39.8254ZM14.9817 44.0679C16.6642 44.0679 18.309 43.5703 19.708 42.6379C21.107 41.7056 22.1974 40.3804 22.8412 38.8299C23.4851 37.2795 23.6535 35.5735 23.3253 33.9275C22.997 32.2816 22.1869 30.7697 20.9971 29.583C19.8074 28.3964 18.2916 27.5883 16.6414 27.2609C14.9911 26.9335 13.2807 27.1015 11.7262 27.7437C10.1717 28.3859 8.84311 29.4735 7.90834 30.8688C6.97357 32.2642 6.47461 33.9047 6.47461 35.5829C6.47461 37.8332 7.37088 39.9914 8.96627 41.5827C10.5617 43.1739 12.7255 44.0679 14.9817 44.0679ZM49.0101 39.8254C48.1688 39.8254 47.3464 39.5766 46.6469 39.1104C45.9474 38.6442 45.4023 37.9816 45.0803 37.2064C44.7584 36.4312 44.6741 35.5782 44.8382 34.7552C45.0024 33.9322 45.4075 33.1763 46.0023 32.583C46.5972 31.9896 47.3552 31.5856 48.1803 31.4219C49.0054 31.2582 49.8606 31.3422 50.6379 31.6633C51.4151 31.9844 52.0794 32.5282 52.5467 33.2259C53.0141 33.9235 53.2636 34.7438 53.2636 35.5829C53.2636 36.708 52.8155 37.7872 52.0178 38.5828C51.2201 39.3784 50.1382 39.8254 49.0101 39.8254ZM49.0101 44.0679C50.6926 44.0679 52.3374 43.5703 53.7364 42.6379C55.1354 41.7056 56.2257 40.3804 56.8696 38.8299C57.5135 37.2795 57.6819 35.5735 57.3537 33.9275C57.0254 32.2816 56.2152 30.7697 55.0255 29.583C53.8358 28.3964 52.3199 27.5883 50.6697 27.2609C49.0195 26.9335 47.309 27.1015 45.7545 27.7437C44.2001 28.3859 42.8715 29.4735 41.9367 30.8688C41.0019 32.2642 40.503 33.9047 40.503 35.5829C40.503 37.8332 41.3992 39.9914 42.9946 41.5827C44.59 43.1739 46.7538 44.0679 49.0101 44.0679Z" fill="#152536"/>
<path d="M23.4888 4.27352C28.3279 4.32274 33.0944 5.62326 37.4375 7.75247C41.7806 9.88167 45.5897 12.9551 48.5847 16.7465H49.01L11.7915 15.0919L14.2586 4.27352H23.4888ZM23.4888 0.0310059H10.7282L6.47461 18.6981L57.5171 20.9466L51.6472 13.7343C48.2327 9.57592 43.9363 6.22432 39.0673 3.92083C34.1983 1.61734 28.8778 0.0374275 23.4888 0.0310059Z" fill="#152536"/>
<path d="M59.4742 17.3406L6.47486 15.1769C5.66135 15.1713 4.85473 15.3263 4.10152 15.633C3.34831 15.9396 2.66341 16.3918 2.08618 16.9636C1.50895 17.5354 1.0508 18.2155 0.738189 18.9646C0.425579 19.7137 0.264629 20.5172 0.264648 21.3286V29.1772C0.275792 30.8166 0.933688 32.3856 2.09592 33.5448C3.25815 34.704 4.83126 35.3602 6.47486 35.3713C6.45858 33.8786 6.85604 32.4105 7.62334 31.1288H6.47486C5.89953 31.1288 5.34775 30.9008 4.94092 30.4951C4.5341 30.0893 4.30558 29.539 4.30558 28.9651V21.3286C4.31601 20.7765 4.53766 20.2493 4.92515 19.8549C5.31264 19.4606 5.83659 19.2289 6.38978 19.2073L59.304 21.371C59.9611 21.371 60.6118 21.5008 61.2183 21.7529C61.8249 22.005 62.3755 22.3744 62.8381 22.8398C63.3008 23.3053 63.6665 23.8575 63.9141 24.4646C64.1617 25.0717 64.2863 25.7218 64.2806 26.3772V29.1772C64.2863 29.4594 64.2355 29.7398 64.1312 30.002C64.0268 30.2643 63.8711 30.5032 63.673 30.7047C63.475 30.9062 63.2385 31.0662 62.9777 31.1755C62.7168 31.2847 62.4368 31.341 62.1539 31.3409H56.2414C57.0216 32.6191 57.4337 34.087 57.4324 35.5834H62.1539C62.9674 35.5835 63.7729 35.4229 64.524 35.1111C65.2751 34.7993 65.9569 34.3424 66.5302 33.7667C67.1034 33.1909 67.5569 32.5078 67.8643 31.7565C68.1718 31.0053 68.3271 30.2008 68.3215 29.3894V26.3772C68.3331 24.0136 67.4114 21.7404 65.7557 20.0493C64.1 18.3582 61.8435 17.3852 59.4742 17.3406Z" fill="#152536"/>
<path d="M23.4889 35.3713H40.5031C40.4634 33.8757 40.8625 32.4012 41.6516 31.1288H22.2554C23.0505 32.4026 23.4773 33.8708 23.4889 35.3713Z" fill="#152536"/>
<path d="M2.34224 2.0199C2.33682 1.76065 2.38336 1.50293 2.4791 1.26184C2.57484 1.02076 2.71787 0.801163 2.8998 0.615926C3.08173 0.430688 3.29889 0.283536 3.53858 0.183096C3.77826 0.0826568 4.03564 0.0309496 4.29562 0.0310059H14.9577C15.4866 0.0310059 15.9938 0.24055 16.3678 0.613539C16.7417 0.986529 16.9518 1.49241 16.9518 2.0199C16.9519 2.2792 16.9 2.53591 16.7993 2.77497C16.6986 3.01404 16.5511 3.23065 16.3654 3.4121C16.1796 3.59356 15.9595 3.73621 15.7178 3.8317C15.4761 3.92719 15.2177 3.9736 14.9577 3.9682H4.29562C4.03758 3.97373 3.78109 3.92712 3.54159 3.83117C3.30209 3.73522 3.08454 3.59191 2.90203 3.40988C2.71953 3.22785 2.57583 3.01086 2.47963 2.77198C2.38343 2.5331 2.33669 2.27727 2.34224 2.0199Z" fill="#152536"/>
</svg>
