<svg width="69" height="54" viewBox="0 0 69 54" fill="none" xmlns="http://www.w3.org/2000/svg">
<path d="M11.2261 19.1527C11.2261 18.6002 11.4503 18.0703 11.8494 17.6796C12.2486 17.2889 12.7899 17.0695 13.3544 17.0695H19.186C19.7504 17.0695 20.2918 17.2889 20.6909 17.6796C21.0901 18.0703 21.3143 18.6002 21.3143 19.1527C21.3143 19.7052 21.0901 20.2351 20.6909 20.6257C20.2918 21.0164 19.7504 21.2359 19.186 21.2359H13.3544C12.7899 21.2359 12.2486 21.0164 11.8494 20.6257C11.4503 20.2351 11.2261 19.7052 11.2261 19.1527Z" fill="#152536"/>
<path d="M11.2261 26.4023C11.2261 25.8498 11.4503 25.3199 11.8494 24.9293C12.2486 24.5386 12.7899 24.3191 13.3544 24.3191H19.186C19.7504 24.3191 20.2918 24.5386 20.6909 24.9293C21.0901 25.3199 21.3143 25.8498 21.3143 26.4023C21.3034 26.9515 21.0757 27.4752 20.6789 27.8636C20.2821 28.252 19.747 28.4749 19.186 28.4855H13.3544C12.7899 28.4855 12.2486 28.2661 11.8494 27.8754C11.4503 27.4847 11.2261 26.9548 11.2261 26.4023Z" fill="#152536"/>
<path d="M11.2261 33.6101C11.2261 33.0576 11.4503 32.5278 11.8494 32.1371C12.2486 31.7464 12.7899 31.5269 13.3544 31.5269H19.186C19.747 31.5376 20.2821 31.7605 20.6789 32.1489C21.0757 32.5373 21.3034 33.061 21.3143 33.6101C21.3143 34.1626 21.0901 34.6925 20.6909 35.0832C20.2918 35.4739 19.7504 35.6934 19.186 35.6934H13.3544C12.7899 35.6934 12.2486 35.4739 11.8494 35.0832C11.4503 34.6925 11.2261 34.1626 11.2261 33.6101Z" fill="#152536"/>
<path d="M0.20153 16.0693C0.0154301 15.5959 0.0122013 15.0723 0.192449 14.5967C0.372697 14.1211 0.724035 13.7262 1.18055 13.4861L27.8271 0.236807C28.0785 0.11593 28.3519 0.044832 28.6314 0.0275905C28.911 0.0103489 29.1913 0.047303 29.4563 0.136333C29.7213 0.225363 29.9657 0.364717 30.1755 0.546403C30.3853 0.728089 30.5564 0.948532 30.679 1.19509C30.9236 1.68391 30.9673 2.24599 30.801 2.76539C30.6346 3.2848 30.271 3.72192 29.7851 3.98661L3.05347 16.9859C2.80575 17.114 2.5342 17.1919 2.25504 17.215C1.97588 17.2381 1.69483 17.2059 1.42865 17.1204C1.16248 17.0348 0.916637 16.8977 0.705805 16.7171C0.494973 16.5365 0.32347 16.3162 0.20153 16.0693Z" fill="#152536"/>
<path fill-rule="evenodd" clip-rule="evenodd" d="M4.24512 46.8178V15.6944H8.50175V46.8178C8.50175 47.3703 8.72598 47.9002 9.12512 48.2908C9.52425 48.6815 10.0656 48.901 10.6301 48.901H57.453C58.0174 48.901 58.5588 48.6815 58.9579 48.2908C59.3571 47.9002 59.5813 47.3703 59.5813 46.8178V23.6523L63.8379 25.9855V46.8178C63.8379 48.4753 63.1652 50.0649 61.9678 51.237C60.7704 52.409 59.1464 53.0674 57.453 53.0674H10.6301C8.93667 53.0674 7.31263 52.409 6.11522 51.237C4.91781 50.0649 4.24512 48.4753 4.24512 46.8178Z" fill="#152536"/>
<path d="M66.69 23.1524L27.4438 9.02811V13.4862L65.3704 27.1938C65.6303 27.2786 65.9048 27.3125 66.1781 27.2935C66.4514 27.2745 66.7182 27.2029 66.9633 27.083C67.2083 26.9631 67.4269 26.7971 67.6064 26.5945C67.7859 26.3919 67.9229 26.1566 68.0095 25.9022C68.0962 25.6478 68.1308 25.3792 68.1113 25.1116C68.0919 24.8441 68.0189 24.583 67.8963 24.3431C67.7738 24.1032 67.6042 23.8893 67.3972 23.7136C67.1902 23.5379 66.9499 23.4038 66.69 23.319V23.1524Z" fill="#152536"/>
<path fill-rule="evenodd" clip-rule="evenodd" d="M49.4076 38.4847V49.3175H36.6377V38.4847C36.6647 38.0904 36.771 37.7052 36.9505 37.3513C37.1301 36.9974 37.3793 36.6816 37.6838 36.4222C37.9884 36.1628 38.3423 35.9649 38.7253 35.8398C39.1082 35.7147 39.5126 35.6648 39.9153 35.6932H46.3854C47.1553 35.7018 47.8936 35.9938 48.4536 36.511C49.0136 37.0283 49.3542 37.7329 49.4076 38.4847Z" fill="#152536"/>
<path fill-rule="evenodd" clip-rule="evenodd" d="M24.0384 6.77865V49.2348C24.0384 50.4014 23.0594 48.7765 21.9101 48.7765H10.6301C10.087 48.7774 9.56418 48.5752 9.16852 48.2111C8.77286 47.8471 8.53433 47.3488 8.50175 46.8182V14.3616L4.24512 16.4448V46.8182C4.24512 48.4757 4.91781 50.0654 6.11522 51.2374C7.31263 52.4095 8.93667 53.0679 10.6301 53.0679H21.9101C25.4431 53.0679 28.2951 52.6096 28.2951 49.1514V5.15374C28.3156 4.95982 28.3156 4.76435 28.2951 4.57043L24.0384 6.77865Z" fill="#152536"/>
</svg>
