<svg width="69" height="48" viewBox="0 0 69 48" fill="none" xmlns="http://www.w3.org/2000/svg">
<path d="M43.8552 20.5596C44.0719 20.4191 44.2577 20.2363 44.4014 20.0221C44.5452 19.8079 44.6438 19.5668 44.6915 19.3135C44.7391 19.0602 44.7347 18.7999 44.6785 18.5484C44.6224 18.2968 44.5156 18.0592 44.3647 17.85C44.242 17.6281 44.0672 17.4393 43.8552 17.2996L33.5386 10.7795C33.1595 10.5134 32.7073 10.3707 32.2438 10.3707C31.7802 10.3707 31.328 10.5134 30.9489 10.7795L20.2502 20.0939C19.8122 20.3868 19.5083 20.8407 19.4049 21.3564C19.3015 21.872 19.407 22.4076 19.6983 22.8459C19.8383 23.0573 20.0277 23.2316 20.2502 23.354L30.4819 29.8741C30.861 30.1401 31.3132 30.2829 31.7768 30.2829C32.2403 30.2829 32.6925 30.1401 33.0716 29.8741L43.8552 20.5596ZM46.2752 14.0395C47.5697 14.9157 48.4623 16.2686 48.7568 17.8009C49.0514 19.3332 48.7238 20.9194 47.846 22.2108C47.4538 22.9072 46.9185 23.5132 46.2752 23.989L35.5765 33.3035C34.435 34.111 33.0701 34.5448 31.6706 34.5448C30.2711 34.5448 28.9062 34.111 27.7647 33.3035L17.4906 26.7834C16.1961 25.9072 15.3034 24.5543 15.0089 23.022C14.7143 21.4897 15.042 19.9035 15.9198 18.6121C16.3438 17.9992 16.8761 17.4684 17.4906 17.0455L28.2317 7.68877C29.3736 6.90221 30.7285 6.48093 32.1164 6.48093C33.5042 6.48093 34.8591 6.90221 36.001 7.68877L46.2752 14.0395Z" fill="#152536"/>
<path d="M39.8231 1.71807C40.0592 1.5731 40.3219 1.47664 40.5959 1.43437C40.8699 1.39209 41.1496 1.40486 41.4186 1.47192C41.6875 1.53897 41.9403 1.65896 42.1621 1.82483C42.3839 1.99071 42.5702 2.19912 42.7101 2.43782L58.0789 31.6936C58.3716 32.1765 58.4601 32.7555 58.3247 33.3034C58.1894 33.8512 57.8413 34.323 57.3571 34.615C56.873 34.9069 56.2923 34.9951 55.743 34.8601C55.1936 34.7252 54.7205 34.3781 54.4277 33.8952L39.1014 4.59708C38.956 4.36167 38.8593 4.09965 38.8169 3.82643C38.7746 3.5532 38.7873 3.27429 38.8546 3.00607C38.9218 2.73785 39.0422 2.48574 39.2085 2.26455C39.3748 2.04337 39.5838 1.85757 39.8231 1.71807Z" fill="#152536"/>
<path d="M68.7353 34.3628C68.7353 36.8749 67.9883 39.3306 66.5888 41.4194C65.1893 43.5081 63.2001 45.1361 60.8728 46.0975C58.5455 47.0588 55.9846 47.3103 53.514 46.8202C51.0433 46.3302 48.7739 45.1205 46.9927 43.3441C45.2115 41.5678 43.9984 39.3046 43.5069 36.8407C43.0155 34.3769 43.2677 31.823 44.2317 29.5021C45.1957 27.1812 46.8282 25.1975 48.9227 23.8019C51.0173 22.4062 53.4797 21.6613 55.9987 21.6613C59.3767 21.6613 62.6163 22.9995 65.0049 25.3815C67.3934 27.7635 68.7353 30.9941 68.7353 34.3628ZM55.9987 42.8305C57.6781 42.8305 59.3198 42.3338 60.7161 41.4034C62.1125 40.473 63.2008 39.1505 63.8435 37.6032C64.4861 36.056 64.6543 34.3534 64.3267 32.7108C63.999 31.0683 63.1903 29.5595 62.0028 28.3752C60.8153 27.191 59.3024 26.3846 57.6553 26.0578C56.0082 25.7311 54.3009 25.8988 52.7494 26.5397C51.1978 27.1806 49.8717 28.2659 48.9387 29.6584C48.0057 31.0509 47.5077 32.688 47.5077 34.3628C47.5077 36.6086 48.4024 38.7624 49.9947 40.3503C51.5871 41.9383 53.7468 42.8305 55.9987 42.8305Z" fill="#152536"/>
<path d="M26.1513 34.3628C26.1513 36.8749 25.4044 39.3306 24.0048 41.4194C22.6053 43.5081 20.6162 45.1361 18.2889 46.0975C15.9616 47.0588 13.4007 47.3103 10.93 46.8202C8.45936 46.3302 6.18996 45.1205 4.40872 43.3441C2.62748 41.5678 1.4144 39.3046 0.92296 36.8407C0.431517 34.3769 0.683735 31.823 1.64773 29.5021C2.61173 27.1812 4.24424 25.1975 6.33875 23.8019C8.43327 22.4062 10.8957 21.6613 13.4148 21.6613C16.7927 21.6613 20.0323 22.9995 22.4209 25.3815C24.8094 27.7635 26.1513 30.9941 26.1513 34.3628ZM13.4148 42.8305C15.0941 42.8305 16.7358 42.3338 18.1321 41.4034C19.5285 40.473 20.6168 39.1505 21.2595 37.6032C21.9021 36.056 22.0703 34.3534 21.7427 32.7108C21.415 31.0683 20.6063 29.5595 19.4188 28.3752C18.2313 27.191 16.7184 26.3846 15.0713 26.0578C13.4242 25.7311 11.7169 25.8988 10.1654 26.5397C8.61386 27.1806 7.28776 28.2659 6.35475 29.6584C5.42175 31.0509 4.92373 32.688 4.92373 34.3628C4.92373 36.6086 5.81831 38.7624 7.41069 40.3503C9.00307 41.9383 11.1628 42.8305 13.4148 42.8305Z" fill="#152536"/>
<path d="M28.9109 2.09973C28.9109 1.54951 29.1301 1.02184 29.5202 0.632777C29.9103 0.243717 30.4394 0.0251465 30.9912 0.0251465H42.0295C42.5925 0.0251465 43.1324 0.248178 43.5305 0.645177C43.9286 1.04218 44.1523 1.58062 44.1523 2.14207C44.1523 2.70351 43.9286 3.24195 43.5305 3.63895C43.1324 4.03595 42.5925 4.25898 42.0295 4.25898H30.9912C30.7107 4.25922 30.4331 4.20288 30.175 4.09337C29.9169 3.98386 29.6837 3.82343 29.4893 3.62173C29.295 3.42003 29.1436 3.18122 29.0442 2.91966C28.9448 2.65811 28.8995 2.37921 28.9109 2.09973Z" fill="#152536"/>
<path d="M9.21121 15.0559C9.21121 14.5057 9.43034 13.978 9.82048 13.589C10.2106 13.1999 10.7397 12.9813 11.2915 12.9813H22.4148C22.9778 12.9813 23.5177 13.2044 23.9158 13.6014C24.3138 13.9984 24.5375 14.5368 24.5375 15.0982C24.5375 15.6597 24.3138 16.1981 23.9158 16.5951C23.5177 16.9921 22.9778 17.2152 22.4148 17.2152H11.2915C11.011 17.2154 10.7334 17.1591 10.4753 17.0495C10.2172 16.94 9.98397 16.7796 9.78964 16.5779C9.59531 16.3762 9.44387 16.1374 9.34446 15.8758C9.24506 15.6143 9.19976 15.3354 9.21121 15.0559Z" fill="#152536"/>
<path d="M12.0139 36.9453C11.6071 36.5928 11.35 36.0991 11.2949 35.5644C11.2397 35.0298 11.3905 34.4942 11.7167 34.0663L18.7643 25.5987C18.9234 25.3521 19.1331 25.142 19.3796 24.9822C19.6261 24.8224 19.9038 24.7165 20.1943 24.6716C20.4849 24.6266 20.7816 24.6435 21.0651 24.7213C21.3486 24.799 21.6123 24.9358 21.8389 25.1226C22.0655 25.3094 22.2498 25.542 22.3797 25.805C22.5096 26.0681 22.5821 26.3556 22.5925 26.6486C22.6028 26.9416 22.5508 27.2335 22.4398 27.505C22.3288 27.7765 22.1613 28.0214 21.9484 28.2236L14.9433 36.6913C14.5884 37.1121 14.0806 37.3753 13.5313 37.4229C12.982 37.4705 12.4362 37.2988 12.0139 36.9453Z" fill="#152536"/>
</svg>
