<svg width="31" height="45" viewBox="0 0 31 45" fill="none" xmlns="http://www.w3.org/2000/svg">
<g clip-path="url(#clip0_549:847)">
<path d="M15.6 0C7.15001 0 3.05176e-05 7 3.05176e-05 15.28C3.05176e-05 21.83 4.18997 25.28 6.43997 27.11C6.84799 27.4138 7.23245 27.7481 7.59 28.11C8.54065 29.5058 9.0937 31.1339 9.18997 32.82V34.61H21.0401C21.5148 34.61 21.97 34.4214 22.3057 34.0857C22.6414 33.75 22.83 33.2947 22.83 32.82C22.83 32.3453 22.6414 31.89 22.3057 31.5543C21.97 31.2186 21.5148 31.03 21.0401 31.03H12.6C12.2609 29.2783 11.5814 27.6101 10.6 26.12C10.0681 25.4352 9.44192 24.8292 8.74002 24.32C6.57002 22.55 3.61002 20.12 3.61002 15.27C3.69086 12.1414 4.99072 9.16824 7.23245 6.98442C9.47419 4.8006 12.4804 3.57896 15.61 3.58C18.6962 3.59483 21.6549 4.8131 23.8567 6.97569C26.0585 9.13829 27.3298 12.0746 27.4001 15.16C27.4001 19.59 24.4001 22.8 22.1501 25.16C21.1671 26.0154 20.3851 27.0774 19.86 28.27C19.7783 28.7091 19.8628 29.1628 20.097 29.5431C20.3311 29.9234 20.6984 30.2031 21.1272 30.3278C21.5561 30.4524 22.016 30.4132 22.4175 30.2177C22.8191 30.0222 23.1335 29.6845 23.3 29.27C23.7417 28.6725 24.2299 28.1107 24.76 27.59C27.09 25.12 30.99 21 30.99 15.14C30.9015 11.1092 29.2439 7.27195 26.3698 4.44449C23.4956 1.61703 19.6317 0.0224694 15.6 0Z" fill="#152536"/>
<path d="M20.72 35.79H10.26C9.80712 35.8239 9.3837 36.0277 9.07474 36.3606C8.76577 36.6935 8.59402 37.1309 8.59402 37.5851C8.59402 38.0392 8.76577 38.4766 9.07474 38.8095C9.3837 39.1424 9.80712 39.3462 10.26 39.3801H20.72C21.1729 39.3462 21.5963 39.1424 21.9053 38.8095C22.2143 38.4766 22.3859 38.0392 22.3859 37.5851C22.3859 37.1309 22.2143 36.6935 21.9053 36.3606C21.5963 36.0277 21.1729 35.8239 20.72 35.79Z" fill="#152536"/>
<path d="M18.82 40.9502H12.1601C11.7071 40.984 11.2837 41.1878 10.9748 41.5207C10.6658 41.8536 10.494 42.291 10.494 42.7452C10.494 43.1994 10.6658 43.6368 10.9748 43.9697C11.2837 44.3026 11.7071 44.5064 12.1601 44.5402H18.82C19.2729 44.5064 19.6963 44.3026 20.0053 43.9697C20.3142 43.6368 20.486 43.1994 20.486 42.7452C20.486 42.291 20.3142 41.8536 20.0053 41.5207C19.6963 41.1878 19.2729 40.984 18.82 40.9502Z" fill="#152536"/>
</g>
<defs>
<clipPath id="clip0_549:847">
<rect width="30.98" height="44.54" fill="white"/>
</clipPath>
</defs>
</svg>
