<svg width="158" height="84" viewBox="0 0 158 84" fill="none" xmlns="http://www.w3.org/2000/svg">
<path d="M128.529 16.3804L147.552 5.84459C147.941 5.67565 148.29 5.42747 148.578 5.1159C148.865 4.80433 149.085 4.43622 149.222 4.03509C149.359 3.63397 149.411 3.20863 149.375 2.78626C149.338 2.36389 149.214 1.95378 149.01 1.58211C148.806 1.21043 148.527 0.885384 148.19 0.627715C147.854 0.370046 147.467 0.185425 147.055 0.0856434C146.643 -0.0141376 146.215 -0.0268846 145.797 0.0482169C145.38 0.123318 144.983 0.284617 144.632 0.52181L144.504 0.601072L125.603 11.0637L128.529 16.3804Z" fill="#CE171E"/>
<path d="M148.205 7.30177L129.304 17.7583L132.242 23.0811L151.29 12.5453C151.939 12.1263 152.405 11.4762 152.593 10.7267C152.782 9.97724 152.678 9.18417 152.304 8.50796C151.93 7.83175 151.313 7.32286 150.578 7.08423C149.843 6.84559 149.045 6.89502 148.345 7.22251L148.211 7.30177" fill="#CE171E"/>
<path d="M156.174 15.1122C155.782 14.4094 155.128 13.89 154.355 13.6673C153.581 13.4446 152.752 13.5366 152.046 13.9233L151.912 14.0026L133.011 24.4591L135.968 29.7758L154.991 19.2461C155.693 18.8532 156.211 18.1989 156.432 17.4258C156.654 16.6526 156.561 15.8233 156.174 15.1183" fill="#CE171E"/>
<path d="M150.314 23.6299L150.18 23.7092L132.858 33.2877C130.003 34.839 126.65 35.1967 123.532 34.2826C120.414 33.3686 117.785 31.2572 116.219 28.41C114.714 25.575 114.359 22.2686 115.229 19.1787C116.099 16.0887 118.126 13.453 120.89 11.8198L121.079 11.7161L131.572 5.91167C131.981 5.75712 132.352 5.51636 132.66 5.20574C132.968 4.89511 133.205 4.52189 133.356 4.11141C133.507 3.70093 133.568 3.2628 133.534 2.82675C133.501 2.39071 133.374 1.96697 133.162 1.58428C132.95 1.2016 132.659 0.868932 132.307 0.60887C131.956 0.348807 131.552 0.167434 131.124 0.0770625C130.697 -0.013309 130.254 -0.0105635 129.828 0.0851127C129.401 0.180789 129 0.367156 128.651 0.631563L128.517 0.704729L118.152 6.43602C114.042 8.86177 111.039 12.7935 109.781 17.3969C108.522 22.0003 109.107 26.913 111.411 31.0924C113.714 35.2718 117.556 38.3889 122.121 39.7823C126.685 41.1757 131.613 40.7357 135.858 38.5556L136.279 38.3179L153.259 28.9222C153.642 28.7482 153.985 28.4969 154.267 28.1839C154.548 27.8709 154.761 27.503 154.893 27.1035C155.025 26.704 155.073 26.2815 155.034 25.8626C154.995 25.4436 154.87 25.0373 154.666 24.6692C154.462 24.3011 154.184 23.9792 153.85 23.7238C153.515 23.4684 153.132 23.2849 152.723 23.185C152.314 23.0851 151.889 23.0709 151.475 23.1432C151.06 23.2156 150.665 23.373 150.314 23.6055" fill="#CE171E"/>
<path d="M91.8247 61.1515C91.5408 61.6112 91.1456 61.9918 90.6756 62.2582C90.2057 62.5246 89.6761 62.6683 89.1359 62.6758C88.814 62.6958 88.4916 62.6457 88.1909 62.5291C87.8901 62.4124 87.6183 62.232 87.394 62.0002C87.1698 61.7684 86.9984 61.4907 86.8918 61.1863C86.7851 60.8819 86.7457 60.558 86.7763 60.237C86.7763 57.5542 90.5199 57.0787 92.5503 56.8653V57.5908C92.5503 58.8956 92.5869 59.987 91.8247 61.1454V61.1515ZM98.0011 54.3228C98.0011 52.1034 98.1779 50.0548 96.2939 48.5488C94.8062 47.3294 92.3369 46.8782 90.4468 46.8782C86.5629 46.8782 82.2035 48.183 81.6608 52.6521L86.7031 53.1216C86.7031 51.2925 88.1969 50.4389 89.9041 50.4389C90.3066 50.4183 90.7087 50.4856 91.0825 50.6362C91.4563 50.7868 91.7928 51.017 92.0686 51.3108C92.6113 52.0058 92.5381 52.9448 92.5381 53.7496V54.1886C90.2883 54.4081 87.3494 54.5484 85.2216 55.3532C82.7827 56.2555 81.0816 58.1091 81.0816 60.8406C81.0816 64.3281 83.6241 66.0658 86.8922 66.0658C89.6542 66.0658 91.2516 65.0171 92.7759 62.8343C92.7338 63.7987 92.8199 64.7644 93.032 65.7061H98.3304C98.0679 64.8096 97.9466 63.8778 97.9706 62.9441L98.0011 54.3228Z" fill="black"/>
<path d="M0.575195 65.6939H18.3666V60.865H6.38575V55.341H15.8241V50.6584H6.38575V45.61H18.3666V40.7811H0.575195V65.6939Z" fill="black"/>
<path d="M41.8588 46.8843C39.5724 46.8843 37.4323 47.9025 36.4873 50.0792C35.3959 47.9025 33.8716 46.8843 31.4389 46.8843C29.0061 46.8843 27.2623 47.9025 26.3173 50.0792H26.2502V47.2441H21.1652V65.6939H26.5002V55.9385C26.5002 53.9387 26.3905 51.1828 29.189 51.1828C31.9876 51.1828 31.5852 54.0119 31.5852 55.9385V65.6939H36.9202V55.9385C36.9202 54.9569 36.9202 53.4997 37.286 52.6339C37.504 52.1993 37.8395 51.8346 38.2545 51.5813C38.6695 51.328 39.1472 51.1963 39.6334 51.2011C40.7614 51.2011 41.6332 51.5303 41.9198 52.6949C42.0483 53.7669 42.085 54.848 42.0296 55.9263V65.6817H47.3706V54.1826C47.3706 52.3534 47.6206 50.2255 46.389 48.7683C45.8164 48.1503 45.1179 47.6623 44.3406 47.3373C43.5633 47.0123 42.7253 46.8578 41.8832 46.8843" fill="black"/>
<path d="M59.1075 62.3344C58.6535 62.3388 58.2064 62.2233 57.8114 61.9996C57.4163 61.7758 57.0874 61.4518 56.8577 61.0601C56.3689 60.1094 56.1576 59.0402 56.248 57.975V55.3044C56.248 53.3473 56.6077 50.5487 59.1868 50.5487C62.1317 50.5487 62.1317 54.4021 62.1317 56.469C62.1317 58.5359 62.1317 62.3161 59.0831 62.3161L59.1075 62.3344ZM60.7903 46.8843C59.8578 46.8287 58.9301 47.0548 58.1276 47.5332C57.3252 48.0116 56.6852 48.7202 56.2907 49.567H56.1443V40.7811H50.8276V65.6939H53.736C54.0652 64.7123 54.2786 63.6575 54.9554 62.8588C56.3028 65.0781 57.571 66.0537 60.2233 66.0537C65.7778 66.0537 67.7045 61.2979 67.7045 56.469C67.7045 52.1095 66.107 46.8843 60.8391 46.8843" fill="black"/>
<path d="M75.6063 50.695H75.5332V47.244H70.5457V65.6939H75.8868V58.6761C75.8868 55.4081 76.3929 52.1034 80.4596 52.3229V46.9574L79.5512 46.8843C77.2282 46.7014 76.1368 48.7134 75.5941 50.695" fill="black"/>
<path d="M110.055 50.9511C111.976 50.9511 112.847 52.5851 112.847 54.2557L117.932 53.9631C117.573 49.6402 114.158 46.8843 109.872 46.8843C104.062 46.8843 100.647 50.9877 100.647 56.6397C100.647 62.0844 103.952 66.0415 109.543 66.0415C114.049 66.0415 117.5 63.3221 117.932 58.7249L112.847 58.4383C112.671 60.1455 111.726 61.6332 109.836 61.6332C106.787 61.6332 106.75 58.4383 106.75 56.1824C106.75 53.8228 107.11 50.9206 110.055 50.9206" fill="black"/>
<path d="M128.609 62.499C125.56 62.499 125.597 57.9933 125.597 55.8898C125.597 53.7862 125.779 50.4023 128.645 50.4023C129.196 50.3515 129.747 50.4891 130.209 50.7926C130.671 51.0962 131.016 51.5476 131.188 52.073C131.643 53.5551 131.849 55.1024 131.797 56.6519C131.797 58.8651 131.651 62.499 128.639 62.499H128.609ZM128.639 46.8843C123.011 46.8843 119.89 51.0608 119.89 56.4324C119.89 61.804 122.975 66.0537 128.639 66.0537C134.084 66.0537 137.535 61.8771 137.535 56.6153C137.535 51.1706 134.413 46.8599 128.639 46.8599" fill="black"/>
<path d="M155.265 48.9208C154.727 48.2419 154.033 47.7029 153.243 47.3494C152.452 46.996 151.587 46.8385 150.723 46.8905C148.034 46.8905 146.51 48.0123 145.424 50.378H145.351V47.2441H140.303V65.694H145.638V55.7801C145.564 54.6568 145.773 53.5329 146.247 52.512C146.462 52.0993 146.784 51.7529 147.181 51.5101C147.577 51.2673 148.032 51.1373 148.497 51.1341C151.18 51.1341 150.936 53.89 150.936 55.7801V65.694H156.271V54.2924C156.271 52.6217 156.271 50.2987 155.259 48.9147" fill="black"/>
<path d="M7.31857 34.3425C8.35948 34.3505 9.38962 34.1315 10.3373 33.7008C11.285 33.2702 12.1274 32.6382 12.806 31.8488L11.1415 30.4038C10.6743 30.9575 10.0875 31.3979 9.4252 31.6915C8.76292 31.9851 8.04257 32.1244 7.31857 32.0988C6.67252 32.1191 6.02917 32.0068 5.42819 31.7689C4.82722 31.5309 4.28137 31.1724 3.82432 30.7153C3.36727 30.2583 3.00872 29.7124 2.77078 29.1115C2.53284 28.5105 2.42056 27.8671 2.44087 27.2211C2.42168 26.5736 2.53446 25.929 2.77232 25.3265C3.01018 24.7241 3.36817 24.1763 3.82447 23.7165C4.28078 23.2568 4.82587 22.8948 5.42656 22.6524C6.02726 22.41 6.67098 22.2924 7.31857 22.3068C8.03507 22.2883 8.74668 22.4298 9.40165 22.7209C10.0566 23.012 10.6385 23.4454 11.1049 23.9896L12.806 22.5324C12.1334 21.7372 11.2916 21.1023 10.3423 20.674C9.39288 20.2457 8.35984 20.0349 7.31857 20.057C6.3611 20.0365 5.40905 20.2059 4.51743 20.5554C3.6258 20.9049 2.81227 21.4277 2.12382 22.0934C1.4325 22.7506 0.886521 23.5453 0.521073 24.4264C0.155624 25.3075 -0.0211902 26.2553 0.00202258 27.2089C-0.0203331 28.1614 0.156898 29.1081 0.52232 29.9881C0.887743 30.868 1.43327 31.6618 2.12382 32.3183C3.52039 33.6522 5.38769 34.3798 7.31857 34.3425Z" fill="black"/>
<path d="M22.1651 31.3488C21.5721 31.9196 20.7811 32.2385 19.958 32.2385C19.1349 32.2385 18.3438 31.9196 17.7508 31.3488C17.1763 30.7472 16.8629 29.9429 16.8789 29.1112C16.8677 28.7016 16.9391 28.294 17.0889 27.9127C17.2387 27.5314 17.4638 27.1842 17.7508 26.8918C18.3362 26.3065 19.1302 25.9777 19.958 25.9777C20.7858 25.9777 21.5797 26.3065 22.1651 26.8918C22.4592 27.1802 22.6905 27.5261 22.8447 27.908C22.9989 28.2899 23.0727 28.6995 23.0614 29.1112C23.072 29.5255 22.9979 29.9376 22.8438 30.3223C22.6897 30.7071 22.4588 31.0563 22.1651 31.3488ZM25.4149 29.1112C25.4294 28.408 25.2958 27.7096 25.0227 27.0615C24.7495 26.4134 24.3431 25.83 23.8297 25.3492C23.3205 24.8503 22.7168 24.4579 22.0541 24.1951C21.3914 23.9324 20.6829 23.8044 19.9702 23.8189C19.2565 23.8043 18.547 23.9321 17.8833 24.1949C17.2196 24.4577 16.6149 24.8501 16.1046 25.3492C15.6028 25.8388 15.204 26.4239 14.9317 27.07C14.6594 27.716 14.5191 28.4101 14.5191 29.1112C14.5191 29.8123 14.6594 30.5063 14.9317 31.1524C15.204 31.7984 15.6028 32.3835 16.1046 32.8731C16.6152 33.3714 17.2201 33.7629 17.8838 34.0246C18.5476 34.2864 19.2569 34.4131 19.9702 34.3974C20.6826 34.4129 21.3909 34.2861 22.0536 34.0244C22.7163 33.7627 23.3202 33.3712 23.8297 32.8731C24.3428 32.3921 24.749 31.8087 25.0221 31.1606C25.2952 30.5125 25.429 29.8143 25.4149 29.1112Z" fill="black"/>
<path d="M30.4266 28.3551C30.4137 28.0474 30.4648 27.7404 30.5767 27.4534C30.6885 27.1665 30.8587 26.9059 31.0765 26.6881C31.2943 26.4703 31.5549 26.3001 31.8418 26.1883C32.1288 26.0764 32.4358 26.0253 32.7435 26.0382C33.0355 26.0196 33.328 26.0651 33.6005 26.1714C33.873 26.2778 34.119 26.4425 34.3211 26.6539C34.5233 26.8654 34.6768 27.1185 34.7708 27.3955C34.8648 27.6725 34.8971 27.9668 34.8653 28.2576V34.1047H37.2432V27.9223C37.2432 25.4468 35.8348 23.9225 33.4569 23.9225C32.8477 23.8791 32.2386 24.0082 31.6994 24.295C31.1602 24.5819 30.7128 25.0149 30.4084 25.5444V24.1176H28.0488V34.1047H30.4266V28.3551Z" fill="black"/>
<path d="M45.0049 28.221C44.6086 28.0808 44.0537 27.8796 43.7854 27.8003C43.5076 27.7006 43.2367 27.5824 42.9745 27.4467C42.8409 27.3852 42.7273 27.2874 42.6465 27.1646C42.5656 27.0417 42.5209 26.8987 42.5172 26.7516C42.5172 26.2151 42.9928 25.8614 43.7367 25.8614C44.1029 25.8371 44.4697 25.9002 44.8068 26.0454C45.1439 26.1907 45.4416 26.4139 45.6756 26.6968L46.9498 25.2883C46.5685 24.8023 46.0758 24.4151 45.5134 24.1593C44.951 23.9036 44.3354 23.7869 43.7184 23.8189C42.8106 23.7975 41.9226 24.0856 41.2003 24.6359C40.8797 24.897 40.6257 25.2305 40.4593 25.6089C40.2929 25.9873 40.2187 26.3999 40.243 26.8126C40.243 28.2393 41.0905 29.0502 42.6819 29.6234C43.0172 29.7636 43.6086 29.9404 43.9013 30.0441C44.2233 30.1383 44.5356 30.2628 44.8341 30.416C44.9925 30.4838 45.1295 30.5934 45.2304 30.733C45.3313 30.8726 45.3925 31.037 45.4073 31.2086C45.4073 31.8183 44.8707 32.3 43.6269 32.3C43.118 32.3249 42.6108 32.2238 42.1503 32.0058C41.6898 31.7878 41.2902 31.4595 40.9869 31.0501L39.4626 32.3366C40.0723 33.5865 41.5844 34.3608 43.5842 34.3608C46.2975 34.3608 47.6876 33.0317 47.6876 31.1903C47.6876 29.7636 46.8523 28.8734 45.011 28.221" fill="black"/>
<path d="M65.5644 25.6054V24.1177H63.2048V34.1047H65.5644V28.8551C65.537 28.4924 65.5892 28.1281 65.7172 27.7877C65.8452 27.4472 66.046 27.1388 66.3055 26.8839C66.565 26.6291 66.877 26.4339 67.2197 26.3121C67.5624 26.1902 67.9276 26.1446 68.2898 26.1785C68.6213 26.1807 68.9519 26.2134 69.2775 26.276V23.9774C69.0318 23.9357 68.7828 23.9173 68.5337 23.9226C67.9281 23.8798 67.3233 24.0166 66.7951 24.316C66.2669 24.6153 65.8388 25.0638 65.5644 25.6054Z" fill="black"/>
<path d="M76.2588 34.3791C77.0108 34.3966 77.7577 34.2521 78.4489 33.9554C79.1401 33.6588 79.7593 33.2169 80.2646 32.6597L78.7952 31.1293C78.4749 31.4818 78.0828 31.7616 77.6453 31.9499C77.2078 32.1381 76.735 32.2305 76.2588 32.2207C75.8516 32.2302 75.4467 32.1561 75.0692 32.003C74.6916 31.8499 74.3495 31.621 74.0639 31.3306C73.5026 30.7206 73.191 29.9219 73.191 29.0929C73.191 28.264 73.5026 27.4653 74.0639 26.8553C74.3483 26.5628 74.6901 26.3323 75.0678 26.178C75.4455 26.0238 75.851 25.9492 76.2588 25.959C76.7348 25.9504 77.2072 26.0433 77.6446 26.2315C78.0819 26.4197 78.4742 26.6988 78.7952 27.0504L80.2646 25.5261C79.7604 24.9672 79.1415 24.5238 78.4501 24.226C77.7588 23.9282 77.0114 23.7831 76.2588 23.8006C75.5466 23.7864 74.8387 23.9138 74.1761 24.1755C73.5136 24.4372 72.9096 24.8279 72.3993 25.3249C71.9027 25.8199 71.5087 26.4082 71.2398 27.0558C70.9709 27.7034 70.8325 28.3978 70.8325 29.099C70.8325 29.8002 70.9709 30.4946 71.2398 31.1422C71.5087 31.7899 71.9027 32.3781 72.3993 32.8731C72.9097 33.3688 73.5141 33.7574 74.1769 34.0161C74.8397 34.2747 75.5476 34.3981 76.2588 34.3791Z" fill="black"/>
<path d="M83.8862 20.1362C83.6077 20.1362 83.3353 20.2188 83.1037 20.3736C82.8721 20.5283 82.6916 20.7483 82.585 21.0056C82.4784 21.263 82.4505 21.5462 82.5048 21.8194C82.5592 22.0926 82.6933 22.3436 82.8903 22.5405C83.0873 22.7375 83.3382 22.8717 83.6114 22.926C83.8847 22.9804 84.1678 22.9525 84.4252 22.8459C84.6826 22.7393 84.9025 22.5587 85.0573 22.3271C85.2121 22.0955 85.2947 21.8232 85.2947 21.5446C85.2947 21.1711 85.1463 20.8129 84.8821 20.5487C84.618 20.2846 84.2598 20.1362 83.8862 20.1362Z" fill="black"/>
<path d="M85.0751 24.1176H82.6973V34.1047H85.0751V24.1176Z" fill="black"/>
<path d="M95.373 31.3489C94.78 31.9196 93.9889 32.2385 93.1659 32.2385C92.3428 32.2385 91.5517 31.9196 90.9587 31.3489C90.3842 30.7472 90.0708 29.9429 90.0868 29.1112C90.0756 28.7017 90.147 28.2941 90.2968 27.9128C90.4466 27.5314 90.6717 27.1842 90.9587 26.8919C91.5457 26.3095 92.339 25.9828 93.1659 25.9828C93.9927 25.9828 94.786 26.3095 95.373 26.8919C95.6662 27.1805 95.8967 27.5267 96.0498 27.9086C96.203 28.2905 96.2757 28.6999 96.2632 29.1112C96.2746 29.5251 96.2015 29.9369 96.0484 30.3217C95.8954 30.7064 95.6656 31.0559 95.373 31.3489ZM93.1781 23.8189C92.4643 23.8037 91.7546 23.9312 91.0908 24.194C90.427 24.4568 89.8224 24.8496 89.3125 25.3493C88.8107 25.8389 88.4119 26.4239 88.1396 27.07C87.8673 27.7161 87.727 28.4101 87.727 29.1112C87.727 29.8123 87.8673 30.5063 88.1396 31.1524C88.4119 31.7985 88.8107 32.3835 89.3125 32.8731C90.3604 33.8521 91.741 34.3966 93.175 34.3966C94.6091 34.3966 95.9896 33.8521 97.0375 32.8731C97.5394 32.3835 97.9382 31.7985 98.2105 31.1524C98.4828 30.5063 98.623 29.8123 98.623 29.1112C98.623 28.4101 98.4828 27.7161 98.2105 27.07C97.9382 26.4239 97.5394 25.8389 97.0375 25.3493C96.5283 24.8503 95.9247 24.458 95.262 24.1952C94.5993 23.9324 93.8908 23.8045 93.1781 23.8189Z" fill="black"/>
<path d="M57.882 20.2948H55.1871L54.3579 22.6544H56.3029L57.882 20.2948Z" fill="black"/>
<path d="M52.8885 26.8919C53.4755 26.3096 54.2688 25.9828 55.0956 25.9828C55.9225 25.9828 56.7158 26.3096 57.3028 26.8919C57.5968 27.1803 57.8282 27.5262 57.9824 27.9081C58.1366 28.29 58.2104 28.6996 58.1991 29.1112C58.2112 29.5247 58.1391 29.9363 57.9871 30.321C57.8351 30.7057 57.6064 31.0554 57.315 31.3489C56.722 31.9197 55.9309 32.2385 55.1078 32.2385C54.2847 32.2385 53.4937 31.9197 52.9007 31.3489C52.3262 30.7473 52.0128 29.9429 52.0288 29.1112C52.0175 28.7017 52.0889 28.2941 52.2387 27.9128C52.3885 27.5315 52.6137 27.1842 52.9007 26.8919H52.8885ZM55.12 34.3974C55.8324 34.413 56.5407 34.2862 57.2035 34.0245C57.8662 33.7627 58.47 33.3713 58.9795 32.8732C59.4813 32.3836 59.8801 31.7985 60.1524 31.1524C60.4247 30.5064 60.565 29.8123 60.565 29.1112C60.565 28.4101 60.4247 27.7161 60.1524 27.07C59.8801 26.424 59.4813 25.8389 58.9795 25.3493C57.9336 24.3663 56.5523 23.8191 55.117 23.8191C53.6816 23.8191 52.3003 24.3663 51.2544 25.3493C50.7526 25.8389 50.3538 26.424 50.0815 27.07C49.8092 27.7161 49.6689 28.4101 49.6689 29.1112C49.6689 29.8123 49.8092 30.5064 50.0815 31.1524C50.3538 31.7985 50.7526 32.3836 51.2544 32.8732C51.7651 33.3715 52.3699 33.763 53.0337 34.0247C53.6974 34.2864 54.4067 34.4131 55.12 34.3974Z" fill="black"/>
<path d="M3.59728 80.2686C3.50349 80.3199 3.39922 80.3491 3.29242 80.3539H2.16445V79.0308H3.28632C3.39483 79.0319 3.50148 79.0591 3.59728 79.1101C3.76799 79.1772 3.87165 79.3906 3.87165 79.7198C3.88302 79.8313 3.86343 79.9438 3.81502 80.0449C3.76662 80.1461 3.69128 80.2319 3.59728 80.2929V80.2686ZM3.35949 77.5492H0.499939V83.6464H2.16445V81.8782H3.38388C3.9362 81.8742 4.46532 81.6555 4.85938 81.2685C5.07178 81.0674 5.23796 80.8226 5.34639 80.551C5.45483 80.2794 5.50294 79.9875 5.48738 79.6954C5.49881 79.3831 5.43948 79.0723 5.31383 78.7862C5.18819 78.5 4.99948 78.246 4.76183 78.0431C4.37013 77.7081 3.87478 77.5186 3.35949 77.5066" fill="#6D6E71"/>
<path d="M10.4993 81.7746C10.3049 81.9636 10.0671 82.102 9.8068 82.1778C9.54648 82.2537 9.27154 82.2645 9.00607 82.2094C8.7406 82.1543 8.49269 82.0349 8.28405 81.8618C8.07541 81.6886 7.9124 81.4669 7.8093 81.2162C7.7062 80.9654 7.66616 80.6932 7.69268 80.4234C7.71919 80.1535 7.81146 79.8943 7.9614 79.6684C8.11134 79.4425 8.31438 79.2568 8.55274 79.1276C8.7911 78.9984 9.0575 78.9296 9.32862 78.9272C9.54792 78.9236 9.76552 78.9663 9.96723 79.0524C10.1689 79.1386 10.3502 79.2663 10.4993 79.4272C10.6587 79.5774 10.7854 79.7589 10.8714 79.9603C10.9574 80.1618 11.0009 80.3788 10.9992 80.5978C11.0003 80.8177 10.9566 81.0354 10.8706 81.2378C10.7846 81.4401 10.6583 81.6227 10.4993 81.7746ZM9.32862 77.4334C8.88977 77.4231 8.45321 77.4997 8.04407 77.6587C7.63493 77.8178 7.26129 78.0562 6.94465 78.3602C6.63812 78.6455 6.39366 78.9909 6.22651 79.3748C6.05935 79.7587 5.97308 80.173 5.97308 80.5917C5.97308 81.0105 6.05935 81.4247 6.22651 81.8087C6.39366 82.1926 6.63812 82.538 6.94465 82.8233C7.58627 83.4334 8.44347 83.7644 9.32862 83.7439C10.2138 83.7644 11.071 83.4334 11.7126 82.8233C12.025 82.5418 12.2745 82.1975 12.4447 81.8129C12.6149 81.4284 12.702 81.0122 12.7003 80.5917C12.7048 80.1708 12.6189 79.7538 12.4485 79.3688C12.2781 78.9839 12.0272 78.6399 11.7126 78.3602C11.3959 78.0562 11.0223 77.8178 10.6132 77.6587C10.204 77.4997 9.76747 77.4231 9.32862 77.4334Z" fill="#6D6E71"/>
<path d="M16.0538 80.3966H15.127V79.0309H16.194C16.2773 79.0307 16.3597 79.0476 16.4361 79.0805C16.5126 79.1134 16.5815 79.1616 16.6386 79.2222C16.6958 79.2827 16.7399 79.3543 16.7683 79.4326C16.7967 79.5108 16.8087 79.5941 16.8037 79.6771C16.8132 79.774 16.8011 79.8717 16.7683 79.9633C16.7355 80.0549 16.6828 80.1381 16.614 80.2069C16.5452 80.2757 16.462 80.3284 16.3704 80.3612C16.2788 80.394 16.1811 80.4061 16.0843 80.3966H16.0538ZM18.4561 79.6284C18.4652 79.3514 18.4156 79.0757 18.3105 78.8192C18.2054 78.5628 18.0472 78.3316 17.8464 78.1407C17.6405 77.9411 17.397 77.7845 17.1301 77.6798C16.8632 77.5752 16.5782 77.5246 16.2916 77.531H13.4625V83.6281H15.127V81.7014H15.7367L16.9562 83.6037H18.9012L17.383 81.3478C17.7041 81.1863 17.9723 80.9363 18.156 80.6273C18.3396 80.3183 18.4311 79.9632 18.4195 79.604" fill="#6D6E71"/>
<path d="M23.8825 81.2807L23.2118 80.5308L22.1143 81.4758L22.7667 82.1953C22.6339 82.219 22.4991 82.2292 22.3643 82.2258C22.1468 82.2291 21.9309 82.1893 21.7289 82.1088C21.5269 82.0282 21.3429 81.9084 21.1875 81.7563C20.956 81.524 20.7986 81.2283 20.7352 80.9066C20.6717 80.5848 20.7051 80.2515 20.831 79.9487C20.9569 79.6459 21.1698 79.3873 21.4427 79.2055C21.7156 79.0236 22.0363 78.9268 22.3643 78.9272C22.8006 78.935 23.217 79.1114 23.5262 79.4194C23.8354 79.7274 24.0133 80.1432 24.0227 80.5795C24.0332 80.8211 23.985 81.0617 23.8825 81.2807ZM24.7421 78.3541C24.0901 77.7654 23.2428 77.4395 22.3643 77.4395C21.4858 77.4395 20.6385 77.7654 19.9864 78.3541C19.6818 78.6392 19.439 78.9839 19.273 79.3667C19.107 79.7495 19.0214 80.1623 19.0214 80.5795C19.0214 80.9968 19.107 81.4096 19.273 81.7924C19.439 82.1752 19.6818 82.5198 19.9864 82.805C20.6309 83.4052 21.4837 83.731 22.3643 83.7135C22.8801 83.7189 23.3906 83.6085 23.8581 83.3903L24.3946 84L25.486 83.0489L24.986 82.4879C25.465 81.9756 25.729 81.2991 25.7238 80.5978C25.7289 80.1782 25.6439 79.7624 25.4746 79.3785C25.3052 78.9946 25.0555 78.6515 24.7421 78.3724" fill="#6D6E71"/>
<path d="M30.2357 80.8234C30.2357 81.8355 29.8516 82.2074 29.1565 82.2074C28.4614 82.2074 28.0834 81.8355 28.0834 80.8234V77.5248H26.4189V81.0002C26.3942 81.374 26.4511 81.7488 26.5859 82.0984C26.7207 82.448 26.93 82.764 27.1993 83.0244C27.7554 83.4702 28.4468 83.7132 29.1596 83.7132C29.8723 83.7132 30.5637 83.4702 31.1198 83.0244C31.3891 82.764 31.5984 82.448 31.7332 82.0984C31.868 81.7488 31.925 81.374 31.9002 81.0002V77.5248H30.2357V80.8234Z" fill="#6D6E71"/>
<path d="M34.4975 81.2258H37.1376V79.86H34.4975V79.0247H37.3327V77.5248H32.833V83.6281H37.3998V82.1587H34.4975V81.2258Z" fill="#6D6E71"/>
<path d="M43.9603 80.0186C43.6091 79.8903 43.2508 79.7824 42.8872 79.6954C42.7824 79.6711 42.6803 79.6363 42.5823 79.5918C42.5056 79.5719 42.4383 79.5255 42.3926 79.4607C42.3468 79.396 42.3255 79.3171 42.3323 79.2382C42.3323 79.0248 42.5701 78.8662 42.9969 78.8662C43.2056 78.8559 43.4138 78.894 43.6052 78.9776C43.7967 79.0612 43.9662 79.1879 44.1005 79.3479L45.198 78.409C44.9266 78.0771 44.5795 77.8153 44.1859 77.6455C43.7922 77.4757 43.3636 77.403 42.9359 77.4334C42.3799 77.4126 41.8334 77.5826 41.3873 77.9151C41.1842 78.0736 41.0226 78.279 40.9164 78.5137C40.8102 78.7484 40.7625 79.0054 40.7776 79.2625C40.7833 79.6712 40.9257 80.0662 41.1821 80.3844C41.4385 80.7027 41.794 80.9259 42.1921 81.0185C42.4787 81.1283 42.9177 81.2563 43.1554 81.3295L43.5091 81.4514C43.7469 81.549 43.8505 81.6587 43.8505 81.8294C43.8505 82.116 43.5822 82.2684 43.0396 82.2684C42.7354 82.2798 42.433 82.2176 42.1581 82.087C41.8832 81.9564 41.6438 81.7614 41.4604 81.5185L40.2898 82.4209C40.5471 82.8034 40.892 83.1191 41.2958 83.3415C41.8175 83.6084 42.3992 83.7365 42.9847 83.7134C44.6066 83.7134 45.4236 82.9635 45.4236 81.7807C45.4236 80.9515 44.9968 80.3966 43.942 80.0186" fill="#6D6E71"/>
<path d="M50.3866 81.7746C50.1543 82.006 49.8586 82.1635 49.5369 82.2269C49.2151 82.2904 48.8818 82.257 48.579 82.1311C48.2762 82.0052 48.0176 81.7923 47.8358 81.5194C47.6539 81.2464 47.5571 80.9258 47.5575 80.5978C47.5543 80.3791 47.5965 80.1622 47.6815 79.9606C47.7665 79.7591 47.8925 79.5775 48.0514 79.4272C48.2004 79.2663 48.3817 79.1386 48.5834 79.0524C48.7851 78.9663 49.0027 78.9236 49.222 78.9272C49.4421 78.9243 49.6605 78.9672 49.8631 79.0533C50.0656 79.1394 50.2481 79.2667 50.3988 79.4272C50.5562 79.5786 50.6812 79.7605 50.7661 79.9617C50.851 80.163 50.8941 80.3794 50.8927 80.5978C50.8935 80.8171 50.8502 81.0342 50.7653 81.2364C50.6805 81.4386 50.5558 81.6216 50.3988 81.7746H50.3866ZM49.2098 77.4334C48.771 77.4231 48.3344 77.4997 47.9253 77.6587C47.5162 77.8178 47.1425 78.0562 46.8259 78.3602C46.5194 78.6455 46.2749 78.9909 46.1077 79.3748C45.9406 79.7587 45.8543 80.173 45.8543 80.5917C45.8543 81.0105 45.9406 81.4247 46.1077 81.8087C46.2749 82.1926 46.5194 82.538 46.8259 82.8233C47.4787 83.4154 48.3285 83.7434 49.2098 83.7434C50.0912 83.7434 50.941 83.4154 51.5938 82.8233C51.9062 82.5418 52.1557 82.1975 52.3259 81.8129C52.4961 81.4284 52.5832 81.0122 52.5816 80.5917C52.586 80.1708 52.5001 79.7538 52.3297 79.3688C52.1593 78.9839 51.9084 78.6399 51.5938 78.3602C51.2772 78.0562 50.9035 77.8178 50.4944 77.6587C50.0852 77.4997 49.6487 77.4231 49.2098 77.4334Z" fill="#6D6E71"/>
<path d="M57.3922 80.799L54.8314 77.5248H53.3437V83.6281H54.9411V80.2198L57.63 83.6281H58.9835V77.5248H57.3922V80.799Z" fill="#6D6E71"/>
<path d="M63.9466 79.6466H61.648V77.5248H59.9835V83.6281H61.648V81.1648H63.9466V83.6281H65.6051V77.5248H63.9466V79.6466Z" fill="#6D6E71"/>
<path d="M68.6719 81.5428L69.4096 79.6527L70.1474 81.5428H68.6719ZM68.6719 77.5248L66.1843 83.622H67.9341L68.2634 82.8232H70.6047L70.9217 83.622H72.6838L70.1962 77.5248H68.6719Z" fill="#6D6E71"/>
<path d="M75.8056 80.3966H74.8789V79.0309H75.9459C76.0291 79.0307 76.1115 79.0476 76.188 79.0805C76.2644 79.1134 76.3333 79.1617 76.3905 79.2222C76.4476 79.2828 76.4917 79.3544 76.5201 79.4326C76.5485 79.5109 76.5606 79.5941 76.5556 79.6772C76.565 79.774 76.5529 79.8717 76.5201 79.9633C76.4873 80.0549 76.4346 80.1381 76.3658 80.2069C76.297 80.2757 76.2139 80.3284 76.1223 80.3612C76.0307 80.394 75.9329 80.4061 75.8361 80.3966H75.8056ZM78.2079 79.6284C78.2178 79.3514 78.1685 79.0754 78.0634 78.8188C77.9583 78.5623 77.7997 78.3311 77.5982 78.1407C77.3939 77.9408 77.1515 77.7839 76.8856 77.6791C76.6196 77.5744 76.3353 77.524 76.0495 77.531H73.2753V83.6281H74.9398V81.7014H75.5496L76.769 83.6037H78.653L77.1287 81.3478C77.4514 81.1877 77.7213 80.9383 77.9062 80.6291C78.0911 80.3199 78.1831 79.9641 78.1713 79.604" fill="#6D6E71"/>
<path d="M85.8415 80.799L83.2868 77.5248H81.7991V83.6281H83.3904V80.2198L86.0792 83.6281H87.4389V77.5248H85.8415V80.799Z" fill="#6D6E71"/>
<path d="M90.5057 81.5428L91.2373 79.6527L91.9751 81.5428H90.5057ZM90.4752 77.5248L87.9876 83.622H89.7436L90.0667 82.8232H92.4141L92.725 83.622H94.5054L92.0178 77.5248H90.4752Z" fill="#6D6E71"/>
<path d="M90.4935 76.8237C90.7226 76.8463 90.9457 76.9104 91.152 77.0127C91.4013 77.1337 91.6736 77.2003 91.9507 77.2078C92.7006 77.2078 93.1396 76.7505 93.2616 75.8482L92.4019 75.7079C92.3409 75.9579 92.2129 76.0799 92.0178 76.0799C91.7879 76.057 91.5645 75.9908 91.3593 75.8847C91.1174 75.767 90.8537 75.7006 90.5849 75.6896C90.2425 75.6959 89.9158 75.8347 89.6735 76.0769C89.4313 76.3191 89.2925 76.6458 89.2863 76.9883L90.146 77.1286C90.1474 77.0853 90.1577 77.0427 90.1763 77.0036C90.1948 76.9644 90.2212 76.9295 90.2537 76.9009C90.2863 76.8724 90.3244 76.8508 90.3656 76.8375C90.4068 76.8242 90.4504 76.8195 90.4935 76.8237Z" fill="#6D6E71"/>
<path d="M98.9442 81.7746C98.7498 81.9636 98.512 82.102 98.2517 82.1778C97.9914 82.2537 97.7164 82.2645 97.451 82.2094C97.1855 82.1543 96.9376 82.0349 96.7289 81.8618C96.5203 81.6886 96.3573 81.4669 96.2542 81.2162C96.1511 80.9654 96.111 80.6932 96.1376 80.4234C96.1641 80.1535 96.2563 79.8943 96.4063 79.6684C96.5562 79.4425 96.7593 79.2568 96.9976 79.1276C97.236 78.9984 97.5024 78.9296 97.7735 78.9272C97.9928 78.9236 98.2104 78.9663 98.4121 79.0524C98.6138 79.1386 98.7951 79.2663 98.9442 79.4272C99.1036 79.5774 99.2303 79.7589 99.3163 79.9603C99.4023 80.1618 99.4458 80.3788 99.4441 80.5978C99.4452 80.8177 99.4014 81.0354 99.3155 81.2378C99.2295 81.4401 99.1032 81.6228 98.9442 81.7746ZM97.7735 77.4334C97.3347 77.4231 96.8981 77.4997 96.489 77.6587C96.0798 77.8178 95.7062 78.0562 95.3895 78.3602C95.083 78.6455 94.8386 78.9909 94.6714 79.3748C94.5042 79.7587 94.418 80.173 94.418 80.5917C94.418 81.0105 94.5042 81.4247 94.6714 81.8087C94.8386 82.1926 95.083 82.538 95.3895 82.8233C96.0424 83.4154 96.8922 83.7434 97.7735 83.7434C98.6548 83.7434 99.5047 83.4154 100.157 82.8233C100.47 82.5418 100.719 82.1975 100.89 81.8129C101.06 81.4284 101.147 81.0122 101.145 80.5917C101.15 80.1708 101.064 79.7538 100.893 79.3688C100.723 78.9839 100.472 78.6399 100.157 78.3602C99.8408 78.0562 99.4672 77.8178 99.0581 77.6587C98.6489 77.4997 98.2124 77.4231 97.7735 77.4334Z" fill="#6D6E71"/>
<path d="M103.206 79.0308H104.852V83.6281H106.517V79.0308H108.126V77.5248H103.206V79.0308Z" fill="#6D6E71"/>
<path d="M110.333 81.2258H112.98V79.86H110.333V79.0247H113.175V77.5248H108.669V83.6281H113.242V82.1587H110.333V81.2258Z" fill="#6D6E71"/>
<path d="M117.437 80.299L115.461 77.5248H114.095V83.6281H115.632V80.3966L117.437 82.8903L119.241 80.3966V83.6281H120.784V77.5248H119.418L117.437 80.299Z" fill="#6D6E71"/>
<path d="M126.076 77.5248H124.412V83.6281H128.399V82.1221H126.076V77.5248Z" fill="#6D6E71"/>
<path d="M130.771 77.5248H129.106V83.6281H130.771V77.5248Z" fill="#6D6E71"/>
<path d="M135.149 80.299L133.173 77.5248H131.808V83.6281H133.344V80.3966L135.149 82.8903L136.954 80.3966V83.6281H138.496V77.5248H137.13L135.149 80.299Z" fill="#6D6E71"/>
<path d="M141.197 77.5248H139.533V83.6281H141.197V77.5248Z" fill="#6D6E71"/>
<path d="M141.776 79.0308H143.416V83.6281H145.081V79.0308H146.697V77.5248H141.776V79.0308Z" fill="#6D6E71"/>
<path d="M148.904 81.2258H151.55V79.86H148.904V79.0247H151.739V77.5248H147.239V83.6281H151.812V82.1587H148.904V81.2258Z" fill="#6D6E71"/>
<path d="M155.83 80.0186C155.479 79.8903 155.121 79.7824 154.757 79.6955C154.65 79.671 154.546 79.6363 154.446 79.5918C154.371 79.5707 154.305 79.5238 154.26 79.4592C154.216 79.3945 154.195 79.3163 154.202 79.2382C154.202 79.0248 154.44 78.8662 154.867 78.8662C155.076 78.8564 155.284 78.8947 155.475 78.9783C155.666 79.0618 155.836 79.1883 155.971 79.3479L157.068 78.409C156.796 78.0775 156.449 77.8159 156.056 77.6462C155.662 77.4765 155.234 77.4035 154.806 77.4334C154.25 77.4126 153.703 77.5826 153.257 77.9151C153.049 78.0703 152.881 78.2743 152.77 78.5092C152.658 78.7441 152.606 79.0027 152.617 79.2626C152.622 79.6704 152.764 80.0647 153.019 80.3829C153.274 80.701 153.629 80.9248 154.026 81.0185C154.318 81.1283 154.757 81.2563 154.989 81.3295L155.349 81.4514C155.586 81.549 155.69 81.6587 155.69 81.8294C155.69 82.116 155.422 82.2684 154.879 82.2684C154.584 82.2703 154.292 82.2029 154.027 82.0716C153.762 81.9403 153.532 81.7488 153.355 81.5124L152.178 82.4148C152.439 82.7945 152.783 83.1095 153.184 83.3354C153.708 83.6018 154.292 83.7298 154.879 83.7074C156.495 83.7074 157.318 82.9574 157.318 81.7746C157.318 80.9454 156.891 80.3905 155.836 80.0125" fill="#6D6E71"/>
</svg>
