<svg width="42" height="53" viewBox="0 0 42 53" fill="none" xmlns="http://www.w3.org/2000/svg">
<path d="M40.861 28.7676C40.6809 28.1767 40.3172 27.6605 39.8241 27.2962C39.331 26.932 38.7349 26.7391 38.1247 26.7464H27.1335L23.7479 16.1699C23.5546 15.5864 23.1854 15.0791 22.6924 14.7197C22.1993 14.3603 21.6074 14.167 21.0001 14.167C20.3928 14.167 19.8008 14.3603 19.3078 14.7197C18.8148 15.0791 18.4455 15.5864 18.2523 16.1699L14.8667 26.7464H3.89863C3.28499 26.7359 2.68416 26.9247 2.18399 27.2852C1.68381 27.6457 1.31057 28.1589 1.11882 28.7498C0.927081 29.3408 0.926835 29.9784 1.11826 30.5694C1.30968 31.1604 1.68273 31.6739 2.18271 32.0346L11.0639 38.5685L7.67835 49.1685C7.497 49.7562 7.50238 50.3867 7.69378 50.9711C7.88517 51.5555 8.25285 52.0642 8.74493 52.4253C9.23701 52.7864 9.82858 52.9817 10.4361 52.9835C11.0436 52.9853 11.6363 52.7936 12.1305 52.4355L21.0117 45.9016L29.8929 52.4355C30.3846 52.8006 30.978 52.998 31.5876 52.999C32.1971 53 32.7912 52.8045 33.2841 52.441C33.777 52.0774 34.1431 51.5645 34.3296 50.9763C34.5161 50.3881 34.5134 49.755 34.3218 49.1685L30.9362 38.5685L39.8174 32.0346C40.3131 31.6746 40.6818 31.1631 40.8696 30.5751C41.0574 29.9872 41.0544 29.3537 40.861 28.7676V28.7676ZM27.8755 36.4768C27.5814 36.6989 27.363 37.0084 27.2508 37.3623C27.1386 37.7162 27.1381 38.0968 27.2494 38.451L30.4726 48.487L22.032 42.282C21.7318 42.0718 21.3765 41.9572 21.0117 41.953C20.6464 41.9543 20.2903 42.0692 19.9914 42.282L11.5508 48.487L14.774 38.451C14.8853 38.0968 14.8848 37.7162 14.7726 37.3623C14.6604 37.0084 14.4419 36.6989 14.1479 36.4768L5.70739 30.2719H16.119C16.4894 30.2749 16.8511 30.158 17.1514 29.9382C17.4517 29.7184 17.6749 29.407 17.7885 29.0497L21.0117 18.9903L24.2349 29.0497C24.3441 29.4052 24.563 29.7158 24.8593 29.9358C25.1557 30.1558 25.5138 30.2736 25.8812 30.2719H36.2928L27.8755 36.4768Z" fill="#152536"/>
<path d="M21.0115 11.7517C21.4728 11.7517 21.9151 11.566 22.2413 11.2354C22.5674 10.9048 22.7506 10.4564 22.7506 9.98891V1.76275C22.7506 1.29524 22.5674 0.846867 22.2413 0.516287C21.9151 0.185707 21.4728 0 21.0115 0C20.5503 0 20.1079 0.185707 19.7817 0.516287C19.4556 0.846867 19.2724 1.29524 19.2724 1.76275V9.98891C19.2693 10.2213 19.312 10.4519 19.3983 10.6672C19.4846 10.8825 19.6127 11.0781 19.7748 11.2424C19.9369 11.4067 20.1299 11.5365 20.3423 11.624C20.5548 11.7115 20.7823 11.7548 21.0115 11.7517V11.7517Z" fill="#152536"/>
<path d="M29.8 18.2154C30.1464 18.2078 30.4839 18.1019 30.774 17.9099L37.5218 13.2092C37.8766 12.9489 38.1231 12.564 38.2131 12.1295C38.3032 11.6949 38.2303 11.2419 38.0088 10.8589C37.7554 10.4948 37.3752 10.2415 36.945 10.15C36.5148 10.0584 36.0664 10.1353 35.6899 10.3653L28.942 15.0659C28.6262 15.2727 28.3849 15.5778 28.2545 15.9353C28.124 16.2927 28.1114 16.6834 28.2185 17.0487C28.3256 17.4141 28.5466 17.7344 28.8485 17.9617C29.1503 18.189 29.5168 18.311 29.8928 18.3094L29.8 18.2154Z" fill="#152536"/>
<path d="M10.9478 18.0275C11.2473 18.2814 11.6242 18.4226 12.0146 18.4272C12.2787 18.4263 12.5392 18.3644 12.7763 18.2463C13.0133 18.1282 13.2207 17.9569 13.3827 17.7455C13.6349 17.3876 13.744 16.9463 13.688 16.5102C13.6321 16.0741 13.4154 15.6757 13.0813 15.3951L6.72754 10.295C6.54787 10.1514 6.3421 10.0451 6.12193 9.98222C5.90175 9.91931 5.67158 9.901 5.44442 9.92829C5.21725 9.95557 4.99762 10.028 4.79805 10.1413C4.59847 10.2546 4.42278 10.4066 4.28118 10.5887C4.13958 10.7708 4.03485 10.9794 3.97278 11.2026C3.91071 11.4257 3.89251 11.6592 3.91942 11.8894C3.94634 12.1197 4.0178 12.3423 4.1296 12.5446C4.2414 12.7469 4.39137 12.9248 4.57103 13.0683L10.9478 18.0275Z" fill="#152536"/>
</svg>
